<mxfile host="app.diagrams.net" modified="2022-03-13T08:12:14.698Z" agent="5.0 (Macintosh; Intel Mac OS X 10_15_7) AppleWebKit/537.36 (KHTML, like Gecko) Chrome/99.0.4844.51 Safari/537.36 Edg/99.0.1150.36" etag="6knx7oRT28psC7XvU536" version="16.6.4" type="github">
  <diagram id="oxbFf5gc0IuGh06zg6Qz" name="Page-1">
    <mxGraphModel dx="922" dy="1760" grid="1" gridSize="10" guides="1" tooltips="1" connect="1" arrows="1" fold="1" page="1" pageScale="1" pageWidth="827" pageHeight="1169" math="0" shadow="0">
      <root>
        <mxCell id="0" />
        <mxCell id="1" parent="0" />
        <mxCell id="qHIptJzxmOa5pPm5v8AJ-2" value="" style="shape=image;verticalLabelPosition=bottom;labelBackgroundColor=default;verticalAlign=top;aspect=fixed;imageAspect=0;image=data:image/png,iVBORw0KGgoAAAANSUhEUgAAAtoAAAH+CAYAAACiO6mOAAALrmlDQ1BJQ0MgUHJvZmlsZQAASImVVwdUk8kWnr+kEJJQEhCQEkC6IEUggJTQI9KbICohCSQQQgwJCvaGK7gWRERQWcoqiKJrAWStWLCw9t4eqFhZFws2VN4EsOx757133s2Z3O//cue7c2cm/5kBgPaQJ5NJUE0AsqUKeUyIP2tyUjKL1APIgAC0AAWY8vi5Mk5U1CQA7av/u729BhCVv2yv0vr33/+raQmEuXwAkCiI0wS5/GyI9wKAtvFlcgUAuAzy5jMVMhUuhZgphwOEuF6FM4bxARVOG8YXhmLiYgIgfggAmcrjyTMAoPZBnpXHz4A6NFgtcJQKxFKI/SD24Yt4AogXQDwWxsCctO0Qs9N+0Mn4m2baN00eL+MbHq5lyMiB4lyZhJf/f07H/7ZsifJrDmPYqHJlTDz0dDhvs3KzYsNGcCGfFxQLMawVKRUJuap1wyGukyn8Y0Zi6tPlwfEjMc0iZehXnZNiBTduBF/JyglTxVMgvs/PDUj+2leaFhGpyg9xrzIrnjPCvxcIA4O+xshzYkZiUGKBKC4RYiLE2rl5saoYbYj1CkQBESO8bSZvYtRIvKNQEjKSF50gU0RFfssriVDVogv5YGHu9xoVorjQYYymKOAGGOkrSRcHc0c080Ty0JgRvEgmGdrLQ5o8eVCIat9AfqVQGh87zKM1Al5g2IjOLtwQ98G9cTbuD70fCARikAtkQAKEIBNEAR6QAgX8lsAPj/CIcAmEgxzIiSGbA+Q/PAmBEj6HQZwJsQQUINEgFvCBCD7JQTbI2cdsr7tKbSV3KCCfNRQFeZwJc3NwX9wLd8U9AAekAzGqDzNmlufkeyaIgD9UlAABHFUWeKjqke6j4h07HGsd9zted+x1rMOqsFasEzuItcBo4VB2Vfy33HQy3Z7OodvSmXQS3ZBuAYKglnyotgiomQ9HrwBvQTJkcmFfWBFxPNEKNhvAgj6Q6EF0Irr9MDc82EdVw6OhyoBCOEuh2rgBObJ8uThDpGBx4BtDyOJK+Q5jWc6Ozk4AqN4/w9v7dfTQewXR7fzOKeB6eP8JAHbhO5ecC8B2qDvK5TtnrQeAzmYAWm35SnneMIervghwNTXgSuvDf485sAb2wBm4AS/gB2udCCJBHEgC04ZmJBuOeSaYAxaCQlAMVoN1oAJUgVpQD3aA3aAFHABHwUlwFlwAV8Ft0AV6wHPQB2dnAEEQEkJDGIg+YoJYIHaIM8JGfJAgZBISgyQhqUgGIkWUyBxkMVKMlCAVSDXSgPyG7EeOIqeRi8hNpBt5irxCPqIYSkWZqBFqiY5D2SgHDUPj0KloBjoDLUCXoCvRcrQG3Y42o0fRs+hVtAt9jvZjAFPHdDFTzB5jYwFYJJaMpWNybB5WhJVhNVgT1oZ1YJexLqwX+4ATcQbOwu3hjgrF43E+PgOfh6/AK/B6vBk/jl/Gu/E+/AuBRjAk2BE8CVzCZEIGYSahkFBG2ELYRzhBuEroIbwlEom6cO3diaHEJGImcTZxBXETcSfxCPEi8QGxn0Qi6ZPsSN6kSBKPpCAVkjaQtpMOky6RekjvyepkE7IzOZicTJaSF5HLyNvIh8iXyI/JA2qaahZqnmqRagK1fLVVanVqbWrn1XrUBihaFCuKNyWOkklZSCmnNFFOUO5QXqurq5upe6hHq4vVF6iXq+9SP6Xerf6Bqk21pQZQU6hK6krqVuoR6k3qaxqNZknzoyXTFLSVtAbaMdo92ns6g+5A59IF9Pn0Snoz/RL9hYaahoUGR2OaRoFGmcYejfMavZpqmpaaAZo8zXmalZr7Na9r9msxtJy0IrWytVZobdM6rfVEm6RtqR2kLdBeol2rfUz7AQNjmDMCGHzGYkYd4wSjh0lkWjG5zExmMXMH8xyzT0dbZ7xOgs4snUqdgzpdupiupS5XV6K7Sne37jXdj6OMRnFGCUctH9U06tKod3qj9fz0hHpFejv1rup91GfpB+ln6a/Rb9G/a4Ab2BpEG8w02GxwwqB3NHO012j+6KLRu0ffMkQNbQ1jDGcb1hp2GvYbGRuFGMmMNhgdM+o11jX2M840LjU+ZPzUhGHiYyI2KTU5bPKMpcPisCSsctZxVp+poWmoqdK02vSc6YCZlVm82SKznWZ3zSnmbPN081LzdvO+MSZjwsfMGdM45paFmgXbQmSx3qLD4p2llWWi5TLLFssnVnpWXKsCq0arO9Y0a1/rGdY11ldsiDZsmyybTTYXbFFbV1uRbaXteTvUzs1ObLfJ7uJYwliPsdKxNWOv21PtOfZ59o323Q66DpMcFjm0OLwYN2Zc8rg14zrGfXF0dZQ41jnedtJ2mui0yKnN6ZWzrTPfudL5igvNJdhlvkury8vxduOF4zePv+HKcA13Xeba7vrZzd1N7tbk9tR9jHuq+0b362wmO4q9gn3Kg+Dh7zHf44DHB083T4Xnbs+/vOy9sry2eT2ZYDVBOKFuwgNvM2+ed7V3lw/LJ9XnF58uX1Nfnm+N730/cz+B3xa/xxwbTiZnO+eFv6O/3H+f/7sAz4C5AUcCscCQwKLAc0HaQfFBFUH3gs2CM4Ibg/tCXENmhxwJJYSGha4Jvc414vK5Ddy+ie4T5048HkYNiw2rCLs/yXaSfFJbOBo+MXxt+J0IiwhpREskiORGro28G2UVNSPq92hidFR0ZfSjGKeYOTEdsYzY6bHbYt/G+cetirsdbx2vjG9P0EhISWhIeJcYmFiS2DV53OS5k88mGSSJk1qTSckJyVuS+6cETVk3pSfFNaUw5dpUq6mzpp6eZjBNMu3gdI3pvOl7UgmpianbUj/xInk1vP40btrGtD5+AH89/7nAT1AqeCr0FpYIH6d7p5ekP8nwzlib8VTkKyoT9YoDxBXil5mhmVWZ77Iis7ZmDUoSJTuzydmp2ful2tIs6fEc45xZORdldrJCWdcMzxnrZvTJw+RbcpHcqbmtCiY86HUqrZVLld15PnmVee9nJszcM0trlnRWZ75t/vL8xwXBBb/OxmfzZ7fPMZ2zcE73XM7c6nnIvLR57fPN5y+Z37MgZEH9QsrCrIV/LHJcVLLozeLExW1LjJYsWPJgacjSxkJ6obzw+jKvZVU/4T+Jfzq33GX5huVfigRFZ4odi8uKP63grzjzs9PP5T8PrkxfeW6V26rNq4mrpauvrfFdU1+iVVJQ8mBt+NrmUlZpUembddPXnS4bX1a1nrJeub6rfFJ564YxG1Zv+FQhqrha6V+5c6PhxuUb320SbLq02W9zU5VRVXHVx1/Ev9yoDqlurrGsKasl1ubVPqpLqOv4lf1rwxaDLcVbPm+Vbu2qj6k/3uDe0LDNcNuqRrRR2fh0e8r2CzsCd7Q22TdV79TdWbwL7FLuevZb6m/Xdoftbt/D3tO012Lvxn2MfUXNSHN+c1+LqKWrNan14v6J+9vbvNr2/e7w+9YDpgcqD+ocXHWIcmjJocHDBYf7j8iO9B7NOPqgfXr77WOTj105Hn383ImwE6dOBp881sHpOHzK+9SB056n959hn2k563a2udO1c98frn/sO+d2rvm8+/nWCx4X2i5OuHjoku+lo5cDL5+8wr1y9mrE1YvX4q/duJ5yveuG4MaTm5KbL2/l3Rq4veAO4U7RXc27ZfcM79X8w+YfO7vcug52B3Z33o+9f/sB/8Hzh7kPP/UseUR7VPbY5HHDE+cnB54GP73wbMqznuey5wO9hX9q/bnxhfWLvX/5/dXZN7mv56X85eCrFa/1X299M/5Ne39U/7232W8H3hW9139f/4H9oeNj4sfHAzM/kT6Vf7b53PYl7MudwezBQRlPzhs6CmCwoenpALzaCs/6SQAw4L2BMmX4fjBkyPCdZgiB/4SH7xBD5gZANTx/JsKzYthSACq6AbBqgrrNAETRAIjzAKiLy7c2YrnpLs7DWlR/eDS5Nzj42hIA0loAPq8eHByoGRz8XAsHeweAI9Lhe8kPY/9XD1TKQ9p/8/8Ei3A+j4PjR6oAAAA4ZVhJZk1NACoAAAAIAAGHaQAEAAAAAQAAABoAAAAAAAKgAgAEAAAAAQAAAtqgAwAEAAAAAQAAAf4AAAAAmxfjFQAAQABJREFUeAHs3QdgFNXaBuB3k9303ihJKIGQ0HsHQTrSxPrrVbFd0XvtDbEgdgRRURTrVVFAEem9d0LvLbQEkgDpvW37vzMpJCShhUBI3rk3Znd25syZZ5bJN9+cc0ZnlQmcKEABClCAAhSgAAUoQIHrKmBzXUtjYRSgAAUoQAEKUIACFKCAJsBAm18EClCAAhSgAAUoQAEKVIAAA+0KQGWRFKAABShAAQpQgAIUYKDN7wAFKEABClCAAhSgAAUqQICBdgWgskgKUIACFKAABShAAQow0OZ3gAIUoAAFKEABClCAAhUgwEC7AlBZJAUoQAEKUIACFKAABRho8ztAAQpQgAIUoAAFKECBChBgoF0BqCySAhSgAAUoQAEKUIACDLT5HaAABShAAQpQgAIUoEAFCDDQrgBUFkkBClCAAhSgAAUoQAEG2vwOUIACFKAABShAAQpQoAIEGGhXACqLpAAFKEABClCAAhSgAANtfgcoQAEKUIACFKAABShQAQIMtCsAlUVSgAIUoAAFKEABClCAgTa/AxSgAAUoQAEKUIACFKgAAQbaFYDKIilAAQpQgAIUoAAFKMBAm98BClCAAhSgAAUoQAEKVIAAA+0KQGWRFKAABShAAQpQgAIUYKDN7wAFKEABClCAAhSgAAUqQICBdgWgskgKUIACFKAABShAAQow0OZ3gAIUoAAFKEABClCAAhUgwEC7AlBZJAUoQAEKUIACFKAABRho8ztAAQpQgAIUoAAFKECBChBgoF0BqCySAhSgAAUoQAEKUIACDLT5HaAABShAAQpQgAIUoEAFCDDQrgBUFkkBClCAAhSgAAUoQAEG2vwOUIACFKAABShAAQpQoAIEGGhXACqLpAAFKEABClCAAhSgAANtfgcoQAEKUIACFKAABShQAQIMtCsAlUVSgAIUoAAFKEABClCAgTa/AxSgAAUoQAEKUIACFKgAAQbaFYDKIilAAQpQgAIUoAAFKMBAm98BClCAAhSgAAUoQAEKVIAAA+0KQGWRFKAABShAAQpQgAIUYKDN7wAFKEABClCAAhSgAAUqQICBdgWgskgKUIACFKAABShAAQow0OZ3gAIUoAAFKEABClCAAhUgwEC7AlBZJAUoQAEKUIACFKAABRho8ztAAQpQgAIUoAAFKECBChBgoF0BqCySAhSgAAUoQAEKUIACDLT5HaAABShAAQpQgAIUoEAFCDDQrgBUFkkBClCAAhSgAAUoQAEG2vwOUIACFKAABShAAQpQoAIEGGhXACqLpAAFKEABClCAAhSgAANtfgcoQAEKUIACFKAABShQAQIMtCsAlUVSgAJVX8BisZS9k1YrrGV/eslPcrOzkJmZdcllyvOh2ZQr5WfCUkoFL/WZ2qYxNwcZGRkwl7JueerEdSlAAQpUVQF9Vd0x7hcFKECB8gpkJZ7Bmy+/hZgcIxzs7KG3tUG2BMJmqyO6d2iGnbt2o8ddIzFieDdtU1ZjCj58dwyizV4Y9dR9+PGL8TiTYoLJZJLPragV1AQjRz6FEH83jB/9Mky1euHNl+7T1j17+ih+/ul/2LHnkBbI+tRsiIf+PRK9O4QW7sbKeX/gpxkL0aLDHXjj5UegZUqsufju/ddxWtcc7495AmWd1E1ZyZjx20+Yt3wjsnNNcHGvgcHD/g/Dh/aGnS4Tf/42GQuWhSEzxwRXL/ns7vsxbGAvuNjpkZEQg6k//YgVm3ci12yBs7sP7rz/Idw7pA/0usLq8QUFKEABClwkwIz2RSB8SwEKUKBAwGDnjGbNmqJFi+bITDmLHQfCUSe4CZo2CUHHnn3hZZ+JSRM+xMHIZG2VVTN/xR+zlqJp6x6o4WzGru1hSDc6olWrVggOqosNS2bh5bfeR3xGNk4e3YUDh49r6509ugNPPfEE/l4ShlYdu2PwwNuRfGYnnn76aazcE6EtY81Nwbw/pmPb9m2YNfdvHDmbps2HzoKI43uwd/8RXCLHjsXTJmP85F9RN7Ql+vXrC2ck4fNPx+H02XQsnzkFH331F2oGt0P//n3gnJ2Azz79DCdi05CTfA6jnnkK306fi/ot2+OOoYPgiQx8MOpZjJ8y45LbzKsg/0sBClCg+gqUlfyoviLccwpQgAL5AnoXLzzx6ijt3eRxyTi95iRefvMd+NrnLRDw6hvY/vCT+OLb7/HuyMGY+O3PaNPvYfz7vp4wxeyB1WKLHv3vx4uP9dZWaBXoiLenrEXEmXjYOzjAYDDIfAumfv81IuIN+PyHn9C3fQNt2bsG34GF63Yh2N9Te39i9wZsO34Owwbfj52blmDxkk1o8vgA7TO93iBlXfp0vuPQSdj5NsATz72GJrVcZLNP48ihEwit74bFX22Fq0cg/vvCcwip5Q48+wwOHIhC0wBPzJ3yMVbsO403P/0SI4b10rZnfeRfGCeB9h8/fofefXuhY3ANbT7/QwEKUIACxQWY0S7uwXcUoAAFShUwmc3S+sOKnGzVDCRvqhnaHqOefgRbl/6NkU+9gATbOhj12tNwkDOragOtk98pyfFISEzA6ZPh2L73KOycXODm7CBFWeVzG+RmJGD79oPoNPCewiBble5bJxSPPfwg6vpK4CvB+JJFi2ByC8TLb7+CDo39sXTZAqQa8+pxJf9t17Q5ss4exhMP3o0XX38Lf81dA9+6eUF9kzYdkJVwGE/KZy9IU5mZ81fDPygQOmnusm3/PgQ264C7BucF2WpbOgc3PPDQI7DPScSeI6evZPNchgIUoEC1FLh0CqRaknCnKUABCly5wICHRmLT9q2Yuf4wXnzvS7Sq61O4soOjHgtmfImVsydLgJ6BLJMdHnryNTQI9JJ22xYJZAGztN/OzbbCxffCeoUF5L/IiD2FJat3oFPffyNQlhsyZDCWvPczwnafQr8OgRcvXur7IY/9Fw7e3pg7fyl2bV6FJXNm4cfp3fDlpIkY8OALsDrXxtwFy7ErbDWWLZyF31p2wNdfjlcVhJu7I+xtixfr4uoKZ/kLkisdKzlRgAIUoEDpAgy0S3fhXApQgAJXJGBj74KuXTpg8Z4Y9LqtfbF1cnPN6NB9CAb3bgWzpLj9g0LRpolkkY1J2qgkFpln5+SOWoEeOBK2Hqk598Mtv1mKRLhITk6Hh4c7tqxejMj4dNgc3ozXXjuG9LhzsDGmYe6yZRJoPw2dROw6SZ9fFAsXq4vVaoN+dz6i/STFncWqOTPwwcTvsHZTGJrd0w933PWQ9pN4Xj6bNwPvffEzFmw+gto1/bFk2TGciElD49quhWXu37MTCSYb+Aey2UghCl9QgAIUuEhAbmxyogAFKECB8gioIFplp60WaV5SZDKbrAhuIh0I77gDQwYPyguy1ecFw+NZLbA1OGH4PcNwYudKvDnmU5w4cw5pSfGY8fX7uOuee7F603YsX74WTl5+qOPtjNTUVNi4uKFBwwDsXrsckbGJMKjRUHKSERkdg+joaERFRSE9K/dCTSzZ+OH9V/DUGx8i/ORpODq7oaafC3SynqOtDt9MfA/PvfEJDp+KhpObOzxreGt1tLVzwdChg2GfeRzvjhmDveGRyEhLwcZlc/DRxB8Q2Lw9urcIurAdvqIABShAgWICzGgX4+AbClCAAqULWI0m5OTkFMbIRZeySPOK7Oxsrd11wXyrBNE5Mi8rO6dgVpHfVuTmZCNXhtlTU//7/o3RCen4WUYVuX/tXDgZdEhJycDtdz8MF2MMVmzagz4jxmDCmyMKywhb+BMefu4jLJDh+mBri+MH1+CBu3dp7aqNEu9/MPkX3NGxcd7y0h7cuWZN7P3pLzywcj5cnOyRnJKE0C4DMbB7e6yM3YGdf/+FB1fOlfbjdkhMTEHj9v0xvHtT+Hs5Ytx7o/DhFz9hxAP3wt3ZHkkpqajfqBM++Ogt+LrYFdaJLyhAAQpQoLiATjrkFORWin/CdxSgAAUoUCgQefQATsWlo2PHjnCUQLjodD7qJA4eO4P2nTvD1SEv8DTKuNVbw3bAr15zNKp/UfMKSy52b9sMs70/2rUOLizqzIn92L0/HCr+9q8fjE5tWyA5JgLb9x1D07Yd4e/rVrhsblYKNm3ZDi+f+rC3xuFMXIYWZKtUtNVqQMt2HeDn6VS4vHpx5thh7Nl/GNkyFra7bw106tgJbo5q5BP57MQh7Np3BEbp9OnqWQudu6jPLuRi4mJOYdvOfcjMzoWbb2101ta9VGMVrVj+hwIUoEC1FmCgXa0PP3eeAhSgAAUoQAEKUKCiBNhGu6JkWS4FKEABClCAAhSgQLUWYKBdrQ8/d54CFKAABShAAQpQoKIEGGhXlCzLpQAFKEABClCAAhSo1gIMtKv14efOU4ACFKAABShAAQpUlAAD7YqSZbkUoAAFKEABClCAAtVagIF2tT783HkKUIACFKAABShAgYoSYKBdUbIslwIUoAAFKEABClCgWgsw0K7Wh587TwEKUIACFKAABShQUQIMtCtKluVSgAIUoAAFKEABClRrAQba1frwc+cpQAEKUIACFKAABSpKgIF2RcmyXApQgAIUoAAFKECBai3AQLtaH37uPAUoQAEKUIACFKBARQkw0K4oWZZLAQpQgAIUoAAFKFCtBRhoV+vDz52nAAUoQAEKUIACFKgoAQbaFSXLcilAAQpQgAIUoAAFqrUAA+1qffi58xSgAAUoQAEKUIACFSXAQLuiZFkuBShAAQpQgAIUoEC1FmCgXa0PP3eeAhSgAAUoQAEKUKCiBBhoV5Qsy6UABShAAQpQgAIUqNYCDLSr9eHnzlOAAhSgAAUoQAEKVJQAA+2KkmW5FKAABShAAQpQgALVWkBfrfeeO0+BW1jAmpMIS9xOmBP2wJoWAeSmAbYG6BxrQufZFLa+bWHjEXJd9tBqzIAlfqf87IYl9aRsKxnQ2QKOvrKNUNj6tIGNdwvZlu66bI+FUIACFKAABaqCgM4qU1XYEe4DBaqLgDU7Eabj02E68Ses6WcAq1l2/eIAV/5Z27nDtmZ3GJo8BRsJhK9lshozYTr1D0zhU2FNPQ5YjKVsywLoXWAjgb2hydOwrdW9lGWuZetchwIUoAAFKHBrCzDQvrWPH2tfzQTMMeuQu3MsrCnHJLaWG1I2l7gpZZUA2JIrQbAz9I0ehl3LVyXj7XDFYipTbtz2DiwJu/Oy19q2Lg7o84tT1+tqWzYG6OsOgaHdWOjsPa94W1yQAhSgAAUoUBUFGGhXxaPKfaqSAsbw32Hc/RFgypSA1u7K9zE/4Lbx7wv7LhMlAPa67LqmM8uQu/UNIDtegnP7yy5/YQEJuE3Zkt1uB7suk2DjVu/CR3xFAQpQgAIUqGYCDLSr2QHn7t6aAqaI+cjd/JJUXrLUqm30tUwSoNvWuQN23SZLEWVnts2x25Gz9jHAKG2+JUN9TZMpS2tKYt/zF+gcvK+pCK5EAQpQgAIUuNUFOOrIrX4EWf8qL2BJDodxx7uyn9IWu8wgWzLJKPgpg0TvBPPpJTAdnFLGAlJCVqxkskdJkJ1aRpCttlF0KmObeket86Rx14dS6MXrFF2frylAAQpQgAJVV4CBdtU9ttyzKiFghfHAZC0A1tpkl9gnCWLNORLMyj9lnTQnsah22arDYhmTNAMxHf0FFtXGu5TJdPRXWJOPlt40RZVrKRI0F25X2olrr2XbRSfJmpsi58N8fnPRuXxNAQpQgAIUqDYCtmNlqjZ7yx2lwC0mYJbh+4x7x+VlsnUXd0SUoFcCbBv/+2DX7n0YGv8btrW7ATnRMtxfVOnZb1WGZKutMlKJPqBPMQ1L+mnkbntbypSAWlf0GlwF80bY1Pu3bOMhyVRvgTU3A7aBD8h234Mh5BHYuNSAJXGvthwK6ynbMufCKu289fWGXVRmsU1rb3aunY8ZsxZg8+bN2s/GDetx6lwymoYGYeXC+bC4+sDb1QnpaZJtt9XD1sYGqxbNRhJcUNvbvWSBlXjO+iWzEZvrAn+/iqm31ZSBZYsXQ+dcA15ujpVYouyq7dmyCgej0xAUULPYQhGHdmHzvhMIql8HNhf/kyi2ZN6bzKTzWLR0NfzqBcHRcI3Nrkop93KzTh3YibCDEWhQryYWzvobeo9AORalN9my5qRi9qy58KzdAK6OxZtrWaQJ16yZ/8CrTjBcHeSilhMFKHBLCRT9a3pLVZyVpUB1EDBHLpDOhVkSpJYSUcgoHzqfIbDv+iGQdUwy1dMB+7qw7/EjbD3qSfbZVDqRdKS0xKyRLHlcsc/NUSuknNiSAbpkyW3qPS7beUcC5h6S7Zb/17gbDt0/laD+uAz/twK2oc9K0P26BOkXbVNtK247LCpLfpnp6O4t2HMyBvUkIKpTp5781Id/rVoSq2dgy5o1OHlWOmYiG+PffQ9HozO00g5u3YTwqOL7cZnNVIqPD+3ciiMnz1dYXcxZadi0YQNORimzW3OKPLwHOw+VvPMScegANodtRa5c/13JlJpwDhtWr0Z8qnQivoHTqUP7sWXrdpjMZmzbuAFRsdLnoYxJZ8rBxjXrkJiuhuq8aLLkYMvaNYhNl/MAJwpQ4JYT4OXxLXfIWOFqIyDNMSzxu0oGvgUA0lHRmroNOWsegeW8BM5mGfM6ahMc71oInXsgkHSqYMniv6WdtzXzvGSgD8LWv2f+Z1ZYYrfKtoovqgXOTiGwa/WCfH5IRhFRGVhHGEKfgiVpDXI2vSiLGCXDbYR9x2dgc/hnmS9je9vkZw61DHqa9mAdG88mFxVe/K1OsugNW7TDPffcVfwDybD3HXYn6tapgdXz5+DYqQgsnT8brvcNg5OzE3JSzmPhP38i4mwiGrfujNu7tlbXAjBmJmPF0iU4GZMAv4BgDBzQRzKCtkiMOYkj0anQZ53H6Uxn3D2gW+Fux0WdxPFzqejUrpU2L+LIXkRn2qFrm8Y4tHMzNm7bA4s0v2nTuTvaNg2WrLoOZyOOYPnqDcjIsaBZ+664rV0zrf4HJJi2OrnhxL7dqNeqC1qF1CvcL73BDnrb/DyHORvrVq3AgaMRcPb0Q5/+AxDgm5fpTjofiWVLVyI+w4TWHdojNz0Zzdt1hZedESuXLMGxqFi4eddCz169EOjncaF8Fx/07z8QjZoEwpiegLB94fB0skVY2E7AwR19Bt2Ber4Xli9csfCFBIfrVmHH/nDYOXuiZ59+aBjoC3NWKsJ2HYC3hyO2S1Z54JBh8HG5kIE156Rj9YplOHoqGq6+AVKH/qjp6SzHIgnLly2XwD8Wvv5BMr8vPJ2lqZNMyedPY8nyVYhPyURQ45boe3s32AmNXm+AAfnfI/kOrF2xHC41Q9GsY0fY1DHCUeOzYMeGlVKXY1JPL/QeMAD1ahYfVtKnViAG3jkcgXLXwyIXbauXLcXR0+fg4lkDPXv3Qt0aXoV7rV6kJsRg5YrViI5LlrrWx8CB/aSpVTTC9kSgV9+esM+v0t7tG5Hj5I8Wdd2xavkynIyOh2eNAPTp1w81PZzRtH17GIJ0sJPl9QZ77bsiV6KIOnEYq9ZuQlq2CQ2atkafHp1gkO+Rg3yXo47vwY7lB5BldUCPvv3RuF4tqZGUYWcn2fu8f5xxUcexbOU6pGTmIrR1J/Tq3Lrw+1tsR/iGAhSoFAL5Z/pKURdWggIUKCJgzU6ANeNs2YG2CieNMRIAb4LOo6OMXz0ChtYyMkl6uATRJy6xnmxEmo5Ykg8Xbs0qQ/JZ1NMl1djcRSf1Pue0jELyAIzhS6RFiR46gw9svOrAHLFQytHJeweo8b2tZgNsPENKyaTbyLaOFC211Nc20hQk+XwMwo8dw5EjR3Dk8GFEnonRsuRL5szG8TNJMOXkwiLxRnpmGrKNRglegHl//I4zidmwt6Rh0oRPsPtkggRUqfj0w3ewfHs46gTWwb6NC/DhxG8gsTASIg/hg7dfx7S56+DgVLxZRXT4Lvw9f6ka20Wb9oetwryVO3AufCfGTfweTt614eOsw/Rff8F5yT6ePbYNb73zHhJy7VDL2wm/TvoY05dt09bdJM1DXh/1NvZHxMHRvrQmAypwsuD3rz7GlN/mw83HDzGHtuK1V99FRHwGclPP4t3Rb2Hd3tPw83HDwt+/xyfjv8T5tCwsmvod/l65S7L/9RB/Yg/+nLNY6wqbV2v5rzUbi2fPxKn4dFjS4zBlwvv49o+FElx64vDWZZj41VRcdO+hcFVZGXN/m4xPv/sDDh7eSIs5jNGjX8e+iATopBnDL19/gg8nfI8sswSA+gt/QtTTQyd//Damzl4Drxq1cGrXGvw8fQ6MEnx/PmY0/lm+A35+fti5YjZGj/kMqZKSTj1/DG+/+hp2HZMA3NMVs3/8GuO//VPzVzo6rfOvBX9+/xm++30OnD3cEH1kB+Yt2qjVd+7UyZj0yyx41w5AbtJJjHnnHZyIlaZFRaac1POY9dc8ZBqtWDL9R8xYslVzSzl9QGuqVHCstVWsOfjtu8nYE5mIenVqY/PCPzDh+5mwsTHh95++wrbDZ7TFjBmxmPL5JC0Ynz/te2zcH4k6ciz2rFuATyZ9p9lGHd6BBYs3F/471MnFpzEtBl9O+gapcrFaW74vU78ah7/EBXYOsGTGYOqMv6Bz8kDq2SN4Y7R8d04nyTVrnrGtPPU18cw+vPXWGJxJsyKghgf++m4Cfp6ztsje8iUFKFDZBC76q1rZqsf6UKD6Cqh2tlY1xF5+Jqt0CRWOOMA26L8w1O8of6TdYT7+kwRXEqBf5mE21pwizQrk9jRykmRbFwKnwu1ZpZ114i7o3PrKLLlfb+MEScHlNTPRcmny2iy3tU0Sumnje5e8p2/NvnzzDluDASf3bcfkhDPShtwizcKNqN+sE177779gJ5/Zyqgp/e4ejsWL1+POex9GaIAHVmcbMfCBJ/HUPb2kblkSnL+ARMmMHo/bjT3RZkz68nXU9nCQrF8zvPTy29hz/EH4SXAYGNIJ73/yLtwL0pP5O2sjbb/VtgomlVV1sLdDRnICMiUwrBvUCG2aNcTQeyU2stPj+0kz4N+6H54f+YiWew3w0OOrOXNwV78OsLW1xYB7HsELjwwrKK7Yb1vZVnrMISwNC8crH3yF9o38gPuGYMyLz0lwvx23+0QjUeeNrz56F16Svh10W2s8N/ojKcOKuLNnYe9aC02at8EAyeKazdYSWU2DZM118t2xyv/c/Bpi1OjRqOvtiPb1XDD+13XaRUeROLmwblmJkZi9ZAueeukD9O8YLPPNsHnnJfwzbxGaPNkfDrLdJ18di04hxdtORx7Ygi3hyfjgy8kIruECy/DBknU146QE3LvPWTDh648Q6GmHO/t1w7PPvoINu0/AcEyGrfRrgYljR8FevkbdWzXEC2On4Lg46PW2sJW+AfOmfYdF2yPx7kcfo3EdX+w5agN7O3vkpEZh1tLNeOTlD9C3bUO50OuPjHdfkSB8PV5+bHDh/qg7JeqY2uisiD8bAzsXL4Q2a43+4mYRN9nshUlnj7v+9SiOS8bbzsEF990zFL8vOQF3v3+hX4dQLFmyCt2bPYoDW9cgzak2bu/cCuZgD9Q+cVouOB3xf/cNxw+zVss3UboRyPE16C+E8VaLGQaxe+LfTyI2KRWucvdiUI9IRBw9DfQNgUXvhqf/OwrdmwfI2nfhk9eexdI1m9D8kZ5a/WxtrFjxz99wD+6KV/7zuJYFb1jDCR/9MhfD+neHr9yx4EQBClQ+AQbale+YsEYUyBNQw+Jdbmg8yUwDuTAdGg3zYck2+3SEfbfPoJcMs+n0Ovlrn3d7viSpKvtCEKBtp+j7YitIMF84nraEJZI5Rq5JOtpJQKDVT8oxOKv74xKTScBe2oVBmWVf2JAxJwfNuvfHu/95SIrNC9ZVFlA9cTLvnfzXKK9l5BNjrjyFUiYVSHr55jcVkEDGXpZXzTlS01ORk5GIyRM+gtlkybttb3BCWkYqfKQYD89aJYLsgpqoMgsm9dqkAv423fHg0OOY+u0E/CjBWasuffDUiHuRmZyB06d34J3Rx2FWnHLB4mjviGzxkTQoagWqoKn0SSf1zEhKhIOLPxo3kCBbTbZOaB3SAIfjkpCmz5D1Q7UgW33k5OYBRyc7GKXoYY89ibiffsPYt9+AwdEV9zzyBAZIk5lSJ7G0s3OFm5O99rGNZEZtJYgta8rOSIGNuweaN22Qv4gtWrdvjrkHkrWA3iBNTwL9ije3UAumxCfA0y8YDSXIVpONBJ6e0gLm6Pl41AhorAXZar69pz+aBvjJ8smwjU1BSJNOWpCtPvNv2BgB0hkwLSULdvb2WDNtOlJSUjDwkRclyM43kuXUccmWuxq50mxpycz/YdVM9R21QWaSEfXqpquiSkyyKIaMUG6/4v133oBeAunh/3pMgt32hRcppsxE/P7t14jIcUGLxnVw6uBOaSrUSMuw95XmNks+/gVnEoZj1bK1aH/7cHjY5eDrX7/H3phsuQALReSxA5LNdigsr2glbPV6pEYdle/k53Br0FSasjhg1/aDaNStjSwmAb88wdVXgWmTHZq1CMVq1S+hYKQf6f+QlpiKs9L8ZuxbY2CS+Tr5t+/kYIdMaUaCi+7O5BfEXxSgwE0WYKB9kw8AN0+BsgTUQ2V0Mh51mVlt+cOrc2sLW2nGYTo1M6+ttARVVpM053BRbTvzwtNSy5csn86u4I+6LKECaYOr9DVMKD2rXVCIBDjW3ESY449DX/9O6I7OgCU7B/rgAZIMz5THtR+QskqeVoptq6CsUn4bJHus2qMWm2TkksJJdkllaPV2Ut/8yaKGNMyf1B6rHxcHJzg6eOGZl0ehpoz0oLKJmVnZcHF1xYmtB+T9hXUK1tV+S7yWnCxPtsyfmZ0jTWrytoihD/8Hdz1sQcSRnRj77qfY0a4TXKUtbqB/S7z5n39BZYeNudkwStsWd2mYq7LMZukIV9akLiZU8JwlTURORiVJW191wZCLgycj4dKmI1zcs3D29HYkZlvh5aBDpoy2ogIqNWKMi299jBo7DrlZ6Vg15xdM/WEqurRvBTe7CxcJRbertmXJD9gKLmK0z5WnrFJ0LXsnyUanJCP8+BnUblVXW+zQ3iNwcmmhNdVRF1dm7aqi6BYANw9PJMWewumkbNT1lKYyko3OyDHD3csTcTHbEZthhp+zuEizi/CYeDTwdIPBwxXrww9KcHoH1Lcm9swJnJV9dHG1R4qs7+JRH/9+vBt+++0XLA1piAGdQvOqLXWwc3CGnTRtGnD3o+jZOkjbh6zMDBjs5Y5LKZNFvgNu8m/l1TEfIzc7A+sW/I7//TgVXTu2g6f4qik5+iQOnEzFuP99hQA3HU5tW4wJ0/fAJE7+oe3QtOZ0TP35OxyPNWN0v+4wJkdhy5EzeHP8D2hWyxlnw8MwdvIs7Tt4cRVUoH1irzwMyrUBPnn3De3jBY652J8lV05Se9V8KyVD5cLl36GUcOzIMfgF9Zd/T3l1U81oHF0dUSMoBG++8qS0/VYXgTlysWGBm2tpTZO0TfA/FKDATRYo+RfxJleIm6cABfIFJFCEo2TxclNKD34l4NK5toVdpzdhW3+IdJyMkKH+ektiLwm5Z6Wd8MXtrYvCqkDbrSBjqRZ1lOA8QDpXSttuLeQpunD+a50Et9J8A7psmA5/C32f72F/+28wJyVLoD1MmqxMgiU1WgKDvMzphRIk81ZkWxfmX/zKij0yOsTXxmQJMyxyW9+MGnWb4IHhPZEr2W6zCo719rDXZ2LBrD9g6tdTm2cqDPqsyJHlsnOMCG7TA8HeSzDh868wrF9XxJ7Yj6MSHL01Wjpvmk3Ikc6bpU2urh6IObJVa1vsYU3E33NXoGHfJ3Bk52p8NXU5hgwbBH32eZgkO+4ugWU/6bg5esyX+NHFFi0b+WPL6pUI6DAIDw/uqmXd1YgTpU0qI6/q6hrYCj3bBmDC++/g7uF3IGLfZuyK1WFcn/ao55gBvxkLMObtMejRsRn2bN2A+LQcCbDMknUdh8hsb/Tt1gqnomPh7usjHQiLhstWzUwLruVugtqWugBRk3LNkbbuqsPhnP9NxKEUX4x66ZHCo+7kVQ8DerbE1599iNh7hiE1cg9WHojBqA9flaYcuciWCyuJc0tMdVt0Rqv6c/D+W2/hrqF9cWDTKlhqt8LLjw5Go9nzMHbMWAzq0wlhKxch3aOBdDBtAF3dwfhn5Vv4cPxktG/sj/kyDF5Qpz5oWNMVR9My0Lx7FwwcfCfsMs7h808/RM2Jn8tFkEXqkA1HjwAM6tkKv0z5Ehn3DoejORlrNuzEEy+PRohjkYs1tf/irbe1YNp343E8zQ0DerTByTPn4eojbkWS+05efvCQ4HfWzL/QpUV9rF+0HKnirEXxcuE7eMBtePbNCeh+z38Q7CcPZcr0RG1nPeb9/RcyOzfFtpULkZqZrS1uke9Zbv73TH1/jUYz/OvURXrsUsxavBoBEk8v37Qbvq0bSfk6GKU/xuQvxuPs4N44H74dq4+kYeyjXeSAGbXjZzTboNfwu7H8rU8x5WcHtG8WJB1BV8EttAeeurdPiePBGRSgQOUQ4DjaleM4sBYUKCGgk2YflrgdsCYdLDVLrJ4SaU3dK9nlkzKOdX0ZEaS+jJ99CLk7x8rIH+Glr6O2oppxSFMCQ/MXobPPH3lCAm9LygkZvWSLrHchW1xYKRXDyTISwWsjiKjtWOKPSgAdChsHN5hP/g+5h/4nZcsyEjQUm+SWvqHpf6WOgcVmX/xGdfpSzQXUb9W+WY2y4O5dE02kKYUKGOsHB0tTBFf4eDnh5IlI+ATUR1CdWvCvWx81vNy04iySTQ4KDYGftze6dOmEjNjTOHg4HDk2rhgsI5fUkuVU0xMHd280alCyPh5+teHnYUD44aOwca2Bvr1vR/169dCmdSs4WNOxf/8BnE/KwrD7H0GH5vXg4VtXRh9piGMy5NyJyNOoHdxSgslucjvfIHW2IKBeQ9QsZYxv1Qa9dr0GqOnjgVYdOsPelIZDksHUu9bEM8/+F438vWDr4IpOnTsiOyUesak56NqlPSLCw9Gl71C0a9IQsael0+hxubPgUQdPPPEIfC4ao1ldlzQIaQw3GXvZaueEUMkIGyQLqjLa9i6+aBLaAKePbse63WcwaFCvwkBbHedmrTvCx9GEQ4eOIsfWDY8//RzaBPtr+2SV72VI40ZwUO30i0w6uQjq0KkrzOnxOHz0OJz86uPeu4bJCCUe6Ni5MzLjoxEux823XjM895+n4CdZa0c3X3Rs11JG4jiKyOjzaN65D0ZKkxx7qadFjLxr+KNObT8ENWsJV32u5PsdUV+OubOHD4KDAtFMMv8+9qa845KQie59B2mju6jmQ8UmvQMahYbKOnURH3UCh48dl++jtJd+cgT83C9kwA3Sx6FpaH0cPbAXp88loHHLdgiVfQ1pWFe7y+EtnTxd3dzQd+Bg1PB0kX8qTmjRJBQnj+zHqajzaNikFZqHBKNRo2DYyAFw9q6BhvVry75I+/6GDVGnQTDq+Dpgz+49SMy0on2njmgoy9ar7SN3lNzQuV1zHJFRatIsjnj0yZFy8RGo3X2xWG3RQJarVasu2rdU2zuI46ci4V03FEP63w6XohcWxXacbyhAgZstoJOTbim5iZtdLW6fAhRQAqbTS5G7YWTpwa9GJP98Vbto1RVPBciqU6MKiEsLlrXl5T+yvI08rMahx0+y7IV0njlhL3JW3CfBct6t7ILFC3/LEGuqOQAk+y0r5m1LAgBte9JhEjLsnTa/cAV5Idk4nQzr59jvn7xseNHP+PqSAtnJMZj8ze/oNuROBHg5Ytn0n7DuhAlff/VBme3LL1lgiQ+tWD7zJ8Q5NMa/hnYr8SlnUIACFKBA+QXYdKT8hiyBAhUmoPfvCZNvOxnCb3sZHRsl4JVb2nmTBN1asHup6sgyMjKIIeSxYkG2WsPWqzlsA/rCHDG3SJlFytKajhTJdmtNRAqu0wvqUGR59VKykoZGIxhkX8RyJW/1jh5o3NAP//zxk5bdd5Ds7xujR1ynIFvVQIceQx+Sts7Fhzi8krpxGQpQgAIUuDIBZrSvzIlLUeCmCZij5cEw656QuEjdDlc/5ZjkKZO29e6UkUkm55dXvCz1EJvslfdLKl2evFgk2118qSt8pzLncpHg0Ht6fhb8CtfjYsUFpC2+NO+VoeIu3H0ovgDfUYACFKBAZRUo3siustaS9aJANRaw9b8dhiZP5zcRKcggXwOIBL46z8awa/t2qUG2KtHGqynsWr+Z145bteW+1kk1GZGOnHbtP2CQfa2GBevJBQ+D7AIM/qYABShwawkw0L61jhdrW00FDC1egm2D/8sLtq8lAFZBtnRGtO/8uTzURg39V/akD34Q+qbPSrAtaVT1c7WTjHsNGTrQruN4CdybXe3aXJ4CFKAABShQZQTYdKTKHEruSJUXsMhwYQe/gemANPswZ0s7ajWE2WWakqhAWYZks6nZRQLfT2VkkqArZjIemwbj7k9kpJHk/Lbfl9uWZMBVcxHJmhs6TYCtTxkPULniGnBBClCAAhSgwK0twED71j5+rH01FDDLEHymg1NgPrcxL8Otnp6otadWgbA0LVEZ7/xMtM6lLvTSGVFlqXUGl6vWsiQegPGQbCtqhTyNRbXbViOaqD7U+UG3ti01SonMkaYi+gYPQB8yQnutzeR/KEABClCAAtVYgIF2NT743PVbWEACafP5rTBHr4QKhq2ZZ6UDY6ZEu/IYdgdvGd86CLaSxbYN6CfvZYzeck6WBHk63pnl8uTHvbBmyENpjPIYdhV023vKeNP1YOPXUdvW5cbKLmc1uDoFKEABClDglhJgoH1LHS5WlgKlCEjQbVVBtjQtUSOTqEe3Xxjyr5TlyzNLht23qhFJpLOjbExrvqJTT4vkRAEKUIACFKBACQEG2iVIOIMCFKAABShAAQpQgALlF+CoI+U3ZAkUoAAFKEABClCAAhQoIcBAuwQJZ1CAAhSgAAUoQAEKUKD8Agy0y2/IEihAAQpQgAIUoAAFKFBCgIF2CRLOoAAFKEABClCAAhSgQPkFGGiX35AlUIACFKAABShAAQpQoIQAA+0SJJxBAQpQgAIUoAAFKECB8gsw0C6/IUugAAUoQAEKUIACFKBACQEG2iVIOIMCFKAABShAAQpQgALlF2CgXX5DlkABClCAAhSgAAUoQIESAgy0S5BwBgUoQAEKUIACFKAABcovwEC7/IYsgQIUoAAFKEABClCAAiUEGGiXIOEMClCAAhSgAAUoQAEKlF+AgXb5DVkCBShAAQpQgAIUoAAFSggw0C5BwhkUoAAFKEABClCAAhQovwAD7fIbsgQKUIACFKAABShAAQqUEGCgXYKEMyhAAQpQgAIUoAAFKFB+AQba5TdkCRSgAAUoQAEKUIACFCghwEC7BAlnUIACFKAABShAAQpQoPwCDLTLb8gSKEABClCAAhSgAAUoUEJAX2IOZ1CAAhSgwE0TsFgsyM7ORm5uLtLS0hAbG4v09HQYjUaYzWbY2NhAr9fD3t4e3t7e8PHxgZ2dnfZe/eZEAQpQgAKVR4CBduU5FqwJBShQzQRycnJw7tw5nDhxAsePH4fJZMLJkyeh5teqVQuurq7aa8WiAmxbW1uoQFz9WK1W7b2aHxMTg4yMDPj7+8PLywseHh5o3rw5atSooQXj1YyVu0sBClCg0gjo5GRtrTS1YUUoQAEKVHEBFVQfOnQIu3fv1oJog8GAkJAQeHp6okmTJnBzc4Ojo6OWob5SChV4Z2ZmapnwU6dOQf0kJibi2LFjWnm+vr5o3749mjZtCicnpystlstRgAIUoEA5BRholxOQq1OAAhS4nIDKVm/evFkLsFWTDxXwqqC6UaNGWrOPy61fns9Vxjw8PBxhYWFISkqCu7s7OnTogE6dOjHoLg8s16UABShwBQIMtK8AiYtQgAIUuFqB1NRUrFmzBps2bdKagLRp00YLcFV2+WZNqp330aNHtTqp4LtOnTq44447EBwcfLOqxO1SgAIUqNICDLSr9OHlzlGAAjdaIDo6GosWLcLhw4fRokUL9O7dWwtob3Q9Lrc91Q5cXQSsW7dOa/M9cOBAdOnS5XKr8XMKUIACFLgKAQbaV4HFRSlAAQqUJXD27FnMnDkTZ86cQY8ePdCnTx+trXVZy1em+SrLPW/ePCQkJGDQoEG47bbbKlP1WBcKUIACt6wAA+1b9tCx4hSgQGUQUEPwzZgxQ2uSMWDAAPTq1UsbDaQy1O1q6xAZGYm//voL8fHxeOCBB9C6deurLYLLU4ACFKBAEQEG2kUw+JICFKDA1QgsWbIE6qd79+4YPny4Nr711axfWZdVzV6mTZumjVjy6KOPws/Pr7JWlfWiAAUoUKkFGGhX6sPDylGAApVRICoqCj/88IMWiD7++OPa2NWVsZ7lrdPKlSsxf/58qEy96jTJiQIUoAAFrk6AgfbVeXFpClCgmgssW7YMixcvxoMPPoiOHTtWeY2UlBT8+OOP2jjdL730kjaCSpXfae4gBShAgeskwED7OkGyGApQoGoLqFE6vvvuOyQnJ+PFF1/UxqOu2ntcfO/UBcbChQsxcuRINGvWrPiHfEcBClCAAqUKMNAulYUzKUABClwQiIiIwFdffaVlsO+///4LH1SzV+qJk19//TU6d+6Me++9t5rtPXeXAhSgwNULMNC+ejOuQQEKVCOBrVu3YurUqXjmmWeYyZXjnpubi2+++QYmkwmqKYler69G3wbuKgUoQIGrE2CgfXVeXJoCFKhGAqtXr8acOXMwduxYeHt7V6M9v/yuqiENDx48iLfffhsODg6XX4FLUIACFKiGAgy0q+FB5y5TgAKXF1Cjbaxfvx5jxozRRhe5/BrVbwn1kJuNGzdqRq6urtUPgHtMAQpQ4DICDLQvA8SPKUCB6icwffp0HDt2DK+//vot83THm3WU1BCAKuD+4IMP4OHhcbOqwe1SgAIUqJQCDLQr5WFhpShAgZslMHv2bKgHtqgg22Aw3Kxq3FLbVU1s1B2ADz/8EC4uLrdU3VlZClCAAhUpYFORhbNsClCAAreSgAoYVefHV199lUH2VRw49dj5QYMGaVlt1VmSEwUoQAEK5Akw0OY3gQIUoIAIbNu2DXPnzsVbb70Fe3t7mlylQN++fbXhD8eNGwez2XyVa3NxClCAAlVTgIF21Tyu3CsKUOAqBI4ePYrffvuNHR+vwqy0Re+66y7UqVMHU6ZMKe1jzqMABShQ7QQYaFe7Q84dpgAFigpkZmZq40K/8sor8PHxKfoRX1+DwKOPPgr12PalS5dew9pchQIUoEDVEmCgXbWOJ/eGAhS4SgH1pMN+/fohKCjoKtfk4mUJvPDCC1i0aBEiIyPLWoTzKUABClQLAQba1eIwcycpQIHSBBYsWACr1YrBgweX9jHnXaOAGnlk5MiRmDRpErKzs6+xFK5GAQpQ4NYXYKB96x9D7gEFKHANAidPnoQaA/r555+/hrW5yuUEmjVrhk6dOuGHH3643KL8nAIUoECVFWCgXWUPLXeMAhQoS0CNiqE67D3zzDNwcnIqazHOL6fAfffdh/j4eGzfvr2cJXF1ClCAAremAAPtW/O4sdYUoEA5BObMmYMGDRogNDS0HKVw1SsRePrppzFt2jQ2IbkSLC5DAQpUOQEG2lXukHKHKECBSwnExcVh48aNGDFixKUW42fXSaB27dpaE5IZM2ZcpxJZDAUoQIFbR4CB9q1zrFhTClDgOgio7OrQoUPh6Oh4HUpjEVcioMbX3rdvH86ePXsli3MZClCAAlVGgIF2lTmU3BEKUOByAuHh4YiJiYF6ZDinGydgZ2eH4cOHg1ntG2fOLVGAApVDgIF25TgOrAUFKHADBP7880888MADN2BL3MTFAt27d8e5c+dw4sSJiz/iewpQgAJVVoCBdpU9tNwxClCgqMDhw4dhMpnQunXrorP5+gYJ6HQ63H333Zg1a9YN2iI3QwEKUODmCzDQvvnHgDWgAAVugIAaaWTYsGE3YEvcRFkCHTt21B7PfubMmbIW4XwKUIACVUqAgXaVOpzcGQpQoDQBFdilpqaibdu2pX3MeTdQoHfv3pg/f/4N3CI3RQEKUODmCTDQvnn23DIFKHCDBJYvXw4V4HG6+QKqrbZqp52SknLzK8MaUIACFKhgAQbaFQzM4ilAgZsrkJ2djYMHD6Jr1643tyLcuiagRiBp1aqVNpY5SShAAQpUdQEG2lX9CHP/KFDNBbZt24agoCA+ar0SfQ/U8IqbN2+uRDViVShAAQpUjAAD7YpxZakUoEAlEVBPgeS42ZXkYORXIyAgADY2NoiMjKxcFWNtKEABClxnAQba1xmUxVGAApVHIDk5WWsLHBwcXHkqxZpoAm3atMGWLVuoQQEKUKBKCzDQrtKHlztHgeotsH//fjRs2BAGg6F6Q1TCve/UqRPU8eFEAQpQoCoLMNCuykeX+0aBai4QFhaGli1bVnOFyrn7tWrVgnqIjXpaJCcKUIACVVWAgXZVPbLcLwpUc4GcnBzEx8ejefPm1Vyi8u6+utugntjJiQIUoEBVFWCgXVWPLPeLAtVcIDY2Fq6urnB0dKzmEpV390NDQ7Fjx47KW0HWjAIUoEA5BRholxOQq1OAApVTYO/evahXr17lrBxrpQmoQDsjIwNms5kiFKAABaqkAAPtKnlYuVMUoMD58+ehAjlOlVfAw8MD6enpSEpKqryVZM0oQAEKlEOAgXY58LgqBShQOQWsVqv2mO+6detWzgqyVoUCISEhUM18OFGAAhSoigIMtKviUeU+UaCaC+Tm5sJoNGpttKs5RaXdfTXG+e7du+Hu7o4DBw5o9VSdV9WTPDlRgAIUqCoCDLSrypHkflCAAoUCcXFxqFmzJhwcHArn8UXlEnB2dtaCan9/f2RlZWmV27dvH7KzsytXRVkbClCAAuUQYKBdDjyuSgEKVE6B06dPQ2W1OVVeAfUQIU9PT1gsFqSmpmoVVceN7eor7zFjzShAgasX0F/9KlyjOgtY00/DnHQI6jeMGYCtHXROtWDj0QQ2bvXlvX115uG+VxIBFbj5+flVktqwGmUJ1K9fH8ePH0dUVJTWKVJltn18fMpavHrNN+fCknoSlmQ532bKQ33MOYDBGTqXQNh6NpXfdW6QhxXRkccRceY87J3d0Eja1Ls5Xb/zfPzZs7B1coenu9N12x9jTibiEtNQs1YNMJt43VhZ0DUKMNC+RrhqtZrVAnPUchiPTYc1YQ+sxjTAYgRkPqADbORrpHeEjXsj2NYbDn3Q3dDZuVUrIu5s5RJQWdLg4ODKVSnWpoSAOkabNm2CjY0NwsPDteY+6nV1ntT51XRyFsyn5sCSEg6YpFmNxSQkVjndio2NATqDK3TerWAIfhC2AX1lvm2FkFnlPD/zl8mYtSwM/gEByEiOQ7rJEc+/NAqdWwddl23O/HYibJoOwdP/1+Oy5aXHRWLxmn0YevcQOFxil+NPH8SEH+bhvXEfwu0Sy112g1yAAtdBgIH2dUCsykVYksORu/tjWM6uyzvZy0leO6nbXnT2khOyRYJwS/xumE/8CX3L16AP6FOVabhvlVggISEB6hHfnCq3gBrez8nJSWs+ogLt6v4UT1PUSpj2fQZL4kE5z6okhpxvC36KHEqrMR3WmDXIObcBNrVug13rt+SuYqMiS1yfl8lnDmHWog14fNQ4DOzYCJlpiVjw91+w6iToz5+yM1Jx9nwCXDy84Ovlrs015uZAp7eDJSdDPouHq5cPvNxcClaRcpIRm5AMb7+asJUoxGRSSRtJ2huzERMj2XuDI/xrF89GW2Ss9YjDezBv7nJ06dULtb2dYSNEavvnYhPg5OYJP28PrRyZDWvRsdnlQiUlNROu7m7aOmr75+OS4OrpAx9PV20dVWcbqbMpO10rz83bD56u1y/Lrm2E/6mWAgy0q+Vhv7KdNkWvgXHbG7BmROc1CblksxD1R8FOK9iSfBi5G/4Da8uXYWgyUuap0x4nCtw4gZiYGLRs2fLGbZBbumaB+tJ8RI00oo7Z0KFDr7mcW3tFK4yHfoBx30SJNqUz6CXPtbKnKrOtLWOFJXoVcpIOw9BxHPT+va4vgwyTCUsuos6cQmJoLXi5e+H+x58p3Mb+rSsx5edpsHfyRLI01+ox+D48elc/7Nu4BFPnroGTgz2SUxKRkm7FC2+/i46N6+Dw1mWY8O1UuQnqDtUhNiU2Bl2a2CMz6Qw+/XgC4k220OVmwK1Wc4x65Rm4O+aFKUnnTuCnqf8gNS0F4yZ+gbffGo3Ug6vw2ZRpsHFyRlZaGjr2+z+MfGiQdo2i/mMj+SBzZhI+++R9ZLs1wehX/o0Dmxbjh9/+hqOz1DklFf3vfQT/d8dt2LFqLv5cGgZHOz1SpM5pWbZ4dex7aNWAF+yFB5wvrkmAgfY1sVX9lczntyB307PSDjtdTuhXOXKDCritJhh3fSRQuvxgu+qbcQ8rj4Bq62t78V2XylM91qSIQOPGjREWFobWrVtr2e0iH1Wbl8ZDP+adL1UzvPyExZXtvCQx5PxszTov5+vnoLvtR9jW7HJlq17BUp6BTfCvYQPx+9SvsGzW72jYsBH63DEEt3dpjez4k/hy8s8Y9PiruOv2tjh7YjfefO8LtGjdBjpLjmSMczD6g1EI9XfFZ2NGYfXmfWhX3w3ffPMzmvS4D8/8axgSIw9gzNhP5N+qHsf2rEd4qh2mTBoPV6Rj49YD0OvlgiJ/8q4djKdG3IsJv6zGG689D9es03jny+/QbujTGHH37YjcuwnvfPQ1gpo0RgcfvWTK9RJkp2HSp2MRkeWO919/GFnnj2DSlN/xwHNvY0Cnpjh9eCve/mQKWqiLcmmiE5dowttS5yBfR3z85mtYHbafgXbBAeDvaxa48C2+5iK4YlUTsEhHx9ywUXlBtrpteS1TfltClaExR6++lhK4DgWuWSBb7kTbODpf8/pc8cYJ1Ja2v+6+NRDQIPjGbbQSbUmdH43SXETr66LOm9cyqfO0JEVyt46COn9ft0k6u9/52H/xww/f47+P3w9Hayo+e+8tzFy2FXFnTyEu1xZp507hzz//wubdx+FgzcKBw+GwSCK8WdfOaNmwNuwdXRFUN0Dr0pOZHI1kgwfuv+dOODsYEBjSGh0b1ZERgoyo3bA5nLLO4e03RuGXvxajTnAInA1FPCRD7eLiDFudHj5ebog9dRRGp7p48L5+cLAzIKR9T/Rr3xD7dh0VSj1y0xMx8eN3seW0Dh+8/w58XR1w5tQRJJntEB95RKvz9gMRMOSm4mD4CamzDi1v64Ym9WRYUGd31A+sLV2R8pq0XDdPFlQtBZjRrpaH/dI7bTzwNaypJ7QOjqUuaTXnd87J/1RlYUrrjKP+aMht0Ny9E+Dg117rwFNqeZx5ywhYYqOQvW6OfD8S5ZhX3iZBbSO3wGF2CjK8PG8Z2+paURv5Ho3ws6LB9jnIiAmrvAzSjELn5gX7HsNh6xdwXeqp2lqr86PWXKS0TLbqcK46nmvnWDnPyp1CrWOkCqwvDsplnlVGKTHu/wr2nSVwvw6TVdo2Z2ab4V0zALern35D8MeEN+QOxCa0ubM19BJQ29s7wMFGbKSdxp3/Gom6ofWQfCgCqk11waQ6J+vU+UKWV61R1O+CSTX3NpmM8A1sga8nf4Etm8OwLWwjRr25Dh+PH4+GfnltqNXyVhXB5593dKpJotmSV15+YRaz1ENeqwz52RMnkV0vGAZTEg4ciUDPNupCzgpbCagdpM56SJ2kzvc/9h/Ub+iP6B3Sx8isOp3mTXl1LnjH3xS4dgEG2tduVyXXtCTsgzlyYdnNRdRJ37Eu9PUfkFFGAuXEfhimyH9kuD/pwKL+GFw8yR8Pa+IB6UU/G4aQEVwlUYIAAEAASURBVBd/yve3kIBZguzUDx+TY5nfUasS172PnR3MGw4iU/1h5lTpBe4xyHlixzFkbqvkGUSJEnPWz4PbO79el2DbdGq2dn4stU22CqptfWAbNBzWpA3S0Xwf4NxEOpn3hiVmHiyZ8tj6i4NtaUZiPr0QlkYPw8a7/H0UTu5cj4+/mYH7nxiJDi1DkB5/GruPn4FX85bwr9MI3gYTcgzuuH9Id0mox2Pjtn1oWK82tu03SQB84d+eem2WINbJyx+e5hRMnzkbzzw0FIkRBxAmQXDX5vaIOLAF+2NMGDxgCDq3aYJnXnoTccnpxQJtnfR+zM3J63zpFdgQ9qZo/DFzMUYM74WIfRuxbPcJPD3kPzDlJMG7TjA+/Hw89i38GV99/DF8v/gcdYOawl33J6zOfrizb3tkp5zH5l1H0CCwBqLCVJ3z+hmpfzCqzpYi+1Dp/xGxgpVWoJTIqNLWlRW7AQLqxA+jPDzC1rHk1qxG6Fw7wP727yWBnQVz7CHYNnoa+gbDkLPqX3LiTyh54lelSAbCHCGBdsMHpNwLJ7KLN2DMSsaihcuQnJGpneSsMgJqw2Zt0L19Cy1LcfHyZb0/uGUDEuUPVPcOodi3Mwz2PkEIqVujrMWveL7FYoZResfby23KK5mssnyu0SwZn7L3+UrKqSzL5GxcoAXZulugSYaWS5NOTZU3515ZjmrlqIcWXksW8lY4XqZTh5CzYQGc7r7QKfCaFGWcbLM63+ZnaIuVoTLZOlcYOkyCoX5XGHe+BHNqEhy6/wRb33rIWbMdSD8r59MiTStUAaosNTyglGt3HQJt/9CW6NVxF3775jPM8vBEdnoKfOq3xIj7B8NFRut48cWR+OaHX7Ft+d/SZzIbNYOlKUiP22Fn7wgXpwvhhYN0VnR1sJPrCQ88++xIfDb5F7y6a400BXGFkzy0yMlZ2pnrsrFs9q9Ytmi2/C1JR1CbPmhat/hY+L51g1DTLRNjRo3Gc6PewWuvPouJX/+KVzcuQkZaOvrd/2/0alUPiaeS4CdjaDs52qP3vU/iWMRZ/PjTLxg35mW8+Pzj0oFzCtYt+ENGGMlE3WZd0KVnD9g5OMHF8UJ/JEeps1nqxYkC5RXQyVXbhcvO8pbG9W9pAas088heeiesyUdKz05LhkXnFCzZ7GEScP0Ka1o04NkVjgNnwbT3FRgPz5QTf2kPMpCvmGS2HfrPlSGoQso0ykw8hSdHvITgzj1Qr6YHEs5HYv2G7bjvv6Px0KBuZa538Qd/f/Eu9plC8cFr92D8mNfh1vROPH1/j4sXu+r3Wxf+gc3RLnhp5J1XtO7BLQsxb2cc3nz2sStavrIvlPHbx8icNRk6B7Z9ruzHivWrOAFrdgac7nkWziPeLNdGLCnH5Hwro6zIqB4SIRcvS5ps6NtOgaFBd0mtGmA68B7gex/0vnVl2Dx7yao/CHPMbjnflnLRL+vq5DzrMGCuJERKSZgU39IVvUuXUTiS0zKgt3OUB0H5SArkwmTMSpeh+pKgt3dGDV8v7QOTUS4i5FqhIMlgzMmBRZpp2Bvygm81JF98Ugo8vCQYljyE0WqjfWaUwDc2PlHyMQ6oIdu5SEUrWw3Nl5yeAx9fH9jpbZEj209ISIG9BO3eHm7aMiopotp92zs45JUhzR3T0jPhJMvYSqE50kkyPjEZBgcX+PnkNS/T6izNSgoSKbk5MvqL3KW1y6/zhT3mKwpcncCFS86rW49LV0EBa0ZM3hPILr4dWbCv0gnFmnlc2gB+KicgOcFrA6BmqmZv0lZOnlpW5iRnNlMmLPJEyUsF2qoNn8HBHcPueQRtGnlrpQX7jcfMxWtwvwTa1owkrF27HucT01EvtDm6FWa6rdi/Ywv2Hj6OGnI7M1dO6OoELIOxov+Qe+EWGIrczGQcPhEFV3sdjp6MQe8BfWEwZmLT+nU4FZOAGoHB6HlbR9jl/wU5H3Ucm7ZsR0auDm27dIeXwYh1m7biaKILtu4Nkduoki0P24ADx07D0d0bnbp2lXFd807yquJJ5yKwZv1mHDyZgQ1b96JrR7mNmyM96detQ8S5RNSU2563de8Mh1vpX2BpmTftKPE/FKhmAtfh34J6RoE6L2rn0ov5pHxLzALknF0Mu7YfSxxulucT/ATzSXfYd3onL3N98ToF7+X8bZVOhep8rnNrUDC3XL9dZFg/9VPaZHB0kYfZXBgjWy2jl6ZARU9tBvviCRgHecJkgPwUTAWfGiSr7B9w6bGrnVxl7PULzbals6ULal+0fRv5G+BQ9Ik20ofI1fXCSvZSgH/RQkqps5204+ZEgeshUPTC9HqUxzJuZYHcZO22Y4l2f0X3SXV61LLW6mavAwytxshQTlGSXdlc+h+MgnUly6I9RrjgfVm/VQpDPYUgf8qRBxjY6A3ITovHJzJE1KKNe2GUMVZ//2Ycvpu5Qltq0/zfZFiniTgTm4xdGxbjn9XbJNGT11xj7cLZ0qYwGjnJMfho9Ch8MPFbnIqW/cxNx1efvoff562CMScXC/78ARO++Q2qyUHE3vV4/eVR2HEwAvExx2UM1o+xff9hnItPRWZmHA6dOIPNi//CxO+mIUfaHR7duQ7f/jgVOUXuDaUnnJVHFsfKU+qlI87Bw8jJTsEXn7yLn/5egjQZB3bWr1/hwy+/R5Y0eedEAQpUQwEZki/viY+l7LucZy0xc2GJ25t/XpVAO2Kq3EWMkfcqiXCJSSVK5PwGdT7nRAEK3HSBohedN70yrMDNFVA9zLVe7bpSbkcWrZq01Qbc5AEJ42Go20rGb/23DCkVV0azkYIVJQqVsVUvPemkR3gmpv08CSs8nWGULPSuvYfx+GvvYc+KOTht9MXX48fASf7O9O/cBK9/Og39ujXBX/NWYPjjr2DEEDV+rBnfvv8G4o15EawaS1nr7S5pdzfvmnjp7ffQNNAHBzfOw8bwVEyaPAm13eyQMeQ2PP/qe9h/rDdWz5yOhrfdi3ee/T+tutGnIyRTXg+OMgbr2nM+eEweyPD3pLGw9wzAgMF3oraPuwTPGZBkeeEU2LQz7h58DDO3x+OZx/8P+9bPRtjRNEz8ZhLqeDkiaVhvvPDS2wg71Be3twwqXI8vKECB6iFg1ZqMFLk6v3i31SgkRTuY20jet6y7jRevK838tPP5xfP5ngIUuOECDLRvOHnl3aBOZarVyV2GPSrRZrCg2ipYtqsvnXQmQl9TOuWsfxSmiOUydN+F24AFixb/LVGo/vJte62SyQmQDi+O6ZGYsX4PXn1/AgZ3aYpZX86WHu/RGPfeWO1xvTq5lQoZFyru7FmY5HZj+3Yt8jdnC39fT8RnFf8DpoZqcvXxQ6C/j7ZcfHICsrNSMOWzj2GWDo6qT5HZosN5eUpZUqIZPe/uXFh9fwmy1WSS4aoKHuvb6+7/w7HvfsTrLz4PN3m88ND7HpKgv02xtotqebVdNcXGnUPdFi20IFu99wwIQUiwH84lJMo7BtrKhBMFqpOATi9NJK5DE5SSZnLuk/O4dj4v+SHnUIACN1iAgfYNBq/Um7OXdtF27tKWWIK/0v4AqE42ri1g102ePuZVWxtJROcYAkPzVjL01Cb52V88A1N0Z+XEb+MSWHROKa/VcEoO6NlnKFoH2eN81LPYtHkrBndrCgcne7jXDMJ/nn8OdipzLEG2WYZuc5LRT3IzshAVHYsmtfLaCWZnl94ewypBrza0qwTVjjL8m5OTDx5/+lm457flM5vM0gveDpunmXDy1Gn0blNXq6MpN1c6AcnwY9JvWJffy9/LvxHe/HAiUpPisHHZP/jlm+/QovnXqO1e0NpQbg6o5fNv87rJo4ZjIw4jU64PVEbenJWIszFJaO546faIpSBxFgUoUAUEdM7++YmNS+2MnOxU8qMgk61+a2Noq5NgGZMa38BezuPqfM6JAhS46QLyr5YTBfIEbJxrSTBcRyJE1VK5tEkG+HcJkRg3TtoO7pDXQdAHS0/4+kOkk6MEpWpIqtImNd/OFTrPpqV9WjhPBaY50tM7Wx6fDRsnPPWfp3Fk7Sz8vWoPug4aCtO5fZj+zyIJqs9gxdw/MWPRBjh7+qOXPIjgh0njsHTNBiyaNRV/rtgkDUjyvtpaT3LtoQYW6YWeW/ichObteqCmXRJ+/mMmIqPOIGzNQvxvxizondwwcGgfLJ3+FabPXYJ1KxbIEFKjcCw+Ha7uTjhzYgfWrFuPX6d8jvcnTEFE1DnIMxJg5+gIg03xf05OMgxedPhRLFqxFrUbd4Wb6Qw++HQyNm/ZJE8sex8ZYt25ecPC/ecLClCg+gjYuIdIf225E1jWeVONl2GRTuRxm7XnFOhUZ3RjPCzn5X22DMFaWjJE8cn5WyU11Pn8RkzhW9fi+1/kIVbXbWM5mPbLN9h+LAYpMUfw4y/TkJJV1t+kq9toUvx5GT1FOqBe4ZSSGIeE5LQrXJqLUaB0AduxMpX+EedWOwHJllizYmE5uz4va3IxgDTrsKbLA2qOT4fpxEz5+VNeT9N+LEknZJ0ybpBIW0Sbml1gaPTQhczMxWWr95KhTkvPRrM2reAlj8t19fZHDXc9ouMy0KVbd7RvEYIDO7Zix559yLQ6oX//PvCTR/GGtmwLnbQR37p9O7Js3NGzaxsEBEnTjPq1ZGzVVNQOaoSaEiRnyihazZo3lYBY/r45uqNT+9aIPLxH1tuJuBSTPPVsIAJreiOwYVPU83XG1i1bEH4qBu169EeH5o3g4+eF6JNHEXE+HX369kFCxEGE7diN83IefviJJxAcUDyD5O7hjfioEzgWFY+Ot/VF39va4tSh3diz9yDsfYPx/PP/RS2PWyejbdy7EcZD22R4MdW8iBMFqqmAPMXQ0FRGKGrZvVwAOoOLPItga95TeEs7d6rstTVDHiA2C5bUqLw+MMbzMvb233mBdlmdIqV5nz74YdjWuND8rVwVvczKp/dtwIKNJzFoYPdSh+O7zOqlfvzn7z/CtX5b1LZLw/JNB9G2fXu4XIchmr7/Yizi7eugyRU+V+Gvrz/F/gQXtG0qCShOFLhGAY6jfY1wVXU1a4Y8YnuZPIksO16C4sv0br8iBMlzSMbGvvv3sA3sd0VrcKHKKZAx9RNk/v01x9GunIeHtbpBAto42vc+B+dHRpd7i+aoFdLP5an8BMQlmoNc6ZYkm61z8IZDvzlyxzHwsmuZjTnYtn451m7ZjVzpo9K8Yw8M7Xsb9JYsLFm6HM7u7tgdFoYkySh3GzAMvTs0kzuaJqxfvkDW2QNn7wDUckjD1mPAF+NfLtZHZfem1Yg36RFzZB9qN++Kvp2bY82Sudi0U4Z5NTji9kHDC+/opcWfwV9//o3TcWlo2qoVdmxYgu73v4C+IZ5YsXE3Bg0eiKiD27A/KgOmxJNId2mEh+RplLs2LsPytdsglz7odPsA9OnaSgv2LaZsLJ8/C1v3H5OWN64YOGQYcmP2YMqvf8GlZggefmgEmtd1xIzps3AuJQ2efoEYOvRO1K2ZN6a2ggtbsxg///grLK51cM8jD2GglH18fxjmLlqFtGwTQlp2wl1D+skQrdfhuF32SHGBW1mg+L3uW3lPWPfrIqBzDoBtsGSe5all12WS8bVtavWArX+v61IcC6EABShQVQRs/W/Xzo+Xfg7BVeytnG9tGz50RUG2KjUuYj9mL1qLlp17olPrRpj2wxdYvUfG95Ycy9r50/D9tAUIat4W/q4mTPliMhIk4N6+5E98/t3vqNukDUL8XbBizUZIL5YS2ezje7dh/MfjEWt0QFCdWlg0fTJ+nr0e7bv3RvMgb3zz6QcyEtNZaekiozG9/768TkD327ohPnwvDsrQqgZ5Am+WDMu6dNlK5EhdEyIP4YsJ47DnlATjIfWwdflfmPD9DIS27SqPbG+E37+bgAUb9suSFvwhr/83fwNaduiKIF+99sh3izyVUj350VMedOMu3Xl+mvw5IrIcMeD/2bsK+Cqr//3c2F0XjAXN6E7pbhAQQRED/z/sADsQBDEoxVYUFQwQJaQE6e7u2liyMRiw3u34P+e929jGhhsM2PB8P5+73fvGied93/M+53u+0bc3NMyyuXmnOPeqBJSvAG8PsbJaHn4+Pog9sQPjx0+Dxr8aOtzTDJvmz8b0mVzZLTmbmauVy293FQKFrPXfVX2UnSkmAi51R9IOcDfsF7ZxwL2JoP12pmz3qAhdc2p+CloaLWa75OESAYmAROCuQoB212J8NDGZl0PE1RaOjjcqzOyrDukMl3pPFLmEoNCmGD40HdEJiQisVBX31K+OC5eEM3xV+qsE4YWnX0OHhpVgbhWKA0cm0RQvGf+QWPcY9jz+b1gvpR5/tR7ztiUpNtr5dbs9hjyKN599GLaMi/hk5XYMeXoM2tOnBqpGuBB1lv4r21HNXhFhiWZ89M14hAa4oVePtjgXHw2LhT5BNJ/R0RFdCC0L0bTDAEwYO5qacwPe/HIV2vQbjh4dW7FuFQyJkVi9YhW6NPTFup2n8PK46Wx7RZ7ZG/cbjEzH7obtG5YjtEN3NKxTB4v1BljUJrh6lMf/XngDHkwRn1tqNbkHDaoGw1KLRL5xKGZNmcGwr0OYGZiKKErdSj54Y8pcxA4bSDJfdkwAc/dRfr89CEiifXtwLlO1qHQ+0LX9GKbNI53p2G+EbJNkw8UTujZTrpsNskwBIxsrEZAISARKGAGRLVfXZipMO0YzYRgTzdwI2SbJVtG5UozbYvwuqhzduRqfzPgD3fsNgJ4mHodPx6B6D0ELSF2ZT8EtK/GXlQ7lIieBSLBj4b7adUJzqvBk5CQ1SM7ziVD0+pZzmmIYMzO4SGrB5lWLsW8Ny6Ejp9VqRkigC8m7niYqFZmPIFupoyX55XcRPSWXCKLt7VXOaZ5i1jNBmB0nd63D5GM72CIWyVXY4MAaSE9LgZYa6BrVg3POFiSb4CqRqkQUKSHPjHoDf86bh28/ncxoUC545JnR6N++sbIv+49NRKqyMr8EJSPZiNqd6mTvQki1mijHrhhl1rEcTOSXghGQRLtgXP7zW4XXumuXWTDveZvOkUKzzdl+UWy2xeBoMzAMYKhCsjUhN+cw9J+/EBIAiYBE4K5HQJjWCT8W894xdI6M5HjrrpDRf+24iBAlzPOCOykkW4ka9a8nXT3g5ImDqNGmH555/BFlYxKdt81mJ7EUZFtEgsoWhczyPeBBwn1w/xH0bVlT2XWZuQBsjvy6bOdZ2XkEdB5ejMzkina9huLhXi2VnRmpJMRMg54cvgvpSVEIi0lGk2r+sBszkZ6SQS5+bZkiRKsiWnf4urigatPueOOJe5VNhow02KkU0hjPAynJOHQkDBXb1+M+K85fSEZIkD/dhRxQZ01ktG5+ePntCdxvwaLZX2DJ0qXoRaKde01BtD87pGtAkB/2H9iLRwa2UdLLnzl6AFccGvh4XQ3pqjRE/pEI5ENAEu18gMifVxFQe1cj2f4JllM/wBY+jynUE5wmIIJwK4Ng1kAowlMpH2qxtV7QVn8I2sYvQe1d42ph8ptEQCIgEZAIFIqAJqQjXLvPhfXYV7DGriQ/pHZbZOkV0UfERxHSXUF+BcEWeQ08QuhT8zBc6j/LQ515BAqtoIAddeo0wrIfl+GPpeXgbk7Czv0nMbDtA8qRZpOJCbeyiDbHd5PRBJvGA/cP6o9xn/yEKYYLCHC1YOO6NfCo1vMaG20RWtXC3ARCXLwD8dCwfvj2h0+QHNMPfi4WbNtzFE++9i5a1WuFdvUrYfK4d9C3dwfEnj6Co2Fx6M4uO0S9JqcG2sZoL2ZLVnsY/nX48Afx4Re/4OPMeNSo4I4dW3eg3+Oj0adtAzxwX1f8+PmHiDnZG4aE0zib7o3PJr2Fcl7eWL1wLuxXYnB2P22/faqjZf0aOHAwHNUadhWm6XkkoIIXlm2cT1KfgW5DhmPr+Il49wMD6jJnw+rVm9Bt2NOoVC5bE5/nVPlDIpCDgIw6kgOF/HI9BOzp0QwrtRS285sYceocHGbGcRUphGljCA7wKvdAaALbMqb2/VBXcGosrlee3Ff2EJBRR8reNZMtLnkESjLqSGGts18+CGvkYmf4P2G7LUxKGO1DyfhI0xDFab1iN2jEeOtdvbBiirDdjgPbN+FIWDQqhFRDkI87ylevjZqVymHvzr2o0bA5Kvi6w8osurtIjJu2aQcfdy3O0NFxJ7Xabn4haFKnElKNWrS7p3Eesh1x4hCMTJrTsFbVnHacObwHuw4eh43vjcYt2qAlw6ZqmH/AZkjDhvVraSuegnpNmsPFoUelWk0Q5GbBgWMRaN2+DZJiziAmRYV7ml4134g7exybd+wDg4CgVoPmaM826LSCLjtwZM9WHDx+FmpXb3Tp0QPVQ8ojMTYcq9dvQWDNZmhVNwhbtmxDcpoegZVD0b17F3i55qXaqYnR+Gf1RrhXqIFB/bohJSEKG2ijnmawojadRDu1bpKnzzkdlV8kArkQkEQ7FxjyaxEQoCbFzhCAYPg/B5csRRIFuPorA7+Ky3lS7l4EJNG+e6+t7FnREbgdRDu7NQ6rgYoNjremFGp36VyuoZmCWwCT0VSmkiMvKcw+R/6XCEgEShcCZElSJALFQICDu9qrGiA+UiQCEgGJgETgliEglBcqX0bpkCIRkAiUWQSyDb/KbAdkwyUCEgGJgERAIiARkAhIBCQCpREBSbRL41WRbZIISAQkAhIBiYBEQCIgESjzCEiiXeYvoeyAREAiIBGQCEgEJAISAYlAaURAEu3SeFVkmyQCEgGJgERAIiARkAhIBMo8ApJol/lLKDsgEfgPIKDEDs5KVnEj3VUSb2TF4P3X83mcXcQp5idXwo5/Pa0kD1Di0hfUXm67U20qqH+inQpON3FtCir337aJeqVIBCQCEoEygIAk2mXgIskmSgT+0wgIYikSd7iItMxFJFg8zsGEGTmkVGQ2LSR7XR5smRYarELlU4Gf8kp9DibKuK0i+iiiTegYyi0/qRYh3dS3OKwbibPDbCQO/4K1xeRsp18gVG4exJu/87f3lgCnYtx+phkv6r1wS9ogC5UISAQkAkVDQBLtouEkj5IISATuBAIiA557BXi9+St8P/gTbh06kQSS0F1PSMBUnoFwadyeoShFtjxPeL42C54PP8l01bnId/4ySKjVoW2Vuvy/WAf/L1bBZ+x3cG1yT17SKchksQjlvx3P/TnCtNdWFdz/9xnc+9/vJK9iH+sT/XZp8wi8Rk1kkoxcJPh67VHamV1+Ie3Ifb6NsZpDmsH71a+hrVyReBH/bMkpS5SnhkuHEfCdvBR+n66C77Sl8Bz2JBMYZteVfVLW/9x15N5V2HZxTJ59WW1nNkQw46z3hD/gElqDWPG3FImAREAiUIoRuGuJdmZ6CvSGvC9kG7VVKcnJsCkvjJK9KnaWfflSIhITE3H58mXlI75f4neLreCXjyEzHZkGvvilSATuMAILFy7ErFmzsH//fqSnp9/h1uSq3mKBtlF/uLVuDZfajeHW5xEqtzlsiUdK0bzyGc/WvNqsJKN8nkwGqKt3ht+HJGN1a8FhtENbi9nmatcmcaV2WuNCgsbjss8T1bEs+FSF12szWFcrWE9shuXsWeha9oHX02OosWXKgezy1SL9AIlvlsZc1KmUK8qhiO9KO8Q4YzVR8apinVpuz26r81yhNXZYBFHMNQyT6KqrtIF7t67MxHqK+1Q8hm0VdfJYlXcIdPWaiGpYEbX2or9Ke3hc9gSE9SptElppoQFnGm2xz2EjOVfawXOU88V2HiMST1NL7tRi26gt9oamUi2oXN15jsBUtJNtF/UIzCxGqMo1gtdTb8MetRMZ34yB6cgxuD/yHlw7dlPqclbAv0pbstqh1MFyxLVT2p5Vpiqr7VnDpOivwyTaJXDJartI5S3aTuLvSImFLUMFjyFPEJ1cEwEeLUUiIBEoGQQcVHKkpiRz2Mk1qWfRJkMGUm/RO8JkyFQ4VGLiJXKoK+RUl/j7IpJS0pRh49qeOZCWmgpzvjZee9yd3SLeGLdE7OkxsCcdhyMjmgMvX9wcpNUewVD51Yfarw5flt63pN7sQv/6YSqSgtvjlUcHZW9CSuwxfPjFHIyd+gkCPbgUXYKSnhiBSVO+gpHvcb0+HaQH8PFwZXbycnjz3Ymo6sdl4Hyy8a/ZiFU3wvOP9ci3R/6UCNxeBDp37oxDhw5hx44dWLZsGcqVK4e6deuiSZMmCA4OhlarhUZDQnabxaH2gGu3wRzd02C9kgFtnfbUZIbCfOoMNHW6wYNaX+Oyz2GJiYG29cNwb3sPTLt3wK3fo0pL3Qa+QlI9Bw5DOglkEDxfmEHCXQe2mIMwzP8CtivJHJsEcbdB7R8Kl0rlYTu5DulfvgJbGjXITXty6EpiNlSSd58QuA96EbpmrZmt7zJM/8yAOSIVno88A9uJNTBs+IfEVg1dz+fhWrcq9HMnQ1W1LzwGP8ayfVjuFugXfcdyLSSlY6G2JUNVvh6QfBiZf35PMww3ttUO185DgCunYGYKazFOut43Cm5tSWCTY2BLJyHmREKZGOh84f7Ay3Bt1V7Bx7jxV5g2rWQyqUB4DHoWDr4Mde04tqTHwbh6EVw6PwJtpUBYdsyDfvkfgI5l93oGbh370kyFc4LDq6Ff/BPsifGwHN0BW0IMNPW7wrXZPXzJeUIn6kmOZr+mwBJ3AqkThsN+7qjSHvP+3XBt04vlV3W2TaAvTDto8uPan3V07geV1gHzjgUwrllAuN3gNvR1uLbtCpXNAPPWP2BYt5jmQT5wf/AtICMNujY9AfMVGFf+Dm2bobzu1WDZvxj6P76Had1CuL30PDRB05mmPJUkPNdk5Tbfo7I6icCtQMBh4wQ3NQL25BMcb+L5zHCCq/WAyqsyx5NGHI9COXaVLI/J3Q9HZhKmTngbPZ8ajx5NauTsOrB2PtaeNmLi2y/mbCupLyf3rcO3v66Ai4sGqWlpcHH3gqvKgapN2+Gt0U+Cw1Re4djx/fSp6DhsNNo3rph3Xyn6VcJE2wFb3AZYwn6D/cohDpJpygtMGXBFp4VGRK3jjVIV2qoD+NJ8VHn53Qo8zEYT0vV8IeUSBzU7+gxqdrJsNa1mAy+mHp4+vnDT5YKCL92kpGToqNnxIlnOFqG1Tk5Jh7uXDzzc8t7g3oG1MOH9SUxJrsL82dNx3qMBXhl+r6JR8ifJNgrttckKP39/aKjgEmKhNoqvGOcP8ZdaNQvb6EJSI8TAl43ebCPpYYpzZYtQKNnJC9RcATciNUMPH79y0N6Cd0wqZ4knTpyAVS7NZiF/9/wTpDm/CBJdoUIF+PP+TOaqT3h4OFasWIHZs2ejUqVKqNu4Cbqcj0RFahVvmw6RZh7qKu1J9BrBdnoFMtccge+b79J8pB/Mx46QpNaCW4+hsO6bR+1zODTVWvP3A7CFhzGbnq/SRXW5IE7s/RWtsLZ2RxKyQySNJHk9HgOSwpE+ZzY1t7T9JkG2p8XBeikTLg16we+zNbCcOQDznn9g3n+U5/nBc/RMuLWoC9OutVBVqAfvN34iIX8Dmtqd4da0jrLdrg4m8X4Vav1BGGv2hs9bn8Bx8RgsERHQdX8a2iqVkDL5PRLggdBVqcBxMg6mNXucl0MQU60fdPVbwhq2BvaUTLg+9j68Hn0Yxr84KTB6kLT/D44rRzikauFG8xLPLveQeH4GBDSE1wtfUTFtgWH3MbgNoBlH0gnoVyyF2/0vwmdMFxhWzuKYY4LHY+Ng3r0adq8W8Bg4jBOGH2mIUg5e/3uTL/Zz0O+6RHwehHnDd3AEVofn8NEw710B0+o/OUF4kyY4yUid+gZs545DU7UtTXRawqUhzXQcl2Dau419cL4OxaTB7YGx8Bo+HMYl37D97nAf+AKsx/ZA3fZZeA3uz8nO53C4VYHHk9O4agBkrloH196PQ2ONh37JPLj2e0ox3zGu/gWWU5nweOgdWPas5rXZw+HyLa5YNIQ1YSsV99e8gvPf4iX6W0PtfFhkFM7HxijjcYkWLgsrUwiId75QSgQGBpZIux2WdFgjFnFF6y/YU8O5kpY1sVZ0umQCgkeRcKv960MbOgzaGlREaPjw3ALRZ2TAaKb2MJdYuWJnMFzdpvAUkw3+5CnqbKLC4y1UCKSl6+HtXw66bNLD7UZ9BjK4ku/L7WJxMrc0bN0b0xp25uQ7DRMmTkTXh0ehR8OqdM/xUEh2GjXsdpUWfr5XFbUGgxEWy9W3ko0mgA6u5GmzJt+pyUlwcHzw8xFmhEIcysKcmo01ZKTDSIsDf18f565b9PfaN+4NViQ02JaDH8IWv5FskBdBzLSU2VZeQio66UiLpMbkU1ijqGVpOAra2o/cYK2FnyZufjU/+UVFcLVaDSIOb8M3P/4BG4mDWL0d8PATuLdTMyRGH8NX385CitEGcUN1pTZqeN+OOB92AF989wsMJOlWsxXd7n0UD97bIYcAq7UuvNHKKdV5uOvgTdtQf38//rZh1YLZWLxmB58PDVy9g/D8S6NQv2qQQsrp1qOccyXqOKZ+8h06PPIcBneoi7//mI0VW49Ap6W9ZkBVjBr1IqoGeGPl7z/heHwyMpIu4cKly/ALro23x76OQO+SfdBOnjyJmTNnokWLFvkhlL/LOAK23Ha3ufoiyHa21lqv19M8l0uHnHCJ7ylGM+qoE1CFx1wd0nKdfAu+KtrddoPE3ByZG5fAvPMILIkvQ9eR2+bPoArWOUl1KCYgfI6E/TXFFrMBpllXUG7yZzDMGQvDzjDoHnyHBHwjUsc8DpRvAv8ZK6GuUIVHZ9kriJdXcgTSp71IIvkCx6WmcOtem5/h1Lb+isz1u+B6TzNYDiyHYc2fNJ2oBc3zH8KtXTsYVs+D7mlquhuQ9KEZtOV0yFy0ELoOQ6F2MyFjxe+wxsVzcPeGR89BJId/UAtspjZ4H1LGP0mCn6FosxWFhAdfoOXLwXroDOARBLdOA2Be+w0yfiZh5wvB4eAkvxtXBAMbwaNTV+hnv4DMv5coL1qVdyW49XoUxkPj4NBfQeaMt2Gkdl/FVQB4pyBz5nioavWldrwr6wiA5eRO6Jf+Rq1wdaiunIP5TDQ0wSGE5KLT/IPQiHHUev4E0j95iZr4VGrom8GtZgDrI95WNTQ1u8C970CoA0LgSDgE2+VLnLPw7UllhcpLtGcozH9/zPZ/TQ26G0wbfyLiAfDvNQjGeWOR8edvrIMmIW4V4NHrMRi2bqWChvfc7HehX7cCCG4IdYYvMr57BwhqQ9OUAWx7eTgizxO3TE6igoX2Qbnut+8P3y3sY0xMLI4c2E/tW/533O1riazpziNw6tQp9O7dG0OGDLnpxtjOb4Ll8MeKNYCY/GcrJ3NblymV2Dl+XNoPMz/WiAVwaTEWmgqtbrr+/AWIZ1mMAblF/FaJtvFJXrPwFyxdt4dE2IVjnR+eGf0yGlQJwMHNyzBrwRrlfWLnSt3jz76M1vUqY8eq+Zi7fAtcXPnMq90x8pnRaMHt2aIjoS7PD2xauFL5WY6KH0HgzdSufzN1Mg6fPU/GZEe1hm3w4rP/g7+7aAs/WQz/wJrFmL1iN158ZxxCPQ2YOWMGTsdx5dBmQq1W3fHc/x6Ch1qPr6dwJYza8nNRUUhOTUPzzgPw/JPDoMvb1exm3fT/EiHatou7qSGhNiQ90jmz0lzVAl/bQvZE0WwT6Mzz1JSM5YBJW8jmY7j9dmgleFEcZvz16xxUbD4AL43og8jj+3Gedpw2QzI+/eQThLR+AOOG98HFswfxwbTvULN6NRxfOZ9a+FaY/uJwxIcfx6kEOg1d2zlli0PYJfIj5DAJwsz56/HSmHFoXqM8Fsz6ClOnfIEZX01SJgIuLq5IPR+OcWM/QiUuGfdr1wh7183Dn+uPYdx7E1GzghvmffcJvpjxG6aPfxFplxNwIiwd74x7GeU0aRg79gNsOxyFoZ3qK/WV1B+hyW5Nu9gXXyz55aGSaqMsp2QRuER7OLGKIT4GgwF16tTBoEGDUK9ePVSpWhW2+Z8hY/4+p71yyVZ9bWkKUasC1w69lH0u7R+Cd8P+1Ng6qMmuq5gzmDOytCrCvlpog7MnENQ2qrLNXATpU14MtAPOuEzTDD6XZmpFOJHO5tg5lfM8e8IBpH04DOpylaGt1w4eD74GXacHYElIVarQ1GxPZ8TWfPb5jCfHCT5Jc4Z/YHv4OWqBR8CmqsVxjVrqXbvg0eRpFu0C96Evc1wkGaO9tu1CLNvDcY4vBnv6BWqsaPaQpQEW9swqTsZVnKhT9cztWv5WwxpznOe78mVCm2yapSnH8SXhoKbLFnua18OTfTfBEhkGtxqNeA6HdTbMYTLlaOsdZj3LYxvE2EtiKoi+S7sR8H7qdZjWcwUypDFcqgeTbF/VVDlx4SjHlT9h5+3U/BM/gbXoON/+lu3fIGXXd4zQEgTvj/6C532PIX3WFwrmXBJkW0jUI48oEWNUJKT2y/FQVazCc6nIiD5JKHiMw0KywInFPTVpacI2snxhoy32CbMeh6ifChEFQ0GqxdBq57K6cNzU8XguLd9ecVA5Y0Gvbl2Uz+2tW9ZW2hBYunQpNar5n5vit9JyejZJ9jQ+GuJ+vx6HEmULHuXkS/ZL+2gyNpKmXe9Rw/1A8Su+gTNU1BYb0i5g3p+r8NiYSejcpDJ2bVynjBMXz+7DZz/Mx+OvvIsuTWti1z9z8O2XX6Hq+69g3sIl6Pl/YzGgXV0c2L4JtsImyWKM4mMtVvD5F3/+8AX2nbPg3QkfwNOWgo8nfYjvfvXDO88PIRIquLnpcGLL35g8Yz5GvD4W9UO88ePHkxBtqoiPpoyBSn8R0z78APODqmHkwOY4xxVQj/pd8RbLSzi2FZN+XI6BgwchNKBkFZbZ0N400bZfOQrTthdoI3iZNwcHxuKIGPQ5alpP0j6Rg6uu5XvOAbo4ZRRyrCC6Ymkgr/DKiZcENSh1GoRiwZZl+NZwAe06tEe3Do1w6dRunEvIREt/V+zYuo3vJS1nTGpsP3gKzWs3wKo/NuArpKN12w7o1b1t3qIL+bX7wAG06jkE3e9pqBwx8qlnsOfVsYi6nAEdXxIJEYcwcdMPCGw3AGOfHybcknBg2x4EVaqCRDpDxYfb4RdSDZHL9+CKSbRdhZ5D7kPDmuJlZUfNysEwUdt4K0SajdwKVEtnmXPnzlUIdo0aNZRVDEGyy1NzmFsyCxsUcx9UUt9JNLUtesKlagDJZRo0oS2UpUAHCaUQ1y73wbL2mPJd0cK60YSKkwEnC+M/PidCVB40u3KlhkSM2kILI7Yr2hhl99U/JG3qqu3g88Y0mLfPgXH937Cc3g9bSipcVH408SAh5uNnj9mPtG8+4tKkG03fmtOkZSNtmmlHvGcHPLvfB63DBZaNMxRCbcu8wvJDadM8Eaajh2lm0YSvhFRYT52FuyC9wlFRTASyhW1zcLXMnkGS6UnyLJwQaQLn0rgrsHINiaUa6kBqnNkFRzrHW7bBpWkXmI79QG1xebg2b0fyfpZliPFA9NOJgVJ87u/ODdA06MT+bEf612/CbqXtZyC1xwVpZxXMcpXFyB+qgHrw6EeTkBXfwnYpmaM4+8MlZrUPl3S5jK0OrEQFSjrsehL6Fr2ALTvZfhe41GtNu/gMLnryjObdYdxHUx417TBbdKQd/SX211iEtvNaan1IsmnTLo4vSthGpc/yj0Sg5BEoCZJtDZvD1bL3+cyKMaGYCkdByq3pNHN7W3n2tNUGlFAn+Zzxyc7PoxxiIszxVOfmhVrVfbHgl+8R27Y1OnTqhHrVKmDDnHkcmmhGok/E1q3UQDNqlOHSOoQlZKB2japYMe9HXI5og/YdOqJxXTFmFy6K5tyWgb2nYvDYMxNRuyrHP4TgmccfwCcLd8Bgvo8rSirsXD0fe7asx8OvfYjBnZsQjos4ejgCdXu1wJF9u4ipBhVDArFr1178bwBX5WguPPSRBxFSwRd+zZuhnPsaOlQK5cGtkZsi2g4jHYKoyQb/44Zt5DiAM2as9czPXAasy+gAD5dITzVcykhL4cwwlyTT1CIj08xZlAqDn34L1Rttxfbd+zBz+vvY1vUhPNqR5JU3UML580gRYar4Qm7SsQeq16qMLrQdCqxcF9t27Mav1DCv2t4V77/+DFxzvSdzVZXz1c6b0t3z6gRE66qDi46aM760ddTO7du1DhV5sVVsm8HsgJdYu+DOTHr2Rp6NZsQSO5dZ3PDgkHuhE1oqlmwXGjxFGBGAx+Zf2snaKf9JBIqMwMCBAzFsGJfOdMUc5ItcQ3EOpLZY4wnXng8JuojMX9+GYfsuzo/pCKjzZ5i/pQxzNxjaPWFUbDpo3/s1XO8nGac5hCIkhvaMK8qz4vHUZyTEyxVCq3LJ6hv3q7h0qWhPs5sliDh9Mui9DI/h4+B+/6t8/qlF5rNq3j2fGqO5UFdrDs97B8BvUn0SUy20QRWQ9tEQkmquzG1aDI8etC1UWWHc9DfLccC0fCZDAzZSQuW5x0RCXZlOmCf+RuqHE1kuNbmWfForQWhpv2i/eJGkvDGVFz/D8M/P8HnxLfhOCGZf6VjYmuENLx+mnfYp2jD/Dq+HJ7DcloBvKHS1g5D+8dsKIVe5ObXB4kUJLfuh9F2MadSYM5qIqMp2ZjvUfV6F17MfckzxIdltAMtqmqFw3BPHKAdRkywIbY4I7TsVECoXX+i6jYBb13vptHkCmhpNaDLjivRvl0Db7HH4vv0W0t8bSPvxr+Dz8jj4eleH3aBjHY2RNv4B6Bf8AJ9nXqWte30OhMHQNaqLzK+fg53KhDxt53tF0VqLfmS3S4x5gcHQeLvDmBjLd49QT0iRCJRNBGwXdsJ8aLJyf4t7/IaEykMu18Gyj+MBnzU1owLdtHBlzM72pNMpPLckxCfSrNaXlM8bY2met2ndWuw9cAgTli/CyFffp2kGV7qoKImJjOFxNi5EaTDg/sGoGFABnbhyv2X9Guw7QGuB8ctx3xOv4LG+7XMXX8B3kiWaqrl7XH03uXmIMUysK3KssqZg/dZo+PLddSnhknK+mAwILnf5yiVEWrnyx62+VRvi3qBQjo+0FaZYuSolxJblhybeNbdKbopoW07R3i6JWiUa5hcqtCVStEnKAeyKWEJVXp+5zxBdVNFu+wtoKnalFkrMWm5OGjVpgYVfLsb6Di3RuWVdpF86h1/+WAC/0KYQAUC2b9lEO5+2GNWuK/au+hXfLD4Mj6Ft4ePtggpV6+OR/kJjbcfhg8fQoFl9HNqxCd7Vm+DZ0e3QeedyvD9rFcTKtWu+d6Wz1cJ0xPmtUa1a+GrR3wjv0Q61uJyxZtkipJi9UbmcJ84xREnrnsPx5sheePetN7ncMhfvjhqB0Ia1sXt7AgYOfxQVvFxwOS4Sly3u8HV34eo4b6Bc4jRTybVBfpUI3AACvlnOgzdw6i05RcXB2bL9F9gOkLDu2ELPYAMVlxxYuWyYOeMVxngOpsPgVqRNT+FKWEcghYN65Fm+YHxpU3yBfiBx1NR+wAgj9WA9ugWOw7tJXBOd448xFZnfj4HjEp0mhWZZCAmk/fQapL5zBrp2fakdr80R2ARrOM3i9qzldzou//ImtdG0L2wg4mrroT+8HuaTLIM2hbawzUj/4m2OYmmKY6bQottj2b7xj0DXeSDtJ4Ng37mUduYrONQZoZ8znlFHqPHO82LlOOigZor+I95DukMTWF5xSExNjSfB7kbTlzikTaFNM+0Sqd6Hcekk+sQcpRkNX1Sp+5H6+1t0EqQ5hqc/Mn96j9E4EhWSbF71PWw6Kh1cPGnuchYZM9+m0ycjqUTMQpo9lVFU2kF1OQwZjLTiuHyaWBPj2e9TO05tcdgOZM49R+z5QiNGlm3zYD9Ex9HzB2jvPoRRQ/pAU6UGHRSXIXPXMtYvHCS9GL3kB1jpUG47NZuhwM7BtV1Pnu9A+vRvYaEDoSP6G6Qm0WSwVRdafpxA2pIPSNgPk+B70z57Ik1iYhXCbdk0B/aDJNIavmPY/8wfxxDfKJq9jOJEJYH1neLc4aZeY87rL/9KBO4EAowkYjkynaZiGbzH85MJkgjhd6JouZ1EWok2pPAn7hMWAWJftghfB0MiedTnXPH7Ie++7GOK8V/t5oOGoVWw5Lef0Sz0LYSG+CPixF4s2XwAPUdwDDEmY+P2I+hy71D0HDAUMz54BQcPhePRTg1g/3sf7unWD01qBMLM1beT0UkIDXTFpg1b0Lr7QHTtMxBzv56II8eOF0q0ndxGkGwv1KYyctH8xWjyDk307BlYsGApAkJawJ3elGabDk+MnoCWFTLwyvjpdN4vj0EdG6JiNfqhUDHz1DOPKb0OO34UflXrUENP+/ZsgpaFh6jrVsoNj1D29CjYIv4kCLm0HXlayoYLzUNAD760+isvI/v51bCeW52LeOc6gTeNCGFjOfOr0147164b+dqy630YfvYcvv/kPSyrVBmptG12K18brz/3OD1d7Yg4ugc//vwnL0ogEi8koOfAEfAvXxmjnv8fvpzxDfZuWAyVOZOe+RXxbq06iI84ivk/zkGVSiG4Qo13hx73w+/qBCtPE9Xsi0tWKJD2Ax7Cscg4vD/2TQT6e+BicgYdBl7nUgW12jQUCQ6uBN/yFWmj/QbGjJ2Ev+o1xv1D/o8e7VPw5ugXEBxUHpcSL6PXsKdQr0YITRV5yXKZxGhJFFzyu+7maY38IREoawiQSNKh2rTlD44VfF8IjWoWmRK81HpsLW0Z6WxH/wbEcdVn/1IelzUB5YCpHM8iTBt+4odfhAibYqHNFZpd2vya1s1VXlR5tNokko7UWJpD0NEymwCzXKUeUT9tic3b/qRpyQJ+Fw2jZlyUJ44lQTZt/J0VCW151pjIZ9OeSHv3+VRGCBWyKEsoGqiBNW9fyGPZnnwrCMK+2ryT0QaGjVC01/q1jLDB/ln2L8uqU/SFxTFrpEplh2X3Qn4WOfdRk6S0x5TBfs934sA+2U5shJXmFUo/Mi/AuIHOnAJTNttM4mzeLnBmoRyRhAO7sL80blrIY6jVzjwN07kTSn3iGthObYcIWSvOdySehmHxCZ4j+s++Cdt4asKFnbv+zz0k1mJFgMqB42uQeXStgIYi2iHqoMkgHUstB6j9F3WLtrOtDE3C1YMFzrbyfBuJvrM+XmtjEtvO6+YeDK/+jIqyYy5syWlKW0TJpUnO8x0hnIhrUdEiRSJQGALWmJWKU+O1JJsPmUMHTehIknByLfImlXdT2mA/TH+IYI5TxxlMYj4n3xf57OQi2+KZoUOl7cIOaEI6F1ZtEbdrMfzJF5Aw/VOMe+s1VAwqh/Nx59Gg42AMH9AWVvrYbV25AH8tXoLyvjpcTLLg6QeaoXqDSnik73F88u4bqFSlIlKoVa7Zug/q1qiAfdtW4o8lyxHo54GECyl4mD5vhYkSUlbhOlo8+uyLmDJtOl5/lT4zDj3sHoF464nhHMKstLTxQnBgBSpOm+C1JwbjmxlfoWa1z/D086MwbdqXeH7Ufvi4qXAl04FRb7zDwBGeSrjaqzRKpTg05zeRKaxdN7JdRSYvRthii+X417AcmkrNCgfjgoTaIHXlJ+Da6X1qUfZzKTeDmo7O1Hw8Q8cXDroFmZrQJELlXYVJKZZxwPYvqNRib7sYH4tLSYzHSK1T9erV4ZpDSh2I53JuEsP7+ZQPQrWKgTllZyRfRkx8Ai+gB0Jr1Mg5JyEuRinLx788qvMGKkwy0lJgZ/98PKmFUcRO79ZIpNJeMYhxZiv4eSlb9em016RjlI+XE8O0pMsw0tYxkFo5QQxiIqN4jhEBQRVRMdAZ0SQjNYWaKTeGHRQvcwdSkpKg82QkAtcszZyzwpv+u23bNhw8eBAvv0xHLikSASKQ+dsU6Bd+zUkz7Yel3DIERBIb10EMG2g4ydjSJKJiQiHFiYAwm/OuCs//vQrjgo9IKJL4LiHRv43iMGYyC+ZL8BgxJqfWDL7foqOjcezYMZw9e1ZJ+tSOEWnuv//+nGPkl7sTAZHsS8iDDz5YvA7yHW/cOIIT0228h3M/46Rk5NnaRu9D1/Qx2KJnM5zpOrj1nEXSfZ4+EaehDuZKkO0cJ9SP0iQrlfPXXM8AJ6uaGkPpSP5l8dpT2NFUekSTi6QzJJ+3n+A+Vy0ObFRaREVFw0An8xBym4AsbiOKEtwrMSkFnr4BqFG1ojLPdlBDHxkRBb3JgkA6RQeVJ9cpSDhxT2JYPg9vP7jRVE2I1ZTJumJhoea+eo2a8NCJCT45EEP+uZEDOUM0O5B48QLcmL/Ex9MVFibAiYxmRDwqGqpUrQFfL/Imli1C2Hr6MJQqVwbt9M9J5oTdl1HjtFfZd0GtuuFtN0a0xQ0iLvDFnZxNUQtxjfAuUVeAa981UKWvoXbkJfJGOvIEdaCaicuQetrR5L4xcp/PgdS1x1yGmeKxUu4YApJo3zHoS23FkmjfrksjXrQcQ4UWvLBx8nY1pTTWwxeliIKirOzdCXyMeuiGPI+Mvk/h9KmTOHr0KETEHk86sIoIPQ0bNkQNKmhKh79DabyAd1ebbpRo2zPOwbhqAMlzet7nXBDlmq9Cd89o7qOZw4X5tOEmJ6reF7bIOUroTpTvxrCa82Dd/xws4SvzEnXyM5VHRSbtWkmFpQgxLOVOI+CcKhSzFQ4Tvcx5k4il2AJFeKXTsVHt4QnLcUbvaPgOL7gPb5g1sCVd4AB5He0rl2dFJiRJtAtEtlRt/OKLLxAXF6csw5SqhsnGlDgCFppD9bp0EO1psmAu8dJlgXkRIMHOvRycd6f8Jch1Ia+e2wGOKx1zNm/ZgpkrjyIt8YKy7CxMRNzc3JTIPYcPH84J93aDC8a3oxuyjiIiIKJvValSpcRXdx0Ma6zYZosJdW7hWGtP2kGzrtPQ1HqTQwFN2jLPMDobjxfciaZnKpJpIQ4rw3YqumLlZ9YfhsQ00Rk8I5q8q1nuHfL7HULgxog2DfcF2S5c20Jtg5amDlzSc2n6Hp1qIvjdj05EI2lbOZaJEubyhsm9VJKr91wKcOgTcm2QX0srAoJk/9///Z+SUbC0tlG2q2QQ4BMNDbP7mVcdoQfwDQ0bJdMQWYpE4A4jYKaWUSTyer3ZABw7fAgiuZfQXnt7e6N58+aoyjCTwrlYxACWIVLv8MUqgeoT6VQ8Z86cEigpbxEiaptwuAYTuuQR4dSYeoD+B1po6ozlMdwrlJrCvISKSIVLtXifTssnaDq1n1wq33gsiDsjbTjorCildCCQ7woVsVFiNsVQMtcVh1G5OazhX8ByQtykdNpr/wvD9z1CT/6FzsQR+Wdy2QUKT1sppR4B4awQHBwsiXapv1Il00A9s51mciKcT/9SMoXLUiQCZQQBQaDL0Z6zW+dOysfExEDh4eEK4RYmd2bGMQ8ICEAnxhUWxFtK2UZAZAEV77oSF9o+K8bYBRUswvXlX/kXEdy0QdC1/xLawCA6i48kmWa0koLMdxWOJsqXUhoQuKG7RyUurIg2YskkmS6gG5x9OTLP0aWdcZ+N9Iq18TgHlzP0nMGpaUgvbiJc5yZgLFspZQMBZ+amstFW2cqbQ0Aug98cfvLsuweB3OOeMCVp1KiR8hE9vHDhAkRa7iQ6qksp+wjkvtYl2hsRFlnhQkUo1U7Nt3crhtP8FGpfTzpR0kny/G5G5/Ep+GTFxKSQQBUFnyG33kIEcrmqFqMWHROsuFUgeXbaCV1zpljmYFgoS/QWxridRhvt0dA2YUzbevfRw3YTM5fRrqgwbTbt79Te1a4pMmcDHWHS0tKYdEYsZhdf9mxajulf/4SEFGrciyAWkwHpmc7EN2amHP1j3iKkGQrpdxHKy32Ig7bsqeyL0hViuWX1ChyJiMt9SJG/GzLTYaAnrxSJgERAIiAifhzuAABAAElEQVQRuHMIiFW+bt26oUePHneuEbLmUo+Amg6LzvDI1+Eyiraaq4jlOsKt958M2cdkWYkHGWuiB7nVh1AHMLEVeUQeEc7CWi86RAbl2Zz7h81qRlo6teE3IrQL//O3mZg1/x8G1yua6MlPjFn8JP70Hvz195ainViEoyzMoJueIWzVGWsj/QqWLVmKiyIHQLGFcf7TGAnOdp3rUewynSfcENFW6Xw4q6pVONEWam7GqrYeeYchIHdAW/tpaGsOZNztn+g9y5Azhc7i2EGGC1SXa1Jod8zJscwoNBlXnNy30OMK2mGjRv2PX3/Bgnm/YcPOowUdcs22rYt/wQ+/r1O22w1p2LJxO4zWG4LtmrKTo4/h/Ymfg3NVipmp17fidGTsNccVZcPPM6Zh3SE6S0iRCEgEJAISAYmARKBUI6DyrU2FJX3ZBDEuUOywX97BcH5MQuVRncrLk7TJ3s448iFM2NWFASPaQu1ZwPksTyT9U3lVK7BUsTF89xp8/MXvhe6/3o64sIOY++sczCOXOh1bFDtwB36c+hG2H4tXik2Kj8S2nfT1KSHZu2IevvmZkVco+pTL2L5xIy6mMJJLMcWhv4gPP/oA8Rklo0jNXb0294/ifNdU7snsXc7OFXie0GpbmaVo32hYXHgzqEiizcyEJpY0CgvJJKKVlG8ElSDxBYiFRHfZshWMVxqJJX8txuD77kWQrxvOHNqFrbsOwkJngTYdu6Nlw9ACzgZO7NmMRGs5jHygMTav/QdD+7QG88YwPmM6du4+hBbtOjAFugaZyRew52gkgst7YfOuAzhvjMSmJlXRtqYv06m7Ivz4Xqw8dghmtTu69b0XdSoHKPXFR57Euk3boTc70KRNJ3RkSmORgGH3nv2MP+mLw3t2I9WsQoee/VAnyA3LVqxGbFQYA76vwqD+PdF94L3wqlJfKUufkoi1a9Yi5mISQqrVQ9/eXeHtpkXYkb3YtvsgTA4NmrTuiE4tG+LorjU4cPwsogz/oDoDwTepVw3xkcexbiOzurG+ZmxLh5bOcgsERm6UCEgEJAISAYmAROC2ISByhagD2zBk3yJFwZi3YiormZDKevQNbqZijxYAxvPOeN38cfVQ4QiZPycJbbk1lbrRf7LggBOJzDS9ct0WRIRn4O/1O9CnRwcmgTFj27rVOBoWA3e/QPTs3QdVgwoKDejA+pWrUKtVL3iZYvHPhm1oNHKQ0p4r56NwJi4F7Vo3V1oYc+YY4qg012acZ7kRuLx6OUICHqLjsBtcdA7s274R+w6dgG9wDfTt3xvlPUWoaAcO796C3QcZec7dG1169SW/CoQ+6Tz2n4mDr4uZfOoIdGxj/0EDmOE2Guu270F0igfW7ayJbi3qoN/gIahegZyTcl5wso3bkGqwolGrDujSpin9Aw3YvWUjjpyJgqunHzr1ZDKdYE/88/dyRETFYNmiRXhw8ACEkP8d2rUBew4y+ou7L7r17otaWVxPKbwYf25YNaup3Btqf5I3xaC/kBoF2RaZ0GypZLNp/M4LXxjJFkXQ0cqFzpKqwrJN8v4yMYELtEx0nJGmZAw7smUJxk76DAatJ1xZz+T33sY/O49f2yB6665ZtR512vTEw48+ivRzx3HwtHOGZdEnY/7cuUjMdJpepFyIwC+/LUQmU6RbLHbYVAxonq5nGmIN9FfC8SvTf7r6+iOGoQs//pSphlnbuZM7MG7CR0ixuyOknDtmffYRFm48yP7a8NfPX+Gjz3+AjemFU+NOYMrkz5GUaYXFKDyOmT1amI/YbNi66m/ekBdp0n4JE8ePweq9p1ExJAi71i7E/LV7kRRzHN/M/Bku/sHwdbXi08kTse1YBBPdGZianZnW6BhhoCNOzMldeGfCJGSoPNgWN8z84iMs2cS2SJEISAQkAhIBiYBEoFQgoK3zGONECJ+0QswVhOmIINMKlyJ/EhxKEOvsT34+JbTZNOvV1hxWaP9UzIZjNFjg0DBxC7mHgxxuDlfEv/n9b/gEBOFi2F68PXYcIi+Ss+UT45Vz2LzvNPo+OAKD+3bF/k1rcTnTqQFOiDiGBUtWKkFSxGkn923GX6t2wmq2MjMtg6Qw03amyQotM8OGHVqPZVsPo3yAL1YvnIXfFq5Xalq/8HtMm/E7fIOqQJOZQOuFCTh1PhWm5Hh8Pmk8flm6GX4B5bB33V/45qe/lHPMJhvsaiuSUzNhzkzC4gVLkGJwIO7ULrwxdgJiU61MEuiKOT99i0NRl7B//V+Y/89WpmivgRRmvZ34wSTEp+ihz9RzPqOCPp0JB9mL1Qt/wPSZ8+AXUoWq8vPkZO/iVHxRNPhKs/L84RW8MVHRTltb/zmmC37l3wvIfzMUdIbIJFnhHmir31fQXmWbi5sPhgwZiK17IzFixEgEe+vx1fxl6D3sRTw7rKtyTAW36Vi6aAG6t20Et1zTiMvRx3EgIglvPNcLfsHl0aFhJaxau5H/RzDvgQrCoSV7nqgSXsaMVVm/VUt0OVQP+zJrYEiv9jAmRkDrGYKX3xyLOhW9EV8/CBO/XkyfTztWLJiPGq37YdSTj0FD7X0wn52ZtBW6t82b0HkE4LmRb6JLs6rQJzTFy29Pg829AoYO6oN9YZl44v8egofawXiZWrjrtDi8ax3iTQH49pMP4MdODOrfH0aHC3zc1Xhy5P84OzMhILA+tdZhiIxPxP/1HYw6mziJ6DMEbZrUxvQJX6NG20F4/omHxFyYbbFj1sLF6NulBViEFImAREAiIBGQCEgE7jACGsF5qlIzG/FnAVrtG2icSHZT7ymofWoWenKFyrUwoEdbJG68iMeH9ENy3DGs3HIKr3/4GVrXC6bydBA+ePVFLF+7Ba+MGJinnP3b18PiUw2dW4XCw+AJv9/+xpb9JzG0S2PyFw211VSsZomI1KLlhKBDr3uxafkytOj7IFrXrYSTW3ahSt32mDCG6dTJR7wMCdh76QKsVHj+tWwjhj87HoM6Nubcoy9MU9/F4lXb8EL3iqhQtSnGjX0HAR4a1Pa14Od1EagU+hh6tG6IzRcCMKxfJ1hoWuziooOOpriL/lrE1O/3YfxrI5QW9b93CNx8/GEr3xcOZpc10yqg3uChiPzmeyRZPfDgsKFYu/c4Hhr5NCq6JGIc2/LQ8+MxsH19Tkb6wDRpDJZyW/0XhmZ3scj/b5hoixq01QfBlrC1kKWPIreBgFIn7FqOxv3jWWi+mJL5irFYOBOj96CZ/0GnykxSyeatGuYc1bxVcyw7/A9MNHvKTbS3b1yLDHjgYvgRbIphbnsfXxzZsRlxIx9CsMZJscVsRkj2fyqZaRjP2RID1jvFQQW9lzONp3KgmrHjGVye2SwzkjMQdX4Pxo89TUdNdslugLurLwxGIyej7vD38VaKsLO9Wi1vRs48nX2xMxwUoGRU5xEqzmyvMAV8aOPGCskWJ7l6ekMsAoUd2ITPvvoB9Zq1gZfGgsOn43Bfd+clFM6hVoEJ9evpJjOiju7Au+8cV9oCm4Hle3A2aYO7sJWRIhGQCEgEJAISAYnAHUfApenrsF05DEdaOLXXwnziBkUoK2mK4tLwuX8twEJO4xAEh5JJDa57UBDq1iLJFqJ2Q7MW9XAgPZ/21qbH2g1b4OFVC3s3MagF9b5e3q7YuHYd7ifRFuwpmzuJYq5+p615Dj8h9aHlgqenv0KyxXEa8iENSbrFkA6L3oSNy//AzhWceFBBa8hIR5C/gTzMDlc3P3i6OvmLhpYS4hwhVqvgaM6+KBv4R6R6T9Yb0KzL1fCaIsW6CKe4/O/5mL/+INq1aYXUxHhcTjcx9Trj4AluybYJbmmypMFks2LDkjnYsVxoJ9UwphloTpKprD1kK2Wz6/u3/zdFtIW9te6eD2AyXGA0ke1ZJLmYTRAkmzeXrrXwoL0KSmENF0CIRRYXLj9QVQx3ktyTx86idSijoFBOHj3O6+ORcxHFNgtNMTZuPYjy5QKwdeMasYkXkZTXdBEbdxzGiO7UNOvNJMVOpwSL2cSlDme8YLv4z8Q7yiniD3+Lm8b51flfzSxubp5uqFazHcY8O4wabdZJT1irXQVvF2a6ZNzVnBBBPD9blL7wWE7AKE7cHCT7/pwExG44jQxC48UrZGVZFs6+Du7fhpDmfTD29f8pRdjS3uTN4bzBRFlqYaZDWxRPrQahDTvg7ececLbFxLYwvKK3myTZCnDyj0RAIiARkAhIBEoBAirPinBt9ylMW59iCOREp1lIcdtFTbbKOxS6ttOZDdJpn3y9IoSykkv5yiFeXj5crU9EVOwVNAstz21mcqpw+DSum6eI2JP7cTzyCirVDsKq1aud+2hHHXtiH04npEPnokZqKk17s8RI3uFQVISkt+QnGperdNNBTpQtTk7noI7Vg3kMdegy4GEMaOf0KTPqM5Xt6dH7qZu0C/qliDgnW/JwNGeXyNlcaF6rw8nD1LZ3aqQcqs/MoMbdga30mbvvyTcxrDMVtMZEjHr1XWcUO5YpWJ+LVgc3KlRdmX62+6DH0K+tEwfRFo2rexZTy669aP+v9rxox19zlDAhce30Pcz7J8AWtYR8kUUKm6J/EwGUuDk8K5FkT4ZwriyK6NwZe9LCMHtzZ6MPDfYfGNofk2d+BVtGPLxsl7j0sAnDR03IYyJxZPs6nL5ix9c/TkXdEKdmWdT16+djsWLpYgzq9BZcrCn49acf0blZFWxYvggpJt5wbKIvnQvD19LWaLkvOjWtRgJtvnqxSfJFsgI7TU36c9lh/KTvMMvTgUahIdixcR1COw7Bwz3rO4/JIed2mGibLci6m7cXZ0lR+O3X39G3V3faaVtJ9i1o1r43fBdtoJ31ZPTv3Azb1q5Ena4Po0FoXSz7bT3Wbq0LnZG2RkfPoE87J2qeLkwL/PcS+DCGyUA6A0z85EfM8gEa1QjAjg3rUbfzYDzQK+vgogAtj5EISAQkAhIBiYBE4JYjoA5oBtcus2He/RbTrx8l2ebKflFMbkWIZaHJDmpPkj3tuiYjuTvh5euFi7FrMHf+X+jbpye6tq6BqR9NxEP398W54ztw6KKV5iMdc51iw8qlS+BevSWmf/o+XJ26R2YIT8HLzz2JxSs3YmSnirQYOIBZcxYhQJNG041VCGn/MMtQwcvLgY2rFtKmoB8CyKvMZqc/nKjAykyrJq78u3gGYEC/Dpj3/eewpTwIH40R6zfvweMvj0Ul1mfiSn22CK5kygoX6OPvicit27BwaQC6tKpNjmaiYtKVPGgw3vzgG0zXGlE/xBXLV23BM6+NQZ0qFbF15WJUdcugHfcBxDHghGDPgug7MjIw/9dZ6Nu3N+7v2x6///glTClD4avJxMZNu/HY6LfQuJpTqZvdlqL810ykFOXA6x2jYkg+bZU+tNWoAEd6FK3eL/HwrBmLYo4hphlEV5BrcWOI4OtMwa6pNhC6NtOgCbznesXn2efi4QNvGhpHRsWjSq16aNOuE+pW8sXpEyfpYGjD/Y8+i34dm+Y558LFBFSr3xqdWtXLMxupXClEcais16g5mjWogtjIs7icZkbX3v1QN7Q66tWrjeCKwUi5lIBUE6N8NG0Edw8P1OF2V7HWQPMPFw8/1KlbB4EVQ9G8fg2cOX4CEbFxtEFqjv7d28PdRUMkVKhVty68PYTGmZpnF0/Ur18P/gHl4aaimce5RNRp2AQB/l6Kgb6Iw9q+LZc1LkQjPCIWleu0xH39u6J23YbwURtx6OgxWNWeaNuqFeqy3KDyvggJDMD5WNqQeweie/ceaMHII2EnjiIyOh6V67ZCH9GWXPZTeQAq4EdsbCwSEhLQtm3bAvY6N61fvx7t2rXjQyScOaTc7QhYjmyH5eRezqVvYnnzbgdJ9u/uR8Bq4fJ8G+iadrr7+yp7iAySrz179qBnz4KVgSdPnlRQatjwqgnrjcAm4l5rBI8iT7KnnqVCMTtEHfmToqnNzaO43E3zCJV7AFzqP6NYFqgZ0q+o4hcQSDONJJy/bEDDZq3QpUtneNjTcPL0WWrGQ/Dsi6NRN3eEDdYVn5iGzt16I7RSQE41Kpr6VgoqR2Lrjnbt2zD4gg5hp8MAzwro3asnQmvUQM1qFREUVB4xUVFw96+IerWqwcM/ALVDqyjlCO16ueCqqFm9Euo2vgcVfbU4cuw4Ei6nol3XPmjVsIbia6Yh96tXJ1RZpXeQe3mVq4i6taujPPlSRtJF8j9Ge2vaGB7u7qhZuyZCqtRkBLoaiDh9AucuJDPa273o2EoklmqM1IRonAyPRrmKNdGqcQNyurrkMX4o7+WCqOgYVKxeH7379EEIqc0x8q0Ll9PRtls/tqUm7c6zZhk5KPz7FxVV8GS/JScO42VYY/6GLW49bY4imZyGdj6ccSmzMxdv3hi8mSq0grbGEDo/tiy5imVJJYqASCV88OBBvPzyy4WWO2bMGLz66qt8iAoPjF/oyXJHmUMg87cp0C/8ml7tnmWu7bLBEoGSQsBhzITHg6Ph+fg7JVWkLKcUIyAyfX755ZeYMmVKga1cuHChsv3BBx8scP+NbLSnnIE1einsF3bAnhlPFTAjgDBymjCzFVYEKi9G5QhhLG0Gj1B7V7+RKuQ5txEBbUnXpXLjDKvuSOXjMFxkCvYriomIEp6G6UJVnsGKc2BJ1yvLkwhIBCQCEgGJgERAIlDWEVD70Ty02dtc/bfCrk8g0abCkt+FX5ywwRYJaYpkWlLWgbhL2l/iRDs3LkJ7LT5SJAISAYmAREAiIBGQCEgEioEA/d3U1F4DTjOLYpwpDy1FCBTf2KQUNV42RSIgEZAISAQkAhIBiYBEQCJQWhGQRLu0XhnZLomAREAiIBGQCEgEJAISgTKNgCTaZfryycZLBG4nAiXqN307Gy7rkgiULAIlG0OgZNsmS5MISARKFQKSaJeqyyEbIxEoxQgwna6I0ilFIvCfRkA8AzLE5X/6FpCdlwgUB4Fb6gxZnIbIYyUCEoHSjYCueRcY/v4JDoOekYNkltHSfbVk624FAiJttcrLF+JZkCIRkAhIBIqCgCTaRUFJHiMRkAjApcE98H7lC5Lt2cyglUJElCwKEpnbiUA25HJl4XainlUXEzQzqYXHwCeVZ+EONEBWKRGQCJRBBCTRLoGLJtKwp6amIiIiQvlvtzMXJDNi6vV62KgB8fb2ZrInDtLcJrIohoaGonx5ZoV0Y5pVKRKBMoSAa9u+EB+RFVXK7Ucg2zRYSbh7+6uXNRYlLbZESSJQihEQnCQ9PV3hK5cuXYKR6c8TExORnJyMzMxMWK1WhZsIriJ4ivi4M9ti1apVUalSJXgwO7aU4iEgiXbx8FKOTkpKwtmzZ3HixAnlvyDUFStWVEi1uCn9/f1RoUKFnIyJBoMh50a+fPmyks714sWLSlkihXrt2rXRoEED5ZwbaI48RSJw+xGQhOP2Y84az0YwNTOldq1ayn/5RyIgEZAI/BsCCQkJSqbnKKZBF9wlmGnLhUIwMDAQjRs3RrVq1aChOaBWy7jdarVCtgUhF8dcuXIFR48exf79+5V09IKIC87SqFEj5b/gO1Kuj4Ak2tfHJ2dvWloadu/erXzEzE8Q5Fp82fXv3x8+Pj7KjC/n4CJ8MZvNivb7zJkzEJ+///5bKaNFixbo0KGD8gAUoRh5iERAIvAfQmD3rl1KbyXR/g9ddNlVicANICBSx2/fvl0h2IJE16lTB506dcKIESPg6+tbrBJ79uypHC+It1AWCuJ98OBBzJ8/HwEBAejSpQtatmwJV1fXYpX7XzlYEu1/udKnT59WSLBYWhGzuIceeki5YYUZyM2ITqdTNNhC892xY0elqNjYWGzduhWffvqpYmIiSLy4eaVIBCQCEgGBwPHjxyUQEgGJgESgUAQECV6+fLliHtKsWTO88MILqFy5cqHHF2eH0HYLLbgg3uIjiPeRI0ewefNmLF68GPXr18egQYPk6nw+UCXRzgdI9k9hFrJkyRJlqUTcOK1atYIgx7dShA3UY489pthzHzt2TKlf3Lyi/jZt2tzKqmXZEgGJQClHQCzhRkdHK60U34WZmhSJgERAIiAQOHToEJYuXaqQ3yFDhqB58+a3HBhBvEU94iPsvtevX49JkyYphFu0QSgSpTAaqAQhLwLCdnrWrFmKI+N9992He+65J+8Bt+GX0JY3adJE+QiN+qJFixSt+siRI1GzZs3b0II7XIXNDIcxEQ5zOhtCpzuNG1Su5fiRtmB3+MrI6u8gAsK2UjgrCRHfS5poOwyX+MwxmozdzIAyWqh0PlC5B/G7TLdwBy+7rLqICDgsmXxvXAKseucZWg+o3AKgcvEqYgll8zBhIiI4i7CdHjp0qMIb7kRPRNCH+++/H/fee69CuCdPnqwoCB944AHF9vtOtKm01CmJdtaVEFFBFixYgJ07d2Lw4MHo1q1bqbhG9erVw7vvvqvMVmfMmKHYhgsbK+EFfLeJ/fIhWKOXwX5pPxz6BCfRdtg4HXTngFkeat/a0FTpA03lPgoJuNv6L/sjEbgeAsJsRPiFCBHfS2KVy6G/AGvsCtjiN8GRHg2HKQngRBdqEm1XP6g8K0ET1AGa6oOU5+967ZP7JAK3HQFGP7Kd36Lcw/ako4zxnwiQcCui9eREsQLU5RpDW/VeaCp2Ve7r297GW1jhn3/+iV302xDaY2EnXRpErPwLs9euXbti7ty5ePvttxW7cGHG8l8VSbR55cWM8Msvv0SVKlUwZcqUUhm+RizNCO9gMRkYO3YsnnvuOYV03w03rj0tApYT38EW8ze1ERwkVUyGonxoBy9s4a0Gxm2OgS0tErZza6D2bwhtw+ehrX7f3dB92QeJwL8iIEKIisgBwglbiPgutt2w85HVCMvZ32E9LWKiR+d65qi9Fs+cw6qQFkHE7Yl7YAn/DdrQhxg/+mlOeisobZB/JAJ3EgF74j6+N76BLWELV2GsvG9JZ8Tqi7h/hVjSqaxJhS3lNGzRS6DmhNGl0WhOHNs695fhvyIs31dffaVED5k6dWqpVLyJMIDPPPOMsvo2c+ZMCHNYoST8L8p/fk1QOB9+9NFHypKHcBoozTEiReidRx55RHFuENrtZcuWlfl71ha3Aab1D8MW8YdzsKSZCNQuzgEzOyGKGDjFIKqhRzM/9pRTMO8YDfOeseQDWdqLMo+E7IBEoHAEzp07pyy/BgUFKWFDxVggtt2IiNUi47bnYNk3gStH8XymuDqmpv+JmNxmP3Piv/gtnkWxn2ZcVpIa48YRsF85eiPVynMkAiWDAFefLadnKfeiLX6D8z5V3htZRFu5h8X9S3rDlRlheijuZXvCVpg2/R8sJ2eW6TwAIvrZxIkT0a9fP7z44oulkmTnvtBiFW7atGmK2ZtYnRfhkf9r8p8m2r///jv++ecf5aZt3bp1mbn2IvqJ0LwLh82vv/5acZ4sM43P1VBhJmLa/rxzuU+8zLM1EbmOKfCrePnzYw37FaYdL5FsZ9nkFXiw3CgRKPsICM9+8dy7uLgoH/FdbCuuODLPw7j5Sdjj1ismWcoEtiiFCNJCm1dH0gme/wRsNO+SIhG4EwiYj34Gy4H3nb4EgkTnTA6v1xoSb6GosVtgOfgRzIc/vt7BpXaf8NcSQRomTJiA9u3bl9p25m+YcJoUq/AiUsl7772HyMjI/Ifc1b//s0RbaISFyYgw2BdxIMuaCM27MCER2ZuERt5isZSpLti47GfeN14Z+BStQ7Fbz4GTttv22NUwH5xUpjUUxe66POE/hYDwHxGx9hs2bKhEFBAhtcR3sU3sK6o4LBkw7XmbZJkaaa0gKDcggqzQDta86w2anMTdQAHyFInAjSNgPTtfWVlR3hli8ldcEedodLCe/B6WsDnFPfuOHi8cHk+dOqVE9RArW2VRhN32Sy+9pGi4hSnJf0Vu4E4t29CIl9THH3+sZD96/fXXlf9luUciEol46YpZoshAWRZEaKDNBz4ATMnKkt61bWakEWoe8nyEU2RBQsJgC58La9y6gvbKbRKBMo+AyDwrxi0RcUhEFhAf8V1sE/uKKtYzv8Aev9G5lH7dk7Kev8JIPImKIzU8SytYdKJ/3SrlTonAvyAgnHUth6dRqSIOLIS6iPeEzch3h+k6yhdhVqKC9cgnsKee/ZdaS8fu7777TsnQKEwvhNlYWRaxGic08sIv7vDhw2W5K0VueyF3a5HPL3MHClOLcuXKKcsYZa7xhTRYeBy3bdtWMScpC5ptW9QSOK7wARPasWuEo6jWHyrfZlD5Nc/6tGD0gyo8sqCXOgdNivXEjKthnZQt8o9E4O5AQEQYElogYTYiNNjiI76LbUWNPuTIjKep1W+KNu/6qJBkq32dz5+LNw8t6JnjZjHBPbcKtou7r1+c3CsRKCEELKd+oJnhRd6fwpegABFhKXWBUFcaCHVwd4b18yDhppNkQUKbbRFhx0LNdqH3eEHn3YFtP//8s2LX/NZbb3F+4Hzf3YFmlGiVlSpVUlbixQRChDC+2+U/RbR//fVX5SX11FNP3XXXVSS1adCggTJLLM2dczCCiCX8d2oUCrn1bCaoA/vBre9CuHX7GW5dZyv/XVuNoyVeIYMm7bXtVxga8PyWInc99XICdm3fio2btyIyNqHI5xXlQH1qMmJYZiEUpShFFHCMHfHnYpBhLJ0mQmlXLiLuAmPYlpDYzHomZ4mBhbzPZjEhOTWthEoue8UI+0YfH59rGi62iX1FEWvUYjgyaeqhODwWdgbvWCoEtU0mKc+fS2hf/qZmsEDhC188y4K8X+dON2Sk4MDendiwYROOn4mCrWQfigJb9q8buVp25sQRbFi3Drv2HkRKxs2sBDpwIT4WqRnX4qTPSEWG/trt/9q+rANsVhMiz4bj5MmTij/OyVOnkZRW9BWM7HquXDiPhETGR6dkpKVAbyqdY0h2ewv6b0+PgTVmRSHKGZ7Ba6oK4Huj9wq4tp8G1w7f8vs8qP0qcV8hq6F0ALadWw0R9aq0irDJFk7P48aNK61NvOF2BQcHK6GLhWZbZMW+m6Voo/RdgMDKlSsRFRWF0aNH3wW9KbgLw4cPh5ubG3766aeCDygFW+3JJ7nsHEatxHWWv1TUdKssMG8fCeP6B2HcMBym/VP5Or/OOSKeatzaIvXw5L4NGDX6Jfw2fwn+Wb4Ib7zyIj7/4S/YSOpKQqIObMKUT36CpQikwmZIwh/zfselzEImETkNsmD2159h79mSnRTkFH+TX3ZvWoQvf5l/k6VcPT3jciQ+mDoZl8hTjm9diTfGvIcrxpu/QHZTCv78Yy4uZlD79V8RhuqzCefH6z1zAgsuuasrDoNLbcapFw7H9IG4rtCExJ64l1rGgidYl6KOY8yro/DNT3Oxbs1KfDj2dYyb+g305D1hh7dixabbrw1PuRCFiWNex7sfTcfajZsw58ev8dyLr2Dz/jPX7WrhO+1YwDK2HYzOd4gNv3z1IT7/meTwBsWUfgEfvvMOPv3iWyUhyecfT8YLL76MfSeji1Xi5gWz8dMf63iOBV9OGovZf20v1vmFHRx2YBuWrt5Z2O5rtp87cwCLVoh2FF/sF9hmEeO9QAWNcxVG1/J9vjbOwLi6H4xrHiH3DoBry3d5jqivgMFYlEXzRVtCyeBR/F5d/wwRXeTAgQNKHOrrH1l294qQyoKTffbZZznJuMpubwpv+X+CaIssamvWrFFuWI2mkGWnwjEqU3tEuB8xodixY0epbLdIKqDY0P2bpzht7BymVCbNoNOHXc9kGuHX749YCkzhy5JatuuKw4wl839H1daD8e3Xn2P6Z1/gvTeeR7C/a07QE5MhHWfDwxAbfyGnKAe1Ipm0h3VwKfJcdCSiY+PzaOfsFiOiIs7iXMIlBnLgY5XDCR04HxeLM+FnkZpJ28FcIspMiA3D8tWrEB2fCGsW03cwYUhMVAQiomJgzqUCdD6sV18YKQyTZDA6CaODcZGjWX9k1DlYsw6x26xss4EKHQtiIiMQE3f+arNytUN8FZrHs2Hsc1xCzjE2qxmZRhPzlxicfTvPZBC5xEycIsLDceFSCldzScyueZk5kJkhwi/acfF8PMtyttWsz8I37iq+zmKptY+NQkT0OWqyVcr1sNLJt3qDFhjxyDD46NTQZ2YouF9JTEBymvNaO7EPR2RMnFDI5pHUK4k4E3YGFy47NXqJ585i+T+rEBVHvMU1ok1nXEwUws5GlNrVgjwduoEfItKII/Pc9bXZDgvgWhu6e96BLeoX2FJJnv9tmVrsNyfTzjWswFatW7oYGe618M2332Dqx9MxffJ4hFYOopJcj327NmPj7gNIz6VNvpQQh7CwcGptr4bsNBn1MPFCZaYl8T6jTwfFQU2vuNcjomKd1zC7dt7nsXxuwiOiYDDnvxOEcj4Nn0/9ANF6f0z95HNMmzIZX3z1OXq2rIGjx0/m3DsXqaEOC+PzmpH3eRVaU/Hsn42MhtGc84CzdnUep9TU5CvINNnQtd+DGNijVXbroNz3yjOW/77POSTPFxWfJzs88OSoMfjkk0/w+Zefo3VVKlLmLstZ27t0IY73d/g1WnkDtenieb6UnAatjmOjMrZo0ff+h9GjfQNlTNAbjFwtMuL8+fM5Y1nK5Yt0suV5SflWkDhZOxcTyeckEkZeDytXmQ5u24BNm/chPdOpZdenJSOc556Lv3jNSGA1G3H04A6s3rJT0cpnj2LJiRcQVlB9eZDgCCJMDQsT4UugYeZgnwBYw+co7wFHyg5Yjv8AVYWOUHuW402TXWO+QngP2y9fp+x8h9+unyJO9m+//YZXX331xmPl367G3mQ9YiW+V69eSgS1myyq1J5+HRVhqW1zsRomnIWEXfaoUaOKbM9YrApK2cHChuu1115TnA1E/MrS5p0sHFr+VdgHlUs5uHYTGlLeom4edHicSeerL/lbUU9cW4Qg2rTfc1jSSHSvr4n7f/auAzCqYmt/29N7SAFCQofQqxRFEEGxF+yKoqI+fYpib4j92QX1qdgAC5bnb1dEUEEFG6B06SWU9F63/N+5m4UkJkCQkCU5A5u9e++UM9+0b86cmWvlZCs9bQPWbNiGDsmt0XPw8ehZGePWVT/h8amvwxIcjtL8LLTpcxwmTrgQ5sJduO+O+2EJi0JJcRHSd+zEwBPPxQ2Xn43izC0ctB/B5hwXIkJDYHLyRQm2jrCQvMx++RnMXboJUeEByM4tx4Trb8XA1CQjtYq8nXjt1RkoyM3HS08/jkl334PWtnw88ehj2JLvhh1lsIa3wc23TEJKfIBXQiE3dF+/Nx1vz/0Td095ENGm7XjiiSeQV8HJQkUxAuM74rZbbkBgyXbcfdfDcEREU+ZCkt1dGHb6OFx90cnVUFyxaA6ef202bCERyMtMR7v+I3HbdZeiaMsK3PPUdITSRKGYhHnX7gyMueR6XHryEOzasBwPP/oEihCI0OBAlBblIKrzUV4ZfX89JZj28GRkui0ozC3FTZOnwJG3HE8++zyPZo4iecpB297HYOI142B3FuLlpx/Dgj83IyY6AlaLmWTGQwJvRXH2Nsz/YTWOPXoQ3pn+BJZsLUIpy+Ccf92BvjHFJE3PIt/Nt4fy5RTBrbrj1huvRXSQBfM+noU33v8a4ZHMF5fcR510CtL+/A75eQWY/syTCLrpOvz6+VtYvD4D4fSfX2zBxFtuR9fkWF8OmsS3m6eEeMpJnGrVBkoWSUJYRraek2Fyr0fFH9NgP/4MYxLCmeU+MGBd5KSwrtNHZNNWXvo2mj38hW5d2qF1p96YwM+y+e/j8++WocRlxUszwjDpmvPx/uvP4ZNvlyAyIhS5+aW44OrrceLgnlg67wPM+PJ32F0l6Db6Ipw7JBmP80ze7DI7zLwXENsWt94yEdHWYkx9/FGsTi9BqIPEvCIUt95+G1ISwvfIv3n5QizbXoZHp01CuwSvKY49MAJXXH+74cfDtvPGS8/im5/XICIsiPXBjfHX34Rje3dCcc4OPM02tm5XIQIsLnj40p5Jt92Cji1J4sRVtsuF/5uBlz/9Gbc/9CDWL/sFJYl90KtzG2xc+TOenvYST0j01vv2fXj6wtUXIcBcR3/mjZV/zQgIDIIoiELCotGnX1f8/MUuuDip+GTGNHzy01rERAQjO68Y4667BcN6tsO2VYvx4OPPwe0IQzDt+4tzdiK5b2cREn8sWoBWx8ShlSMXd015BvbgANhDW/GI2xvx/cdv4a2P5yMyMhqZ2bk4/eIJOH3EABRmbsOzTzLvu9m32Lg/ICoJxx/VDV8tWo68cjOefysOYwe346TlZdjDIlBE07l2/UbghgkXwF6Zvc1/fI8PPv8B2cT02edfx123X43vPpyJWR/OQ0RUBHJyCnDKRVfinBOGVuubfDCI6UidZk+CvTuXZ8LnwdLuQh49+Rd5dRCsHViHzQHGW4VRmFV7/Zdxgy9DM4h4ZRn60mysb9nk/Mwzz+CSSy5BixYtGkuMw5quvLZdTKQ+/fRTnHLKKYc17cORWJMn2i+//LLxOvWOHTseDjz9Io3o6GiMGzfOmGA88MADHAMqezs/kE6OGKtTuyDySceXvxLOTR9Rs/YeXNmbYW13Oey9r+droudy8xWPBJJl7ZqOeRT7b+OkkprPqv422XHOBVfg2WnP45aJ1yGhZSv0GTAUZ591GmIDyonZf9F91HhMOHM4yvLScPutd+LzhT1x5oAY5GTlYcRJ4zD2hKOw9Ot38dT/FmHCZWfis9kzsaUkAo8+eTei7U7MeOFxLN5KLXHuTnz+/S+49NbHcVyvZPy1Yhn3ecoGM6+zRyTiqmsmYNPDz+GGO+9Cp8RwTH/kIew2t8bjT92AIE8xnp5yN6a99g6euOMKoxwdNisWfjoDr/zft7jpnofQPjEYT957D2xJA/HsDeNg4Qt8Hr33Nsz64BtcfVpX5GTm45SzJuC04/rgp49n4KWvf8Ql552M4Cot3xEQirGXXIMBfbsja9My3Mnl/S25F6CFyY1carZOH/dvjOjXEV+88RS+5HL7uJOOwjuvvgBPXG88dcc1MHP5deqD95Ls1iBlrHYF2ZkI7TyUq0nnItJRgVunPIvux1+CK88aiVJONO647Q58+UN/tPcsx5xft+I+kqjubaIw7/0ZmP6FLEtT40TtWR6xF1dKTV2pPR533Xo7WseG4InJNyGw3VA8dN0FJNoFePSe2/AuB/Qz+4bhvzM/xfhJ9+KEQalY/ftP2O2KwMlDOuKv+57EDXfdgyT3ZjyweBVuf+R59G0bjeVLfkV46L4naYYQR9of4xQGribIS2lqc9xEZk68CLb2w1H+y42ArRU1hDbvGyDtkWxTotmtow/hikBdL40adfY5WJ02FVPuvBkx8Qno0qMvxo4di57DTsfpXGH5ozAG115xLlb89AXe+eI33P7gQ+jfMQHz/28GXqTdZs/UF2Eikc/IK+NRpnehd+dETL3/ViCxL6beNB4WEu3H77uddX0eLj4mGgtXpuGhZ/6LzvHBWPrrbwgOrr7ZevOavxDfqu0ekl0Til/nfYRPFq7HlEceRdfWkfjs7f/iv09PRc8Xn8SXs17G+vxgtvH7EWlz4sXH78O0F97A0w/cRGhMCHDY8PvX7+Hpt+bi6jvvRSoJ+BISztLIcrg5AZz67HPoecJluOLMEewX0nAH+5XPvu2Bs4/zTfFrSiO/TTCbyrHk1x9QkhHL9pKOGW9/hgGn/QvrFs/BBwvW4kGuFLRtEYpfvnoTL7w4HamP0TTkpZcR2204br92HJz5aXj4vsk0i/O2zaJ82o2XlDFuCzJ378bpV9+Ek4YdhYzVi/Hy7Dm4ecp/0K9jS2xY9h2mPD0dfbp1xvfEYVOR9G8PIsrhwjfffIs+w0bylcrr8EN6JCZeehY+nHo/PC264bEHb0AF5fzzrzRYq1SZtr1H4MIzNuPjP3Jw68TLsXPlj3jpzS9wFZUXI9m3LPnuIzzy3HPowjef9kipOdHlRFDGjTod1/pcOTxb+2HYB94Fx+hPubJZRtvrTVS8cKVmn47jBt8gyUrOj3+sdr///vto06aNccDBPkVvYg9lNf72229Hz549kZSU1KRyV2W4bVL5MjLz559/QpZgbrjhhqaXuf3kSF7As3DhQnz99dcYPXr0fnwfxsdCkqt0wH9Lmc89eT/zzY8kWTTzkEHM+dd0WLuMgzksCa5df/wtiHFDVgYNG1SvgUXtnrx3U3oOxBPPd8MGmhQsXvwj5nw2GyvWbcXt409Exu4CJFFDPWvmm+QaNmOz2R/L1+C0fkMQ1iIOx444CjZqW1unJCPIuowk0Im11G6POv1yJEaGGAkcO2gglmz5E46QGPTr1hGvPXkffuzaHUOPGY5h3UhcfI4axuDgICoa+R0SSg1dIZdmM3DWdf9GDDVq4LLx+Recifue+5rLtRWGlnfOB6/g959+x/WTH8dRXVNoVbMTa7ZnolVEMWa/+RY8nKjIS0jWrVyG4hM7IYq7u4cN6wexZklKSaYGbT3cglUVZ7Nb8fVHs/DpRw4kxLdAoJ0vJqEnj8uFqISuGDagqzEEpSS3gX0tNZ4VJdi2oxBn3XgWwoXMBMdj0DF98eUalldVx+Vaa1AoTjr9dMRygpGz7U9szSlDm6w04jsLFitfvmLyYDUnIB7LVvQcMgo92yUYMQweeQxmL/iNczIPqwv/VWr+XAjgG9FORev4aA7oO7GJNuutYvLwzptvGuXvJJlcvXIV1gaHokXn/hgzuLsRX2q/oUjlVUnWeiOuwKBAhAUno1tKPJ65/zZ07daDZTsS3aK9ZVg1G0f8NesDwak7Gx4zzLHHsLxLYU29A9burPdBxKHteK40lKN86ZPkIHVNQNiYa5v4MrWIhPaY/PCT2ExS/fsvi/HNXJrv/b6Sk9wnDBJsoVY60GHHmrUr0e3oEzCwSxtDxpGnjcVn3yzAup2ZsNOEqNeAkejDZ57SdKzelo64zqV4l3XdzfbjZs3csPw3BJx1NTolhOLRuyaxLHtixMhRaBFWuQpUmXObzYEymkrIBltaIf3NrVy7GgNGnYLubb118NSzzsOXC2/DJppWrOLm5lPPnYj4CG/9OO/8c3HrkzOQX+aEw2bCd5/OxKqlP+Pi2x/HKBJHcaLgsPCEjJKcNGzLK0fbrG17673ZgxXL/9g/0WYf+Nvi7/H7NxlYuZl9w8VXYsK5J+KrFx+A3R6An+d9jh/YB4kCIy8jDetoArWTPPrqs89CSADLPaANhnTviD9KvKY0IpN83GzbcSmdMGb0UART1iUb1qCMZbz6tx+wanEF26UT7qIsrKL5ybp1u3HGxbfRvM6rJBhz6hlG/uw2C/sVBwLsNvQcNABfv/AWJt64A336D8DoE0ZVq3FmtvWAQIdhYhYcSLnXrUZit0EYNaCLEVe/Eaci9bMvsHrLtlqIdt11zAgsf1gH3Ttno/SL72AKaU2TpnSajZwLR0x77x4C1pU6nTEB3degVGfIQ/5A3u0hZp9yBHFzc/JuEHlFu5wXPmXKlCaV/X3UviM7n3LWrNg4jR8/3uhYjuzcHJz0l19+OWQTaH4+l439xJmD4inJPjo12mabk65FwPEzYY7uyhExkcuBV8Ds4Ct08zczaB1Vlpo1k4Mk1ibDxr5dfm4urI5gdOreB+Ou/Dceo1Y0e9MSbMssMEwVQiJjEBPbAhERUTjp3HE4e2RfuFifhPQ5OaiJc3Gg2uNIXJ3Oqr95QzRIJKw33PkQ7r75OrSnlm36tP9gFrWtVZ2ncmnee3oE80aCW1GZhvhzlnNpnt8yOIpt68o/tiCpZTR+WfSjYadpIh4myhUaFIbomBaIiozCgOPOwKXnnSJCMTraUxrGyDVk9glB+/dXXnkZUakj8MD9UzCGpLyMpN5wLCYP8+ETx1Vtt6hnj5bM8EsZanfErDI+ZgFm+gsLiyS+cYjgEvWJY8fTjvUoWiCUE1Mvtt746lr4IA4VPqylHlGbGBqJ6Og4mh1EYcjo0zHuDB7tRVt6lxCQGkJJGRqOxWMOiMJkmr/cfO3lIEfDk49Owcc/cMWkiTmTg+YTNhLEusxAaJ7jWvsAN5Bx0/H3V6JswbVw80x+18ZZfNX1uwSqumZ4LzzEkppvM80oanNFBXmoMNmQ3L4zzrrgUkx9+hFYi3fRZGsnCSjrrVQIOgu/xRZ/j+PeBRfrrNRtcZ7K+itlzXkZQjh5izLqejT6Dz8Nl11wGkJCY/Hwk0/j31deTK1rCR554B58s3T9nijlomOfvsijjf6iGvdllSSXduEWTuac5XvlEDLqYns0Uw6pt1VldLFOezxCWvmMbWglCW6b1gn45YdF+PueXWqmKXc4zc589X7MOZfjjFGDq8n39x9su6ZgXH7tnXjy8QfQKS4EwZFxNN/gBEPksgUgKjqWplaxiE/qiIkTr0GbqECjvTtr9E9/j1vaF9u2L7ssAwsn6bIaGkNsI1u0xpXX3UQzKtrU0x69nDbnNZ10cb4JcOqQU6i1fwqnjxqKLcvm4+57HkZOcZX2zMDGpNlX5ixawXCv42Z2o8y9dWLvfe+VScaNuuqveKH9vDmBG3k7nQcUbWJ9T4G91xXw7JxDZURdmygZjuOGOYj7gCrrmje1xvsrJPPcc881DjVoPCkaL+X+/fsbJr6iJGxKrg7WcuRnUV6tLuYi8mKH5uoiIiKMTQZv8VXz/uJMkSTP++zUxHTkT5LUDnCM/BgBJ34JR++L4Vz9LG3v1hiai1rzIkQ7pA1tu71al1r98KazJAeP3nYTHnt+BjZRSyWbieYvWAinIwbtOnREq5ah2JWej2HHHYfjjx2I8qIStOQylomdvNjO7XEceGUgFqLRo10bfPHBW/hr227kpKfhs7nfopQEoyRnN958YwbCkzrjgnGXY1DXltietmNPFHIhg3hFSTk3AW5HYQU1Q71S8N6MV7GJmyozdm7CK7M+QBKX0gJo71pBzeOlE2/DI5Nvw8YFH+OV9+fDFBiL3u1bcjPlbvQbMhRjThgGm7sI0YktGYaaq5oyV/1tSCJEmLblkZEIoj1nNO2ZrWQz3pzyu4p/GShlgmHj+bTtUqLx7oyZSEvnJrXt6zH3qx9ZrH/vTiS8j9uGxbRB+9hgpGUV4RjBd/hArvAWoiWXSbv0TMWfC7/g6Q1/8QiyHHz50RfIyyv1DuSCdaUcQvx9ZNkWGoVOXVtj65YdGHg08z7qGJi56SomsRW6du+NvPW/4y1ObAqLivDTN5/g4/m/w8pViorScuzayeMI16/Am29+gNZdOOEafwWX+0ORxuX0pubkDHpTQAyzVaX+Vsskl8/LeRxl3lJ+lnAzGb9Luc+gdDvtXrfuu71SC2oKb18tNu8PJ954/mHcypWXVes3Iyc7A99+Mx/F1FDHtYgwRMlJz0F6Zja6pPbGmp++wpzFK1BYkIsP33wV6WWh6NKKm9s4+RJSKU4m0r07tMIWblLuO3gIxpx4LBw0r4ptmYTcbWvw5jufoEOvo3DZ+MuREmXDzgwSrCouvl1fnDasJ6Y9eA8+mfsj7ZBzsHHV77jr5mvxwuzP0bPPAPw292MsXLoOBXlZeHvGKyi2xHIDZ0uarbTFh7PeYBtPRzbtzl97bSbiknsgnAqA4gozzht/Ex5+aDLSV8zBCzP/z0hViKzIHxTdGu1jApGWXVnvjx3Ael/Aep9URbraLtneSD7dJKRB0ck0UzsLH702FX9uyUaPwQNpO52GsMQUjDlpNLq0juKkJhCJSW3RNtyON7litDs7D2kbVuCbXzh5JIkWt7f97G1Tcr9jp26w0wTMGRiDMWNGoX+3NlxFcyKpVWt0790OH741Heu4eTmXac565RXs4EZkq82EgvzdyMzKxPwvP8Si1btx3ImnYBxX4Yq4qbKI2v6qTvq6/Jw87ORej5SOPZG55he8//XPKCzMx/wPZ2HNzgr0aJ9SNciea7OMG/si2lK3uTfH2vnfCBgzj4qaN4DipXwx2lOM4+/90p6IZdyQuP3ALVmyxOhfhwwZ4gfSNJ4I8hI+ec18WRmXZpqIkzXFJuekgObPn9/klh8OpqDGjBmDW265Benp6X6xscIc1QPcrUdj24w9nX+1fNH8w5PzHUrnnsz3ZnQnQQjnZpU13pMNKgeLav59P9gJW+KpIdoniScvdoTi3HHn4bU3ZuO+XxfAbuFgaAnFNTTXiI+JxbU3TMKzz7yAG6//gYvSLoS37EiThuHGkmckyaho38SZuQwdEx1JjbEJJ55zKQehJ/HgPXdQWxuOiGAL4hOiuIHJiuyd63DP7TcjhDv/XeYwXDXuWCO8708gz3kVQjH10ftw7pWTcP7l1yL7mafwwN13MX0notr0xHWXjaUuj2Q4ipp2mjZEJCbilknX4NHp72JQ31Rccs1NeI42rbdNmkhtl4Wr/NG4ptMAvuTHyo1NIrM3NQuXmkXmavuvzME4j3azL8yYhU2/z0MgbUzCwqMNkm7iC4Uio/jykkph7dyUGhkRSfMUMy644nrsevwJ3H3HbQgLDYODG7ViIsJ82ar8NnFVIJJL695B3syyvG7SzZj23H9x4w0/wMpBLpzmBd0GjUC3oSfjvJUb8fJTDyE0PIxyhyOxZTyXsMnJKHdklDfukPAIajwqbfS55HvZNRPxwjPTcAt35wdw55U1pAX+ldofMW164cZ/X4rps17Fj59zsyYH/bGXXcfNWgnomZyA5x+fglFjTkUObdJvu3kBAqlytIS2wbih/Wrk4cj/aaI22xzbjyeJrCMZqaPLl7a1p305Ub7gbKocabtqDaobAG7IM0V2g5m4/d1ZaDJ0Hl595XU8PGUygoPsKKb5wsUTrkNq6wg4OvVC7icvYsrjebj/7ltxzSW78A5toT8O5BZgjwM33DoJsay/6x1BCA+vlIEmMBdMuAF506bi9kk30sTJQm16JK7p0J9KdwfW/fkDbv7xe5JvJwJpLzyiX2p1sdi3XHL9bYiMn0HS/CI++yAY5aVFSKKJ0UVnnIik2EBcsnkbXn32EQTS7MJlDcWkW29AGO2vx1wwAWm5UznJvQs2swuhrLc3cTOjmZPSkHC2y4hwkuE2uOfW6/Hg0zPw6+ABxoqYJcBOS64QXHcz6/3UF3HTDQuNdh2Z0NGo99QoVJexyi8T95PExEZzYuttP/1HnomRPy/Dex98ivsnXYwrx+7Aq088gLe5AbuM9Xv46ReyDO24nEeXPvb4VNqB38K2zPbClaOIKK/JSyh/BzE/8s6XSE6qfX1BXPv+mHj1hXhl5jTMeT8ITk5Ge9Gcp4LynHXJVTwpZCoevvdums152GY7YTQj6NK3L9755r946D8FGHZUF3z94fP4nJiWcjXk+DPPRkJ49ZWQtiTX5tlzcc9DT+Kee+7BpOsvYvt8kTb5DpTyLNQJN92Mzi05CavFmeOOYl0UUyCZdPl6pCoeueriTnsbpV/+zNNHaI7izoc7+xfadpOsSWZrdYyLfZwlblCtTw/3zQ8//NDYAHm40/W39OQAh0601Z83bx4nfWP8TbyDkoerzj5900GF98tAsnNVbJ2uvPJKv5TvcAv15ZdfGofeT5gw4YCTlqUbmWHvy75dNi7I8UP1Pdmk/Je7aHc9g51cdRvKasKJ9oIDpqEOFQJg2F9X87H3B/2aHBEIGP0Rtdr70xJ5g3loe5qVk8tjrUgGaW7hI4PGU2qhMrKyKJ8dsSSm4qSZyFs3bTYOnOznvSYV1O7SPtHb7buRlZFJjXogonhygtevlxDmUONTTs1UZHQM7GIsXcM5y0p4VF0hwklK7dzsyNi58TKL1NrMpVweW1Xpv6KinORd7Ma9d8pKqfElmfeFyc7M4NF+DBMTY5Br79KwkzJSZomVS/IVNP+wU6tb05UU5XP5vIRL8jHUya7aiwAAQABJREFUaLuNiYVokCqowfb5l+MCxXrEZsjIGEi0MqiRtAeHITwk0DB52fOsMoEKmoQYtu6VExTjNpd5MxnOUwVfnzx52Vkoo9azRQw1dMRbNNBcOtgjtyzfm3gCg5ge7HUeZGVmMu8mLnt78+57VsbTVnILihAUEs7TUbz1zUWtd3ZuASJYHsJhjLDMVzQnWrUUjy8qv/iWF1iIO/tsEuF6ONfuRSibfzFD1EFUasbFSZBBaPY1caVNt63/g1yuv7Rm6Cq/3dyQyzLlMZWhnIQG007X5/JzsuEieY7gBE3qZzFNTWSjXihPyRESLU7MiWQya7NWJUtsHyzvctaT6Fipr4ZXZs2FzIwsw3Zb6oGPRFY+rfZVWlJIk7pi2AICERlefRXMeKkLXwwVToLqoJlGVZfLzb1y9GRUTDQJs9fVrJMVZaVws7+SlSGZlMopR4Zje8nMyjb6FZnw7texzymnKYuVfYzZ136YxxLKFkA7Zx9m+Tw2NJjYhgbt7U9lA7Fo7ANpVhUaxFUcnvkpGPpkFWwqaIJlZ9xVXTlxyckrhIPmORFh1c3wcpj3cnbJsS2IbWWg/NxsqgOs7PPCYISlCY49MBiRYV5iXzVuuS7iC3NKGYeP5JcWFSCfRzwG8bSSEE6y6nTcFFs673y4M37lWLAPf8aY4au7zJsPt9oilk3A0b2o/aZ5VJ17ELjnk1xCXqryCE+Wqs3J5kVxstH3YN3y5cvx0UcfGROQg42jKYUTxaAcaSmYH+mvnJdyqUO9ceQWmWizv/vuO2P36pGbi0Mr+fDhw3EHX3yQzXOX5fXzje2sXa6Ac+vn3LCSx47QN1zVkEoGeGpnDshxwLe056kTB0iyJU6TVbRFdRydRPIay42PVZ3Yk9pJWH1OzCTs1XZUkeBWiU9eke1zQrD35ayOQMRSm7bXmQxSvve390pIflXn4MuJ9joZ/KvnR+xHq8ts4Saw2vEOJFmWj9dV+pHwVQitHLVXLThJfyy1Dz5Xk2TLfSH5f3PcuBRTA1+fn/CoaN8lCX0lhkzUJ7dBvPf48F2QcJEk1+Yc3NQXJxv7qjjR7Me22ItdXWGrBDniLy0tjoKl5XFwbf1sn6RiT0brapc+DyQppshUWNue5btTx7cZkXWUTRgnuFVdUCi1wtU5r7Eq9Pcay/ZRW5yUOeYAj0MLCAwhWa1eL3yyhAjp8zUF383Kb1lVqulq1kmbY2/dquaX7aWuel/Nn++H9DncLFrNMY+BgXsR8WJGG/waTlbcWsRx5bDS+ebGVWWt3n95PdqJSVwduETWkvcw7ovwuX2F9fkJJrZV6XtAcCjks1/HSbmt6zXcQ/A7ve5jsigbf+VzQI4rYF2vPrD2cEDxHbynjz/+GKdz07g6LwJyrKGcPLJgwQKMGDHiiIfFNzE94jPiy8CyZcuMo3FiY2sfeH3+mtO3vC1y0KBB+Pbbb/0i2+bQFNi6sIPjhrV/7KjpMEX3pFZt/D+OSiNQBJosAiRtth430qaf5Eu0fv/EyWoTtYr2HpP2uyfinySjYRWBqghYWg6HJeUMbrQ5BLa7opxpczKsrUZVTaJRrtPS+DIv7iPp1q1bo6Tvr4mefPLJhvmIv8pXH7maHNEW2+yjjz66Phg0C7+CibzO1V8shWzUalvancNOs/jg8SfJBjfv2Ac+RlvuvZqVg49QQyoCTRcBc0Rnw9SD7PjgybaQbGqzbd2uh6V145OUpltamrO/IUBtvr3vvTC36E+bIr4z4WAdw5piesPeb8q+TRIPNv56hhMzTTltw3cKTz2DN1nvKSkpBiby5tIj3TUpop2Xl2eYR/To0eNIL5dDLn9CQoJhRiCvZ/cLRxtGR//7YW3PDTwuaigMm9ADlYxLh9JZhibBMfQFWKK7H2hA9acIHHEIiK36xo0b/ya33JNn9XHWpBNhP+o/NBrkcr20u/o42tZzXR7WHjeTaF9Xn5DqVxE4JAjIyTP2IdNgjhsqR0hx3ODE70Cd+GUYM82oHEOeqzyJ50ADN4w/OU1JVuFVOVg7vjIBEfORI901KaL9008/oWtXvlzDt/nkSC+dQyz/wIED/WspxhrMQf8x2Prew82M1EgbHadsZKnDyb5dg5Rzs16r0XCM4EtlZDe6OkWgCSMgZPqVV3jUXHGx8QIlOXNdruVefYm2wGRNOROO4a/zJJK+hnZaNNRkLHUjKCZeXGo3hSaT5PC13T0mkm83qaGj7rzrE79DwBzSCo5hr/AlZlfQvpqba1k390m4hWCLH5o7WTtdxrCv1nFSzuHPqkyWxbRTTV1rx15MXmUicqS7A901cETk8y++xWrkyJFHhKyNIaTMDhcvXmyYjxyKZSqJo9qLWw4mU2I72mUCLK1O4Ekkb8C1bQ7P7uVSkQzuhraCBMDYGMmBnceUWaIHwdrxYvo/Xgf7g8FbwxxxCMgb0+RFImvXrt2jRJBruSfPDsZZYvvBfNw7cG3+CM71s+HOXVNloiukm8dSSLvjJjQ5J9uafCpXn7jh2DiP+2BS1DCKwKFDwGQPNUw/ZNJYseZVuHf9yHPfMzlmUFFjjBtMyxg3LIYSxxw/xCDZFplcHgInJpi7eeZ+fHx8tdjknmzkO9DxVd5e3atXr2px6I+9CAiWMhERXOt7utneWBr/qskQbVmC2bZtG1q3bt34qPqhBOU8Zk20X6U8Ek5MbORlNvJbjtFp2bLlAUucy7cqyic5OdkII9o1Oc1ENnP8E+zNNAMR+ztPKt9Kl7OaA/9qvjp3t7fj5EtoZAOlOao7z9Zux3RJAtQpAs0IAVmpW7FihdFuJdtyLff+iTPJCz7an88NZmfxRTXreO7wcrgLt5FwFxmaQlNQIttcKswRnXTT4z8BWsM2GAJmboR3DJkKT9EOjhusv7nr4CnjEYp0YmZiDu9gjBum4AMf4w5EWFEwyYrSVVddtef4uUweOTl9+nTjxLMDPZJuzZo1etrIPgAX5akoFNatW7eHaK9atco4Z/tIslxoMkRblmCEPIaF1XEu0z4Ks7k8+vrrr9G2bVtjkB46dKhh97ly5UqceeaZBwyBnCn67rvvYvLkyUYYOYJN4pXvf0K0fQKYAng+bcJQ4+O7p9+KQHNHQE4kmDlzJhx8MYu4rVu34thjjzWu/+kfk2ithVDzo04ROBIRMAUnwiIfmhQeDidEWgigkD5RNokGe/Xq1cbxuQdKskU5JUqqDh06HA6Rj8g0li5dahBs+RbOkpOTYxzf3KVLlyMqP03G0E4GnkNB9I6o0quHsHKecnBwsEGI5TghcTJbbN++fT1iAVK4E1i04jJ7lxmlaMrXr1+P7t11Q2K9gFTPikA9EJDNzDKYyw58+ci13FOnCCgCjYOAmHyIokqcmJLIKlN9zEBkZVhMI/a8L6BxsuHXqbZr1854FbvvdezCNURZeKCmOf6SuSZDtIU8yms71dWNQKtWrYwOQWbR4kQ7LcS5Pk40ajKhkZm8dBBiOyWNoE2bNvWJRv0qAopAPRAQLZm0MdGayUeuD1RzVo9k1KsioAgcIAIdO3Y0FE5iipmfn29c14eDbN68eY85xAEm2ey8iYmqKPNk87fT6YRgVl/loD+A1mSItmhnRWOrrm4EZIlKiLFU1iy+4ltm4aGhPOarnk5sQ2UmLwO9EO7ExMQ9S9r1jEq9KwKKwAEiIOYjsg9FPvpyiwMETb0pAg2EgLxlWTYjy2q6fAIDA+v15mU5alfCqKsbATHPEZ4iq3iiGBTTkSNRqddkiLbsTK3Ppr66i7bpPpGOITIy0jD5EKJcX222Dxmxj5IVhMLCQmO5LDVVbTt92Oi3ItBQCMiSqbRh+ci1OkVAEWg8BMR8oXPnzobSScxGRJtdH5MG0dDWRwPeeDltvJQFTyHWYvq6YcMGhIeHH5GmNk2CaMvpGaJdFRKprm4EpNIKuRZt9vLly41Oom7fdT+RMz9lYiPa7IyMDBxpGxPqzpk+UQT8FwFZfZJlU/kczEqU/+ZMJVMEjkwEhGiLwkk+9R0HxdxEz8/ef7nLSryY5yxatOiglYP7T6VhfTQJol1SUoKCgoJ6zSYbFlb/jV3symQHrxBkMfk4GCe7rGWwl2Uc2cyhncXBoKhhFIH6IyCbjnXjcf1x0xCKwD9BQMwXanNJSUnGpmQ5T1uu6+Nkr1R9NOD1ibsp+ZU9YbJxVJSDR+oKQJM43k9OwRCyrW7/CMiGSNGGScewv3Mo6+pcJJWePXsaSzj12WW9f+nUhyKgCOwLgcFDjt7XY32mCCgChxgBE198Y7fZa41VTBq6dPYeNSfX9XF5efmwmC31CdIs/QpPkT0p2VnZhunIkQiC3xPtfZE9H+Bi6yS2Owfi1xemuX7LSSGymVE00vvCSyq3nDBSlx+ZZfbp0wdin12Xn+aK8aHMtz9qPIwXQrjKDmU2Na4DRCAh3PuyJk/xzgMMod4OKQJ85bfJEXVIozwUkbk8FfCArxpXd8gRiIgOwQ03XQenp/Y+r2cf79G2dT2vTSAZM1u1iYc1wFRnvLWFa673OnVtj107d9WKlQlmWEw2v4bGxAKvfU3ED8QW22sh0fsTUZ7Lm5r0uKsDKzTBVMw/5FObE3Inx+nISoHs+pW3btZ04kfi2Z9WvGY4/X3gCAjGUqf95pxVvt64YuULcP41E54Kvj2Q8qlTBJoNAhxnTLZgWDpcDHu3a1n/G18b6SG9zinfhnwn34zoe/V4symQw5RRdnNmarVrHQc5hBYXlBqCBIUG7Hn7+4FIJrzFHxUpByL74fbjcrsMHmi1/F03LGUTZk1ApD2J74z2zzHJb4m2kDg5P/FAnVTY/RHyA42rqfs7EKzEj3xq61x8+BxIPD6/+n3wCMjKgj9MaFzb5qBswZVegsHOTZ0i0OwQEDLLCafjmJdhaX1Co2e/0JmFXWUrKwmGf5KMRgepgQWQcVCc8o+GBlpAri0NmW56EO/oihBrTG0eGv3e36cHjS6SV4B9EbzaRNRKXhsqtd87EKzEz/787e957anr3foiIG3BL4h25lLAXQFY62eLWN/8qn9FwG8REC22qxSuzGV+QbTL3PlGPy12xOoaBwEdBw8T7rWSbElblKxulLkLEAL/JNraOg9THdFkFIEjH4E6e7ojP2uaA0WgXghoW6gXXOpZEWjGCCjRbsaFr1lXBBQBRUARUAQUAUVAEWg4BJRoNxy2GrMioAgoAoqAIqAIKAKKQDNGQIl2My58zboioAgoAoqAIqAIKAKKQMMhoES74bDVmBUBRUARUAQUAUVAEVAEmjECSrSbceFr1hUBRUARUAQUAUVAEVAEGg4BJdoNh63GrAgoAoqAIqAIKAKKgCLQjBFQot2MC1+zrggoAoqAIqAIKAKKgCLQcAgo0W44bDVmRUARUAQUAUVAEVAEFIFmjIAS7WZc+Jp1RUARUAQUAUVAEVAEFIGGQ0CJdsNhqzErAoqAIqAIKAKKgCKgCDRjBJRoN+PC16wrAoqAIqAIKAKKgCKgCDQcAkq0Gw5bjVkRUAQUAUVAEVAEFAFFoBkjoES7GRe+Zl0RUAQUAUVAEVAEFAFFoOEQUKLdcNhqzIqAIqAIKAKKgCKgCCgCzRgBJdrNuPA164qAIqAIKAKKgCKgCCgCDYeAEu2Gw1ZjVgQUAUVAEVAEFAFFQBFoxggo0W7Gha9ZVwQUAUVAEVAEFAFFQBFoOASUaDccthqzIqAIKAKKgCKgCCgCikAzRkCJdjMufM26IqAIKAKKgCKgCCgCikDDIaBEu+Gw1ZgVAUVAEVAEFAFFQBFQBJoxAtZmnPcjLOsmWK0WuFxOeDwNJ7rZbAE8brj3k4j4M5tNcDqdDSeMxqwI1IaAu5x1tEYjMLHemo+U7oyyuyuYBxdzZ+J/kd1WW04P7J7E42Y7NNsZF+Pb45iOi1jVFxsP45L4IBhTFyOymVQnswdWvfBLBMxms1H9XS53w8nH9iXjnnu/aZhgsZoNv9KMXC4X3G5pT+qaIwJHysjUHMumSp5NHJNLsWbdFiQktUVIgPVvPKOK54O+NLETycncDZMjBOEhgUyj9o7BarUhN30btmYWo2P7tmB/ok4ROAwISH20wdzieJgCQvam56mAO+8PePI3kRT6eZdGWWEKhDnuOJhjepDLlsGT+TNcmb/yWkh3PRuTkOygdrBEdoM7Yz485UWMQ8g2sTIFwdx6LFCyHO7sVfxNQr8/xwmAKSgF5vjj+B0NFG+GayfjLcn0xivpGZOCqoR+f5Hqc0WgYREwkfzm7MhAQbkJrdtE1zl2/TMpSLArypGZXYTI2AhY6mgCJiH8bCcb/tyArVuyEBgeho49UhAVHkDC3YCTgH+WOQ3dgAj4+ajUgDk/EqLmgGmxiObYgvKcHZj23NO4dNKDGJASiwrOjuWZMaS63XDxI04aubBw7+xeZt4uDrkSj9nofGRm7XXee8bsnHFJB8BU8NpTjyCgx0j8+6LTqdSqMMKYK9ORsGaLFXm7NuDhKXdju6UdnnvsPkQ4qACrQspFBovIQSdhfIRdZJKPkADvfcOLcU+CV5XRyBvzL/JXjdsbQv8eagTKy8tht1Mj6tdOiHYQbD2nwNKiRTVJPeVZKP/pOri2/yCNwEsqRTNrYhcnv30a5KraXdHaym+D3LL9uIVESpfIViWE0iCr/O3T8AqBNVXR7oofiVf879H6UkZfvFXTF2nlt70D7AMegjVpoNzZ41wbZqB8yaP0Itp6iVdkk3xUyu/zuScffCZp8rc5ZgQcQ+9E2bdnwpX2G+9LfhlP6EA4hjHOHR+hdP6/2cB8ODCvEm/NSQnjMkUdy7iehTk0wpciSfYOlH8/Hh5HD9g6Ho/yX2+Hpyib4YldrdjUxKASY8mT5M3Il+AovRedD0fjvsTJ8BK3rxz+hrERyu//SL8nK342G/OqrkEQ8I41XO11WLH225+xcIMZt0w5GZ4KJ6uZjENUUvGfaKB9Q5SMed4qxvbACxn7zGwbZtZHufaNV6J4kvtSS90yvrJO7lq5GlOnLcK/poxDcssgQ0ttjK9GnEyHY6mnrBj/++//YdGSdCR3SkDejnR88k4wJtx1LsOEGGnsBcM7DkvV91SOw8Yzpi3joS9tnzZcZBInEwufvPJ779jp5QFyT53/ICCjijo/RMDElmeGE1vWb0B+qRstY+w0HbEaDc/EBm92l2Hz+vXIKypHQqvWiIuJgIudemFeLiwOB/Kpmc7KL0Nyu3awOouwftM2hEa1QOvEFkaDJnfGzm2bkZ6dh/DoOCS1jGd3ZMMJZ50LS3QSx/ly5OTkIiQ4CGkbtqDI6UFySnvYK3biyScew+4SG4KibIY8VeGzcFApzsvE5i3b4bEGom3btgiwSodlQX5OBrZs2wFbYChSUtrAzs7CKenkFyPQbsbmzdsQEBaDlNZxSNuyATmFFUhKTkZokF2X3aqC3ADXs2fPxpYtW9C1a1d069YNSUlJCAwMbICU/mmUQrY5mJSnoXTBHUBZEUwJp8LRZxxs7U6n9nUZTKEpJIc7YQ7vDk/haniKM2CK6ANzWBve30rt7jKOVIEwhacApTupBc4CrJEMl0gCuZ6zQxLCgFbk1HZ4CjYCgSnUGDMuVz482Us4iBdyVKQfR2uYo3qxDRTDnfUr4ylgPGEwhbSCpzSd6aUyvlW8JimVAdITAFu/x0iy+8C97VOUL3+eeQmHrc9DsLQ5C+ZNH1D+3xi+K8yRqZQjF66s34EKaqmFeHKwN4X1Yr4kf9u9+aCZl5h67XHUmJsCO8FkJwko2YCKFTPhyfnWm77bBFPkUTCHMJ+Fa+DOXcP7lYRWIvBYYOl0FUl2OMoXXw/XjiWwJJ0Pa9tj+ZBa+NjBsLQcCfO6rnCV/gw4SznvaW/IanIXUh7BIL8SgyQSDpZBSBd+b2V6O4h3X8Yt93fBnbPUizM4UbETx+jezGcG8d7K35Ess02Mn/m2J/BZX2Jc5o2/LI9Y+C9xLSgowKZNm7BixQqsWbMGAwYMwMknn0z81B1qBCw0pSzOzcf2rZkIiYlie/WSZUlHzCwLsnKxY3s2rEGBaJUcBxuruosEPC+/HA5WobQtGRxvwtGydSTSt+xEXqETiSnxCOKKsRDZ8qJibN+SDhdVUPFJcQgPNSOydRucdYkdMdEOlBYWo5xtxlRegrTtOQiOjkBiS9ZddlGBsXG48t7RSO0aj9KsTEy99VV8v3At2l7Yfw/RNoi8yYNdm3cgO68EUfGxiI8LNcY60Yinrd+B/KIKxLaMRUxMiKF0KmGaHq4oF2flIJf5aNk2AVZygQ2b0qk5D0dCy6jq/cGhBl3jOygElGgfFGwNHIiDsomN582XnsWcxWvYeFuQ+LqQmVvCmasF7tJcvPLMk1j0127ERAQhI7sYF141EScd0wOfzXoRXyxahYiIUORk7ERwbCuEOyzsXHKxK6sQ1952P47tkYj3Xnue/tYiLioE20h+jxs7HpefORIrfv0B1vaj0aNtBJ5/5H7kmRw0DTEhe9cOxHYcgJuvvRDHnDAWdncmXvt8ZTUgLOwAti5fhKemvQx3IDuc0nwEt+yKu++4Ebt//xZPvTADtvAYlOVnIzqlLybdeDWCyjPx6N0PwBMcQSJThozMHHTq0hl52dnIpvyxXYbinpuugsMsmvFqyTWbH1LmDe0uuugirOfEbeXKlfjoo49QVlaGFtQad+/eHe3bt0dcXBzsHMhMZo9Qo0Z2QlpJdMt3k7SReBVt5m/+LyWZCxuMgFH/5XUWSV0CyhdeCk/oMDh6XEaC5hXbtfldlP/xNhwj3oUn/V2ULbgFlg53kaxfivKfJ6Biw0I4Br4BS3AOypa8AfvAB2j+HASP2ECXrEfZN+fBY+9Lze9DJJIxTJry5P/JeK6kn44IOOFVEuFMpp9ITfBYOLelk9BSwLAhBsn2ZC1E2Q83kB8zDyTJZT9cRlMYGzy562BuMx6O/neSLAcbwrpJ7Mt/nAhX3jbYut0LW/dLyY2ZHp1LyPqPNxpxeG+UUiN9HPP1Akyl61G68F4S5dEcmNPh3PwDCf2TsHc5lUm6WI4uOFc/SxxI9kW7LQDSySSef6kl7wd3/g44N71Mfw/CnHIHHN1ON/w4hr2B8nnUnps6wzHobpiDQo37ntxlzMu/qGSPQ8DI2SwiKYNEVCy5m3j1g72rN7yUg3v7Z/R7PRDcD45jnufkIYE32cZLcyiOCaVzT+XP3nz2JCxhogRgnjk5KPvxOhLu9SzLxhu6REdqF9ZGJ9rPHTt2YO3atUbbyWa/FRISgi5dumD8+PFITk42/DXUHwdXocxOYtPM+kYziXT6X+vw0lOfwmkPQTDHuOK8PIQld6NttAUbfl6CN16YBzvNNsry8xFJhdP4609GYEkOpj/wPpw2mlVxpSQjswTtuiSgMKeA5pC5iGnXBdfdfQoKt27Ga8+wfVnZ7kuLUWwJxtXUSIeVFeKnb/5A58HdsWPxYrwxexmiooLhLKvAzt0FOOPasRg+OAmnXDKK7cyNCt4PCg9FaISdBFtWybxt12tMXo6PXvsMi35JQ3RsMLIyinHShNMwrF8c3pn2IZatzEIUl4uzckpx8hWnYMQxHbD4gy/x2XfbaIbiQF5WHsfTKHAIRwGJevrOYlx0+/no3zsBFRWSljp/QaDxeit/QcAP5RAb6HU/z8FnC1bg+rsfxNG9U7Ds28/w2EtvGzP1n77+AAtW52DyQ4+gU8sIfP7mS3h9+svo3fNxDm5lCIhKxp2Tb0b22u9xy/3TcdKtk3H8wDZ4+JabsXTZWgzvnYTE9t1x7cCT0Ck5EUvnvofX5yzE+aeMQEVpCYk8tWLsD0o4o+90zBhcfsEYpK1YiDsfm4nMEjvGjDkRP3/zdnUtMzXwbnZir77yMuK7j8RN15yP8twd+HnZX3AV7MLL019Dh8Fn4/rLT0fhzo2YfNdkvPNZF1w5pjOKisswauz5OHNEKp6+7w6sz7fjoQf/g4xV32LyU/9HzXwJWkU64GqGTFtI9rp16/DXX38ZKxoNVV1FuyJphYWFoWfPnti1axc2bNiAb775xjDtSW7bEZ3D09DVHoUu8RVcjZAF2UZyhja5DQJGf0kZSP6F81AbWrHmHRKw3lRn2WFy7qYpxc3w2FIR0PMyuHd9ifJlL8CSMgG2zufCmrkMroxVsCUcS1LbGpZWx3L91cbvEXDu3AlLXDu4STLNsWNgDg6mWcokuAuKYEnsyQkhNdNHPUBCWIjSb66iDAlwHP0E7L1vRNmfX3jTd2Wg7Pt74M78y0sKOXE2hcWRyFJRu2Oe0U7BFR/DlXP1p5SmHkG9YO9/LwnnVpTNu5umH/1h73cz7L2uQdnqn2gycxknBvNI/p+lBvwS2LqeDWunH0nCZepD8sxJhqPTvziU56FsMfNewnYcEEN5HDC35OQ49VQ417xAnD6Epf11sHebBNduht9J7bJh+lIB19pZsMR05GT7EuPjKd4J16bZDPMeKtZ2gK3TCGq7b4KryAPHyHvZTxDn+VdyBaAPJyS3wt73VpT+PINYOmBylaCcxNuV/huJejtUrHyOaS2GpS3LoP3JJNfPwdz+Rn63IBm/h/42w9b3QaZPrZw5CvY+D8ASxEWL+edT0RAK+1BOFCT+eVd5cWuEv0KTil0O/L5kC1YtfgOrViyjomKbYXaVmpqKDh06UPsYY7QlaberV69uUCnzy2me0CMKLeKj2R9XWdlo0FQbP3IzTaM+mzUfjtYdcPMtJ8HGVZ+Zj89GFs0vKgpyMPvFuWh79BBcNG4QinftxLR73sQXn/6BsSe0RilXgYdcfCJGHpOMmfe/gk3FVtx4/xXIXbUM015YiMy8MoQFBOCoE4eic592CDCV46X7Z2H5qh04uj21yUWlNGeU+S0PDYAdZ/7rTLRrFYp3Hnkdq35dj2FDk+EiwRZnD7Bj+dwFWLmxBOMvbWuEkftWTtRWLPgN3/24A1fddxFS20Vixc8rYYsN4Xi8CL/8kYvrHhyH9q1CsOC9r/DRy18itbusNDsRQHI9YfJYFK1fhccf+ATH3nQhhg9MxCv3vYKVa7ajX5+WTEGJtuDsL06Jtr+URBU5xLYsbeNmtO48AIN6t+fstAKpffogKvpTdqYurF+5AX2PPRFdU1pQ8+jEiJNPwWdz78eO3fmcMJvQtW8vxIYFoIx2ltFxrdC1c1vYSD4SosJR4GRnTMJasHMrZr79P4RHRiHYVoEAB20yhcgyvJBs0dTYgoIxYAg1TiRVkbEtEOYQEw7asInmqQbpFdvrgpx0ZORacP2ZJyGA5McamYDRJyRj99pfkVsWgn+dPgpWLolFt+mIk4b3x9xVG+A8oRNCKEPvPl3Y+dgRzqW8du26IyY0AM6IWITRpKTqyngVmJrFpRDgkpISZGRkNLitpxBtn22/1Dn5LVoYST8zMwOZXL4vDJONuBxEhHE0FtM22Go2id+b1GoXk2D2hzVlGD+noILmL1J/K6itdW78GNZ+J1BWF+2fH6Z5x1pqaQthSR5NG+9eKN/2LWxtJpJ801wqIp6bCf8ivxsEa3K2oeR1bZ8Dt6k7ie8Y2lX/h6YWaxnnLJLARFhCaCPuZpl0p/mKh2Sfk2PE9qfJxgKjXjrXvwrX5k+4dzOM6ftU6d7Bz+SIpJ8qpEhslLmaYwpLgjnQgYpfnqWt+TyG+x2uxDGw0qzCkkizEZMb5UsfYbJ/cvMntcVtxnBCMBiufNplc8Jh63Mr5bBygnENJxErOYHoStmYjpu2quF9DLnMMceQEPeXxmmEsbTgUnYaN2IK0abG3p3+IUq/WsYJx/HEaBC/j4Y1lVrzsgxasmxkmGOZ/mLKRlMcTkCcfzCf2+bz90+Ule07gfcD/o+/maX1r8C5/l2yjVjGHQRru5NZRqdzFYL1x8OJhSUWpmCa8+QtJZGfwbIsoQZ9CG9fTPmIRXhLVrEipj+J/qllZ/9giunDzdpc/SrNYxqVuBo5O0x/mC83yzuvsBQZeRnIyspCcXGx0TalrZaWltLkLsfoH6XtNDT5LSzPQctymitRrmbjWO6u0gLsLijD8LMHIjSAY0RwJLp3aYmF67jwwVWFAksAjju5jzHeRLZqiWOP74QfN6ehwtUK9tBIpHZrZSguwsOD0T6uDSLDqMiJCSMx9h40IGPc8h9IhL/8FRE02ygsYXWtBFnKWZyUbUJKMtolc2LI8bBFfDhyCys7Rfqx2y1Y9f1iTH/xOxx9wUno1aXFnlO6KDG2bEhDhyG9kNopjgquMqQO7AG71YO3P09D6oi+6JgcifJyFwadMBDffvcXdmYVGe0guUs7rmQHwMMDCyKjI9G5ayLHThtNT8KQW2NcNgTVP42OgBLtRi+C2gWQjQ4V5d6Zs5WEh8Ol0ZjlSzZ4lLJzF22ekKGSslKU0bSEl4aTIwDFv4eDrMy6vRsPuVGDjdBMrV3+jg14739f49yb7sXwvm2x4KOZePf7Xd7A1f56N/NI2zUIdrVne39II5fJgcgs9q0l1KTJ5gymTiFEXgs1eOWUkxu3qKKS4bGY5I2swohESLuT8ktnJdfGBkg+MdKs7Lf2pta8rmQzlWiYe/Xq1eAZF9IgS+DLly83iH0widRll12GTp06IaVte9hWPwbXivmoMIVIUTWiY0WvyELF8idpy0tSHDyAp2sMIxkdRjMNEmFxMhZSq+oVlETYEcq2QA2vjSYZhnkETypJ/4F8byI1w1fQfw7K/5xGzfQzsHUZRyK3Da6cdXCX/cWNhDtoJ9yL3O9EEu6nUP7LE4yXZh+07XZtm8v4rLRnnk8N8kZqu0kixRmbLpl+5aAsRNbDkz/cJaWGPbZlw6c8aYQngRBHc+tzSPRbcOUn1xs0QCa9bA8WmqpwiZuzA7YriVfyEebNhzWYSbD7pqbciMRgtmxTpjDaVIut+k+V9yVKKSzGR+fOXsoJw3YDA9dmauQyv/emYzwkPvGnwOyogHPtNJqMTCWml9EU5wmapKQC6ZRD0pHCF6IsjvbURtxm5pXmNVS58cO0BH8jc5y4hwyAo+e5tEv/H8qWz4S147+JZxtvONHEMw6TPYxZofx2r8kM9f4SAcs5l2YmXAEQcrXjW2JOcyFn8V5cvb4O21/Jeoi1BCcN64STUm8xSPbGjRuxatUqYwVoJ1dDEhMT0aNHD3Ts2BGhoV6zmoYSsAg7sYvmTM3xNAuPy8OJDccUjj0ejok+5Y+x2ZGmE+VUQlnYhmQ+VlrEiSwne0ZzlE2HVDiJf+94w3bAa9+GQxtNlxZ/9SPSPRG48cFTaZqWi5cenm1osWuWo2yyNA4SYH33hRcibmfT/O3T7/D2rB8x+LyTcM45/dlk2Gb4zEZtNkXmuGjmFhO2X4Y1DgmgeRnnk4apZlkhTyOiX9mMWVbO9sj8SL7EuSm7jK0++X0bOH3p15RRfzc+AqwO6vwNAWm8bWkbm/Hes/jgk28xemgqfvziU6TtpP0iSUKvwQPw6XPvY07fzujTLgazX58Bd4vW3NEcjVXURPoanDREr12YN4dCXOV0EqOzqWzE8sRMm095Jk6+fad8GCeWcGDxuuonhQiJNzoYdgR//DgPaaUBGHVMH3RqF4EZr05HzPVXcDV/E+b+tALnnn8W2iba8forr2Pivy5G7ubl+GD+7zjpittA/YEhoy8ZI31ZlxNXKb/vmfdm8/t7OE4uePPNN40NXLIJUuyyhSSIXXZVR+UKnC4ZCarebYRrGW8C29A++BXDBMMU2oHKWJLdwq2sMt7ByBhd2VbcO0imu11CLe6T3Oz4Fknu+fTL83W2f8sNeivgyt4Ga3yy4c+961tqbXfC2qIVCfRXcBdmwtr7OVhjwmlyMRNOMWeITqGCfCvNHFbD2rI9NcjlNCnZTa04ye1fCwgQtVvijEbmvfT+Jmilqzk5mAXHgCtpdvEetb2fUN5gmn+MpbjcUDmPZhbZu6nBvdUwT0EINXJxyYx3KlxbFsHTleYiAx6jXfMbMLc6m5pjO8q3zmE7aWkkUfErNc8RJ9Mk5HzY89agfPV8Nm5qqtm+XemcCLjPpZa4NQnrAm5M7EdyHwonzYMMrETzbYmkecpk5p8aspSvOBFYx82Powwi4KapDZDCTwDlvRbOLfP5fDuvryGBICkO6AprYke4Nr5EwkzNm8ymDZseQzTjj8fQ3HPCYHQ19ODJo0kPJwSJF3KC8xInNsS+7Snk7STcFRvh2vUHbCm9ScLZJ+VshyX5DFrVvG5ovo1JyN6oD+uV2IuLppHTIAQFBRmbh2UDsbjt27cbmyAXLlyI9957D8OGDaOp3RjjWUP8KRVlDMcLcw2sGyItv4mTddUaFIIOSRH4+p15SGl5Chxl+cZmQ09cKkJbxKFVhBkfvD4fl04YhvytG/H13L9wzPixleONd6yT/NQcb4zTSTgmSS9ikF9+G02ZY5J3XBRFkDe8QdJ9YxX9GaYkHLM8PALw09c+wcf/W4puxw9G9440C/llNUJjornSbMK8uSvRY1gfrlJ3xJcPz8GcOUk4inbVP325CGEdU9G9XyfMe/o7fN+7NXp0jMCcGV+jIjAGSfGh2E2FVNXx3ScLk/emX0UeuafOPxBo7CHTP1DwMylcPFavVZdBuPrS7Xjn45n4YU4QTxZJRPuOPEGEnUD3oWMwfnc2/vf6c/iIamxbaBwmTbyax+yZESybI8KCjcZocwSjZWKc94gjdgDhMbEIiAxGSHxbjD1zBP732rP4jiYhQQ4TElrHs0ehn6hoWGi2IYQlhh1WIGff0qGYqRlISIyHg6Yc0tCDgiKNE0zsHMdX/PYjlhaEYvixR+PyaydyqewlPHL/FPZiTqQeNRKBIRG46vqJeOmlV/Hg5MmGndkxp4/DGcP7Uou3zbvRztBIANGU0cTlPDnqyGxzUK5Eagdk1FbXkAjIyQhnn302Amib6N+OZkuFG+AJbEn7aZp1yIhIAudK42C0dCpHx448uWILyR9NSsysxzlzULboHth70ia53/0cBDNRsexBEsVvGZQ2yds+56bHk+EiYfU4aR6x9UtYAkeR2M7hAEstWc5ymJKupH3wdNbnUpqDfADn9rk8smcd0yUp7XaHIYOncC0nsZSFp28Y6QvZrEm2qYF2rXsMpTyFw5Z6OSwdLqQMHDhzfqM2nasFOxfCvaiEdtr3wSomKe4SuDa8zWfTqWHnxsyf7qC99kTaKUs+aDrDMM5Nc2BOOMebZvF2yv8wzBFtOKEgqd65xjB3ATdweTJoo77oUdh6XAH7kP8y7mL6fZ8ysgEbpkBsY+4CVPx+O0zdr+U538dSm80NXdQoO1c/x0nBB9xUOpTK9bNo330xT1Mhkf/hWtiP4lGFqTczjjLacnOT6e9Pswza8UxzKQNqwLmZ2lP0K09YeQ+2DmMQMGIENf/USueT4DOMcw0nDpwk2ZJpMmIPp3kPyX28EPoyykJTGBNttrvcxLkC5Sum5nYTQa6Jqx9V2FatWkE+I0eORFFRkUHk/Ei8JiOK023BiZeNQd4Ln2P6g29zs2EIIhJiaaXElR6uAl1w4xmY/dIc/Pf+Nw3tdd/TR+L44zgR5EQ2miYeFk4+OawhjOdhm8MCec3JCldmY+OjOEc0Y8DoIVg77XM8N+UtREbS7CmQ8YdQO87xNqZFOH1wQywnWZExXF0Tck1kg7jxMio4HMWZWVi1ZCtatIlDHk3Z3n1xI1ennehx4nCM7h+GBV/9hki+f2Jwv564cHwBvvhgLhZ/xNNLuCJ0Rr++6NCxD845Px/fzPoc31KRZeUpQONvOhERgWaeksJ3XLjZr1EhZqGZWUxilGHSInkJiWS+KKuRsSZT0k0jIyaSKKkjfufkXN/m/dZBLjFx93RhQR5Kyt2IiORyMomrzLWFANhoi1mYn4dSNuBQ2jXLiRBifiEdBkciw48UqjRIMevwXYv2SsJbSV4LeBRgGbWUkREc4GhPaBCLKuFlti9hhcuIk9++Wb40Zq8pCrWGnBi4SMxFXjln20Q5c7kD3ENtWmQEl4Rp/uBd5q5Abm4B95zRFps7seW+d8muerxSIUUWSm+Q+j1pihDN0Mk5vP5wFq/YBztXkMzSbKFRnZCuPbWyUhLf2yJFgyvPjXpc2bWJeYWtBTkfNwbyJAxPSTq1t/Tni0O0gWIKUu03G4Y4ebOijaYNgQm8prlWyTbelLopz7nhjxspqU703qedtaFBrpk+fe51lEnitEZ44yTJ9ZRu5z0JSx2pnBltCeGzlrxmeiTPRn4kTsmjLYb5iGU+aAdcSnMv37nevjQlH5IfwcHAQFJmmj5tsp04BDA8ibo3PHUtVYmrpGEioZB8WWjaJUfuGemI/pZ9iz3eML8xcBDNszmUfhMZfyll3epNW9IXecS/Mbzwm/9NQcn8w0XvkjTvc76Ey9TiBNrJH81TUT6h/wjamU/hKSNulHx+kmEWxAQZLonpcMJPcx44JU0pu0Z0PHbQ2u16bn69oxGF8CadVb4J2eVbm5dGuxJ1OTJWTu4pyGV5UEEQzGNgZQyUsUOekWGjgEfHyv6J0DAed8nfUh1FUeQzw/DRn73jDasX27OYbMj4lJ9bDEdwIAJ5Trd3NVhWf73hJaz0MIbJJL+9ccnYK2mwwhv3jC/jj+/sayHdVk4u6ZO21WbjmMDiEieCQoOoyJJ9MR7jfjFlL+PKSRAVZw6bHIXrNXeRyLzy1pYXb/p7U20eV272b1H2JETbU/wyw0q0/bJY9golDUo+voa794m3sckzIdfGeFb14QFcy1ndJmqxfUtR+wsiHUjVdIRuSEcjPYtxvechOyrDnqxm3N77Rge1x+9+Ut2TyH78NeHHSrRrFq5R62rclIric/K86m/+NEinDH4kgAYJ9PmV75r+a/5mOCM84xQSucfRnxBYccZ9X5o1w3u9VP9bV1jx5XtWMz15JHmoLR9V05RrcSJP1fvy0xe+lrgliOF86UtYH2n2PZL88r5xJKDc8/mtGZ+ElfSrON9kxoc/JxXm1pfTlOY2TiBkcZUfripULL2PJi2fsqiE3Pvi52U1jKvEe7gvlWgfbsT3mZ6MNTKc+EjzHs9SJY1Bq5Znezzt44JhZRjzjlf78FfbI0m7xn3fkOcds6V9eJ38NsSkB58feVLX/cpg+lUFAX8n2tK7qfNjBPZFSvf17ECyVF+CXrUTkPj3dBXSQVRLsCbB9j2s677veS3f1SOuxYPean4I1BzCaiJQy3OD3ImWtTZX03/N37WRc4mH/vYQzqrx1gxf9Znvuq6w8nwfz+rMR9U067qWqAWDunCQtMXtK/2qE419+a0qgxHp37GSU062vY7STJrxRHah5Rr3l+StpCZ7RyXJ3lf8lXHqV7NHoE5FEceOv5Hv+qDFcY3K64NzknYdIWvK5B3H/+65rvt/96l3/B0BJdr+XkIqnyKgCCgCTRUBntjiKd0MT9p65pDkXF5E09imIU0Va82XIqAINAoCSrQbBXZNVBFQBBQBRcBAQFYF5KhCdYqAIqAINEEE9reG2ASzrFlSBBQBRUARUAQUAUVAEVAEGh4BJdoNj7GmoAgoAoqAIqAIKAKKgCLQDBFQot0MC12zrAgoAoqAIqAIKAKKgCLQ8Ago0W54jDUFRUARUAQUAUVAEVAEFIFmiIAS7WZY6JplRUARUAQUAUVAEVAEFIGGR0CJdsNjrCkoAoqAIqAIKAKKgCKgCDRDBJRoN8NC1ywrAoqAIqAIKAKKgCKgCDQ8Akq0Gx5jTUERUAQUAUVAEVAEFAFFoBkioES7GRa6ZlkRUAQUAUVAEVAEFAFFoOERUKLd8BhrCoqAIqAIKAKKgCKgCCgCzRABJdrNsNA1y4qAIqAIKAKKgCKgCCgCDY+AEu2Gx1hTUAQUAUVAEVAEFAFFQBFohggo0W6Gha5ZVgQUAUVAEVAEFAFFQBFoeASUaDc8xpqCIqAIKAKKgCKgCCgCikAzRECJdjMsdM2yIqAIKAKKgCKgCCgCikDDI6BEu+Ex1hQUAUVAEVAEFAFFQBFQBJohAkq0m2Gha5YVAUVAEVAEFAFFQBFQBBoeASXaDY+xpqAINBEEPE0kH5oNReCfIqBt4Z8iqOEVgUOLgP+2Sb8l2iaT6dCWgcZWLwQ8Hg/cbne9wqjnhkHAX9qCKbhVZQb9t0NrmBLQWBUBHwLeum8Kbu270ajfVpMD0KGy0cpAxkmPW/vDRisAX8JsA1ZTgO+X331b/U6iSoGsVqtB9Fwul7+K2GTlslgs2LZtG3bv3o3+/fvD6XQ22bz6e8akLOTjD86afBpcafPhTpsHeKRd6gjvD+WiMhwuBEioTGyPrUZD2oI/uBBrCxS5slHMDymftsjDWChmsxm707KRuTMH3Qd0gEvHycOIvjcpmeKY+C/YEg1pC/7q/JZoixbP4XBAiLbMGtUdPgSkA1m3bh3++OMPDB48GPJb3eFHQNqAv5Bsyb3JHg7HMS/CvXsRPOX5cufwg6IpKgKNhgCJrD0MlrhBgMU/tGcWkxUJAV1R4sqFy+M0SEejwdPMEjaZTVix/jv8sXQzRg49BW6LrgAf7iogk0sz20CQJZx13z8UUrVh4LdE2yesPxENn0zN4XvVqlVYvXo1ysrKEBDgH4NKc8Dd3/NoIsGwJA73dzFVPkWg2SBggplEI6rZ5NefMrpx9XasW70JlrJQBAXY/Uk0lcWPEFBVpR8Vhr+IUlpairVr1yI9PR1btmzxF7FUDkVAEVAEFAFFwC8QECXUmrVrOE7uxsZNG/xCJhXCPxFQou2f5dKoUol9dlZWliGDaLbVKQKKgCKgCCgCisBeBGSczMjIgJj4yeqvOkWgLgT83nSkLsH1fsMhsGzZMiQnJxv28WKrrU4RUAQUAUVAEVAE9iIge5h84+T69ev3PtArRaAGAqrRrgFIc/8pR/pt3LgRnTp1QlJSkmGjLaePqFMEFAFFQBFQBBQBHrrEAxo2bNiAzp077xknd+3apdAoArUioES7Vlia783sbB4VVVyMtm3bIjg4GHFxcYa9dvNFRHOuCCgCioAioAjsRUDGycLCQmOcDAwMRHx8PNasWbPXg14pAlUQUKJdBQy9hGFr1rJlS4SEhBjnmHfv3h3Lly9XaBQBRUARUAQUAUWACIhNdmJiIkJDQw3tdo8ePbBixQrFRhGoFQEl2rXC0nxvit1Zly5djLOz5QxzuZZNH3ISiTpFQBFQBBQBRaC5I1B1nJQXusk4uX37dpSUlDR3aDT/tSCgRLsWUJrzLekwevbsiYqKCkOjHRERgeHDhxsbI5szLpp3RUARUAQUAUVAEJBxslevXnvGybCwMIwYMULHSa0etSKgp47UCkvzvXnccccZmZdNkb43co4ePbr5AqI5VwQUAUVAEVAEqiAgpFqcjJM+N2rUKN+lfisC1RBQjXY1OPSHIqAIKAKKgCKgCCgCioAicGgQUKJ9aHDUWBQBRUARUAQUAUVAEVAEFIFqCCjRrgaH/lAEFAFFQBFQBBQBRUARUAQODQJKtA8NjhqLIqAIKAKKgCKgCCgCioAiUA0BJdrV4NAfioAioAgoAoqAIqAIKAKKwKFBQIn2ocFRY1EEFAFFQBFQBBQBRUARUASqIaBEuxoc+kMRUAQUAUVAEVAEFAFFQBE4NAgo0T40OGosioAioAgoAoqAIqAIKAKKQDUElGhXg0N/KAKKgCKgCCgCioAioAgoAocGASXahwZHjUURUAQUAUVAEVAEFAFFQBGohoC+gr0aHPqjKSLgKc2CO38dPMW7AGcpYLHDFBALc3h7mIISDkGWXdi+ZQty84sREROHVgmxhyDOQxSFx4WcnDwEh0XAbm24ebXL5YQHZlgt+0vDg8zMLIRFRFIeyyHKpEajCOxFoDg/G1u374SH7bx1UhuEBNr3Pmzkq7LiIpRUeBARHtKgkpSXl8Nu33++83MysC1tF+xB4WjTJgn2f9wkPXAXpsFTsAGekky+o7wCsAbBFJwIc1g7mByRDZpvjVwR8EcElGj7Y6moTIcEAdfOhXBumA1Xxm9AaTbgIskm8YSJZNASANjDYI7qAWvbsbC2Hg2Y698cSvPS8fxTj+G3jRmICglCdlY2Og4Yjhv/fSWc6euxbHMOjjv6KJgOSY4OIpKKPPznkXtw2pV3YVDHxIOI4ECCuPH64w8gN64bbr5s7D4CuPHJrBfx+v8txAPPTEW3JD+akOxDan105CCwZOHnmPbym+R2EfBUFKPE7cC4K/6NUUO7YcHcr5HUfSCS4yMaLUMrvvsU7y7KxH8euK7B+oSsTUtx539ex8S7HkCX1uG15tXjLMf8T9/GG+/PQSAn4WWF+QhL6IDbbrsZrWIOYhLgKoNzy2dwbvof3DmrgIoC9rdl7G/d7G/Zr1oDqNyIhrnFIFg7XABLbL9a5dKbikBTRKD+zKIpoqB5alIIeAo2o/yPJ+Da9hU7+xISaGp2DHLtqJJPD1CWC3faPJTv+A7O+MGw97wF5pjeVfzs//KXbz7D4nX5eOSJp9A2Lhzrl/+M97/+BeVOF1Yv+R7vL87E0YMHwFGp6ZUBLosaZntQCMKCA40EPByMRBtsJhsvKMhHcCgnAHxSXJiHwpIKREXHoKoyurSoAPlFpQiPjILDVrsKSvwUMGx0mBllZaWocDr3ZKakKB+FxeUIj4qmBss7BXC7XDBbLHCWFSO3sBTR0VEGEcjJyoQtMBQhQXuxqygrQU5+IYJCwqgtlPtm9B50NEpD4400XIzLwriKmZfichfjimRcLnz+5st49X2WiSUQbo6/6hSBQ4mAuzgTr702A6nDL8G1F53App+Lz99/25j8Osvy8b+Zs3DCNW3Rhu3UZPLW+8L8XJSwjkZFR6OyKcBXfyvYFsrdFgRLHWcbzeJKjMURhIiw4Cpiexj//7d3HvBRFF8c/93l7tJ7J6GEklBDC70KiIqigooNURR7AQULKBYsCCgWrNjxb0UsWOkI0owEAqH3NFJIJfXq/71NLo0kBAi55PKGz5G7vd2Zne/ezL598wppbh0c4ePlUWF7xbcl++icaVw7mFFYQA/8ZcWMTKpXrXUiLbd7yVaLBSaanhxoQsjO5DZd4e7qBH1hPo37Yvj4+Sjzg7WKnKwMGMxq6oO3st3FOxhXXHEZ/L2c6LTNNPXRbEIKhoyMLDi6lIxli0WP/YcTMW7yw7hiWF/kp5/Ai0/NxHd//o3pt11prbpOf00pm2DY9TrMrNCgc6fO0HxLfFmZYS3UPq8omo58R/PyH9C0vhra7tOhcg607iF/hYDdEhBB224vbfPsmCl1G/RbZ8CSe1TRorBQV32hG4FyMygRIM0nN6CYNDHaqBegaXNN9YdUs7WwqBhmoxr6oiJY1L4I7zEIT9Pr6H8r8cUPq3Eq34y5Cz7ArKcewKn90Vj47qfI1ZthNJgwfOytmDjuEuSmHMLCRV/C2VWLnCInPPfCdPzz0xJFYHeitVyVsw/unzoNHUN8Eb32F3z2Ld2onBwVIeCWKQ9iaI/2lc5s819L8em3v9J9zg1BwUHIyNUrgi89dWDNsi/x9e8boNFooHbyxF0PPoqoiBbYumIZ/tq6B0Z9PpKTU9Eusg/8tHrsjNuHYpUTHn5iNnq3D8J/65bj8+//AMvJBcUmXDPxbowb0ReZaSeQWehDW81Y/NorOK1yREpiAjKzshHeewQee/h2GNSOuOfBB/HrF18ogkSlk5YPQuACCZhNBhpXehL0jNAbjPD09MONUx6hWo34cP7LOE6/xa8WvwaVdgYuj2qF7z9bjL827qCxoIaLT0s8NPVBtG/hh7+++RA7EvKQmXwCQ258CMM7uGDRW28iNdcEA5lkRF1yFe68+SoYc9PxwaK3cCAlB2oSXIPb9sEj998BD+fy22ph1km888Zej+kAAEAASURBVPYb2HOCzKU8fODhqKfnfjKhoLPKTovHojfexIlTeSQHm9B1wCjcM/kmuOgz8frrbynjJTnhOPLNThg+pC8O7v4PickZ6BR1OR6fNhEGWk375IN3sPtYGixGAzxCw/H4o4/AS2XG4QN7MeyqK5EUtwHvLl0LD60ZJ5JOosCkwV2PPIlhkW3w4OPPlBF3DmmHbp1CcCwrq2xbXd4YDv0PhphXSjTY9LBRc+H5lpQCGpqP+TrRceaMWOgGvEarit1qPky+EQJ2QOBsBpV20EXpQnMhYEqLRvGGe2DJO1EyoZ/L4ixpXyyk4dZvfgzG47/UGdmAkZchItiE6Q/dh6nTZuDDL75FUnouWncbhGsvG4zQjpG4964bSVWdgvnzXoNvxFC8On8Bpt15A5Z//g5WxRwlbbUFB3bthHurrpg27QEc2vQbPv1lMx584jksXPgahkd44K23P0J+UT6+/+I79L1qEt2IX8d9N4+Fjm6qFUvmiVi8/cFXGHzNnViwYC5G9GiHvKxcaMle82jMary35HfcdPejWDB/Lga388Zr8xYgs8iE4vxs0nCl45a7p+Gph2/DttUroAmKxCuvzkWYqx6r1m1Xmsk6XYxrbrsfC0iDf9vlvbH0y6UoIiVWdnoqUlOzlX1Oxh9HZrEbZsyeg5kkYMdsXoPDJ/Nw7S13YmTP9nSfLdeuVzx3eS8ELoSAxj0QN1wzDtt+/AhT7r4Hz704D6s3xZC2V4ObJk1Caz9fXHvrFAzu2gb/kNnEtyticN+MZzB/7ov0GycTqwXv0sOrBQVZKdh5IJHGySMY0zsEixa8Ak1obyxYuBAvPTMVO1Z9jxVbD+HorvXYejQXz728APNfmoPI9iGwlGrKS/phxo9ffIjYJCOemfMKnp5xPzRkvmYwq0jTrMfiha/ilDYEc16Zh9mP34+4dT/g6182kKWFAxKP7IdTcEe88PJcRAZa8MfaaEy8/0k8+cAt2LntLyTm6MkSLg8eQeF49sVXyDzseRiSY7Fy2y7Sahtx4vgJFNEwM+oLcWDffvQceR3mzZuL3i20WPn76jMwpx+JwZptRxDVo+5Cr+HA5zD8+3TJqmGtQnaV5pgR2W2ziUnx+in0d3+VHeSjELAvAiJo29f1bLa9seQlkib7cUBPwh6bipxPUWy0TdBHPwvzqR11qsEjqC1enP8mXp0zCz06tABrk6dNn4WE02oEBZADopMrgv19kXZ0HzLNvpgy5Wb4eHogcvBlGNM/HNFbdtNqqwXB7Tpj0q3XIcjXHbu2bCOzjkCkH9+DVWs2kBNRIFKO7EVylgHdIsOw+scleHfxFzC4h6Bf9/BK5xm/fw/cQrrh1nHD4eHuiWFXj0XrVn7Uhhm7t/6LTkPG4tIB3cgZ0ZeE6inwLM7AofhMRbnfb9RIdG0XilZh7REc0gaXjh5BZh8B6NymJcykuefSJjQY//zxLV6Z/xoOpRfAzUmrmIGoaXlazbYvVLTOrrjmpvFo4e+N9l27IcDNFXpanudiNFV+MFA2yn9CoF4IqDHyhtvx7nvvYsrN18CSn4rXaVy+/9VyeAYGw5lWcfz8gsncSYutMbEYfs0t6NulLTkwB+POu6ZAn3kIyTm0QgUtrhx3M/pGRsCQm4i4xGwEeLtj49rViD2QjCBPR/y7eQt8WkZAV3QKC+fNwx9/x6Df4CHwdKpgymUpROyxRBLu70T70EAEhrbFNaOGQUtjsTA3BXvo4fMuapfHSZtOUZh47Sjsit0KA40RR49QjLtqDPzIbKxdaAv06jMQncNaoH3HjnD3cEKx3ghnT39ojVl4+7V5+PSbX+Dq6k2ra/wQq1JWsHg0sklY206Dcfmg7vD08kP3LhFk3kFa/wolM/EAnn/pVbQaMAZjaL+6FBOtABp2vEpNkQjBmurzKSScWwqSlXmbHdalCAF7JSCCtr1e2WbWL0PcIlhyDpbYB1btu4U839kxp9KLbzakiq1a2HGHhE/9zvm0f+UbUtVd+TNH22Abyu5RAzDlocfw4ftvwNWQhuidR+j+Uz68LEYzaZo0lbz6HbVky2gVPOmuaDWjtpCBZrG+GEkJKUhKTEFWkQMm3HgtLUk7YdL0OZh65/VQF6bjzZdJiPj6z0qnZSahXaN1RNmtj7potUc1G8wU6aP8IUTloIGWbpRsx8nFbC4RhpUIIlSP0UDclO1s5+kAvhm+/foiBHUcjAfuuRP+jhYUkvlIiXit7Fr2n4mWsrmYqFNMuZKiT/lG/hMC9U/AQKslAaFtcNnY6zDn1YWYPnEMtv29Aln5ZLJBP1RL6Zjnh1snp/KxoNVpFeHUTBpt5cfKRtJUzPRXRYJx9qk0JCalIT4+Ce16jcCQPp0R1DoSb70+F306t0HMht8x7YlZOJqeV94paoMHh6NjeTvWscJjjn0idLpyMxNHsgXnVvkwfmMsXfkx0TmxaQkXI/3lrx3puG2rluKXzQdx6133YezIgRT1KIfmv/I5RzmA/uO2+BguJppvrPMBf07a/x+enjULLu2H4JnH7iNfEt5ae7EY8kuEbFMB9a/qAdSSmZ0gS85XiTrCTujsK0NafKVjFasnYdt8ajsM+xZX3CrvhYBdEThzVNpV96QzzYGAKXMXebwvp+XICs431o7TTVLlMxIObSfT646SV9gkOLQkhx8HEnTLbkHWA+gvmZGYUzfDmLiiwsbq3y7/3yLMmvsO4lNPwWAoxoljx8jEQw8vH/LcpxtkITkv5RUUwqd1O2gNyVi2fC2MdONLOrQTf2zbg06skeYboXJ3LWmjXbcIFNExw6+8hjTgt5MWbDC6RPZGoKcKq1asQuuew/HIjJm4cXQU4naQh3+FEtSmDU4dj8HKzfsULfb+6GgkkV2nigTqcFoW3rX5D8QePUlNGrDql2VINuvQOtSbBGK6gVvvxlRfxfOxfmGm/hXQPbRnnz4ICQlFVO/ucCQ5QTmMDrYeX+nYqnVV87nC6ctbIXDeBHJTDuOpRx7B739H05ijcZeTiSPJyXB0I6dfMscw0W8+nxyB9aQN7hbRFmt/+RHHyL7aZCjEz0u/hV7rT2PMifYr/y27kmNhS9Ig67xDSfs8SXlFdmmP/v17I+ngTrKPzsQNt96Ol56fBefiVMSnVbBxVjsjjLTVv/+0DJnkvMzmWZuid0BPA8aZVqlCXSz49rufFIfh3PTjWPbLSrRt1wXs31xxDPH7qp9VtC07Jwv+rTogMjwM4V26o21IAD2ss0b7zOPLoZb2jebFaIqAMuPJ5+HSdjAemnwjinPSSViv8KBQflCld8ajP8CcubualUN6YLdooW5BigCvjiRcF0Pl2RuaLrOg7fEcHFqMKKnHOlFYayVh20hOkubcY9Yt8lcI2BWB8sdpu+qWdKY5ETAd+YFMRnJL7bKr9JxuKOrAy6AN68d3H3qRBtY1BCqdEUW/joaZbKdJtVTlIPpIx7GHvKbVmGq0NuW7R/YegH+2fownHvsXAb4eSD2Zij6jxmFo99ZIO3ASuUeXYzqF2Zr59GxMe3gyFr73MXZs/BW5pCHrcsn1uGpwF+Qn7ybNlrZMM9xv9A04dCQRs6c/gqAgf4pqkIHBV09Ct/Z+2PffBnz9/c8IDPBEWlomrrvjofKToXctIvpj4tXD8dmbc/Dn0iDSolvIH5SiJJC2usugKzGOnBsXPDcTfj7uSMvIx53kDBnspsMeYqAtjWvN2msn0sJZtdAOpHnXkgbNwS0Qo0f2xvvzZmNN+7bIz6ZYxY5eyn4OGi1p0kue27VaHUVwsOruVIpGz6E0pIOKtHiOLq6keJNn/EoXTj5cMAEnz0AMiIrAl4vm4Rf/QFqZykOByg33Tp0OVycXREQE4fNFLyHxqptw14TJ2Hd8Hp6dOQM+rhpaNQIefvRxuGpUNB1oyn7LDuyI/MhDWPj2B3gwehXIBRl6tSeemN0F+rwsfPnRZ/jpx2AgPwc+5AzZtQ21W1ZoJWrSXTj0ynxMnzYNXu4u0OdnwSW4HUUSdcbdj0zFvNfexvTHomHIz4RvWBRuv340CajZ0JBPhXUIaUjzri1ipQAV2ujoSP4kNFv0GXw5/lz/Gh5/5nn4Ux8OklPkqKHskKhSYmjzCOSIIzx2rYX75kiRUwwFmVjy0afIpqgquoS9eHH2Uygm87DuI2/AjDuvte5+5l/STpuO0XxrPbmyPWhuJTnbocvTcOxxG4xxL8Po2h+OA2eRz8wxcta0QNvlHpgOf4Di6Hl0VIU5l7XitEJnOv4z1JGPltUob4SAvRCgB+Oqj5f20jXpx4UQ2LhxI2JiYjB16tQLqeaiH2sxFqDoz7EUZeQICczlN5RKDVMEjJIlTlrOtLjCceSPUBljULSOhFRV+bJupWNI0IbWHc5X/AaVW8tKX1X9YDYUISExibS9Brh7+lDCmoDSXSxISYpHvl6FVi1DSZBV43T2KZxMzYCjqwdpkukGTcVMZha5eQXw8PRUlrdLD8bJBEqCk1cIT7KTbhHAET2o0INCYvwJJeyft38QAn09S7ZX+T+V2s08XYTQVq1ovbmYhFu3sgQxJxPjlfCAvmS36uflrhxZVJAHg0VNYcRc6BnDhJycXLh5epGjpkoJ02em5B9uLrxiYKbkPMeRV2wmrXYLxQbUw8MdRXmnYSLbeA4DmJudDSdXd+hINWety9XDkzR1bKZCdWdTCEPqK3+WIgTqmwCbeaRSPHsVhZkLDmkJd5eSMV5ccFpJZOPpF4QAHw7Fx4mmaHwWGxHYohW83EqiZhRQTGkLaVmVsH6lJ6cvyKVjkymykKMyppxLM7twcpyE5DTKgeWEVpQcR0eCetWiL8zDifhEaCm2d0igF614GSlEoJuyG9fLCWPIsYESxrSEcjiNkezc03AjHwsNPaDy2NRT+D4PitNvMRtJk32a5govJfxfweksmntSaDz5wYc07yShw5kE6xw6nvfhuSmvQntKXSYe547Izsqk1TVyzKS5zioGOFH4P096IKipmNiBccU4modKbMHL9iPttUOn2dD1vIuwmmA6MA/G1FzyL3GC8fC3NAdR5KNOz8Kx1wQU/TIE5kJSjLB9t7XQaoPavzecRn1f8zxu3bcR/d20aROiadVwGj1ISRECNRGoQTKpaXfZLgQaFwFLXgJlIEurPGlXPUULqatoOZg8+qAKHE3JEkJRvH4Gy4yVFCuVDmONDSVdMOccIk1u7YI2x8BtHdau0uElH1QICmldabs7OSTxq2JRkzbYy+tMgTm4ZWuUiOIV9ibtT2jrthU2VP82MKQVynVrLCCXl+DQVmfU60SCuHUv1mh7eXuXHeBCcb3Li7ra9p3dSgR23s/Dy6ts96p1KZ99yusu21HeCIF6IuDlF0AOjtaH3fJKOYZ0h/Dy3ykP/tDWYeU7lL7j+PBVi87FA+3Dz9zuQiH7IuhVW9E5u6FDRMeyXbwqPNtzve06VKmXx1+FMVR5bGrgXWlseiOi05njyXq8mh4AKrZXsS5v33NPGGXJjCNBmuZTjpVdsdA5W3L3kmPjM9CEk9BJAr856UuYT1JnNRS33NmPsvD6kp9HOukKqvF9oXmNHdp5LucsklKEgD0REEHbnq5mM+yLhRwXYSS7worakTM4kNDMiiZaRtZE3AlL9r90A4im+2yVm0Wl4+gAcuqxFKZW2iofhIAtCLDG0ap1tDqzWf/a4nykzeZJgKOE0BLcmYI2OZGbk5fRHOsDTccnSuCwskITCt3gxXDwDSNhm6IPbbqbhO3TNPeWrB6UUaR9LRQxyqLPEUG7DIq8sRcCImjby5Vsrv2g5AfKxF914q7KgzzeVV4joW3ZDYZt95JWhbz6yOmx1sLmI7yfFCHQQAQMFOmluLhYebFjG7/M5CxrLSxcVxS4OfEQZ+F0dHSkKBpO0JI9vQjgVlryt74JWIykzS5xfz6zaiUjZEXlBfvE5MJ44H2YyEbeoc0NJIRPgSl5EyzkWF3ZzpsVGyTAkwmJFCFgbwRE0La3K9rc+kO2wyW22TSpl7kTVgOB7I8dOtwOFB2DMWEDHVNFo1LNIYqW/GzCeHXHyTYhcA4ECgsLkZdHdriUdZCFah05wvHL1dVV+cuCtFV4tgraLGzzviyYW4Xz3Fyye6XCwjcfyy9xOj2HCyG7npWAijM71jbPWmsgJYXKiUzuVJRYJ/E7EqCLKKpIEpwu+5rstkNgOnWIvqsoftD8zYJ6VZMUa33yVwg0YQIVf+lNuBty6s2VgMqJ7J3JaREGNh9h+5BqCsfRdo+Ctt0lMO6dU7J0WV0owEqH8sRPnv8uQZW22uIDC1VWQcsW7Uub9U+ANdUsGOfn5yvCsJubG6UM91QE67O1Zv0tsADOGuyKhestKipS6s2idNqs6eZ6Wdstpf4INNcxqXINpXnxLGIDf29xgEO3+dAGekIfSzkOyOFU0/kBMvOjdPEUYeQMUz+e45woghFFMZIiBOyNwFlGjL11V/pjbwQ4IojKOYhs+w6eOXlbO0uaP3XgAEqDvpvitf52Ftvs0oNo4oeOooB4hltraeC/Zmz/Zy3+pMyQObkFcKFoJsMuvRLDB3SnkH3nV1YuXwrfjv3RO7yyc2fMxtXI1vljRL/u51exHFVnAqx9ZgGYhWEWroOCgs4QlutcWTU7sjab6+WXiaI/sCB/6tQp5UGNnehcXGqOKFFNdbKpEgEak5toTK6uOCbH0JjscUFj0ieiH6IiKDpQhcJjMkvrh5H9e1TYavu3ap+utGRCWm3FxKM6xQYlqMo9QMJ0CuUheAtqt2eg6/s6nTg5O1IeAf3mx2CmeOJnCOsUxUTl1orm8jOdWG3fazkDIXBhBM73nn1hrcrRQqCeCKjItMMheHDttn1kv20+/hEK/xwHcwE5T56Rzayak6EbiYNvD9totOmm88Onb+PZue/BNZDSNo8fh7Z+Wrz20mx8/fvmak62bpv2/rcFBxMpQkuVcjB2B3bv21+T5WWVveXj+RBgMw8WeJMpgQproUNDQ+Hj41OvQnbV82KNt4eHh9IWR6HIzMxU2mcTFSnnSIDH5GeL8Owr78FFGZPj0dZfR2PyWXx1AWNy3/YtOFTNmDy0i5LhNMIxqXZvQ8loOtUw35I4YSETqE03w3BwOZBHyXn+vpHCr16DolXX0d/xZEbCZnvV6PcopKFD8LC6zc3neOlkdyFgawLV/OJtfUrSvhA4NwKatteTpvp7WpYsqFmrraQEJi11TeYlVZukm4Gm/U0111d1/3r8HL9nM5b8uAb3z5qHqwZ1VmoePGgQevQZBJ1vG+VzduoJ/P7nKqRl56NNeDdcPnoEnEtH84kDsVi57h8UGCyIjBqsaNxY98SJZDSlsauNBdl0/Gp0jhqGvpcMRwYCFMtLkz4fa//6Hfsoe6QHhUG8cuwY+HuwXaaU8yXAWuUMSjrk7OyMli1b2sRu2mqzzeYqKSkpisabBX0pdSMQv3cLlvywGvfPfFVJMsVHDR40ED2jBkHjW6KNzk6Nxx9/rkQqjcnW4V1xhTImS7S+8QdjsWJtyZjsRsdcMqCnMt6qH5ND0Xf4MJyCv7KPmcbkmhV/YN+RZLjzmLxqDAI8bTQmSWmhaTcB+vTttYBj513qt2JvTdFyihMpeRDPvZSYhn1qqhaem8lEz6HNNVW/kc9CwC4IiEbbLi5j8+6E2rszNG0oiQLHd621VLfUWc0BVI86aCgcQkZW8+XF37T9n3UI6jIQY0qFbGuL3fsMRKe2LZCbdgTPzngCO49moBWlXV7x9Ud4+Y3PKf0GcCx2PWZRWuVMvRYBlCziw3kv4ZNl661VKFnvzJRFc+Ers/H7PzspXq8rdm9ei3Wb95KWqhjvLpiDZeti0L5DB6Qd/hfPvjgPmQUUDUDKORNgO960tDRFkxwYGAh/f3+bCNkVT9yq4WZb7oSEBMWRsuL38r56AjHKmByAKyiTa8US2WcAOrcNoTF5FM89/jhilDEZiJVff4KXFpaMyeOxf2PmE88jg8ckpXhfTGPy4x/Wl1XD2Rot+tM0Jp9VxqSnpxt2b6ExuYnHpB7vvvYilq3drozJ9CPReI7GZEaB7aJzaNpcC7Vfz1oiMlWcZ+k9C9iK42PF7WXdV+rRtr+VzEwqm7RV2EPeCoEmTUA02k368snJWwlouz4EczrFx87eR5qUarQm1h3P9pdMRtjmW9fjyeqXOM92fD18n5Wei+CATjXafW5Z8QsKfDtj3vNPwpkelYf1CseDTy1E3LEx2PLzjwgfeSOefJi08VTCg9zw6lc/YcLYwaTNdoCJUi+/9/rXOKH3wcsvzoI/Z8OjZBPOGkekHY3B+rhUvDT/dUS08MSIoVGYOe0x/B29D+OGdauHnjWfKliQPXnypOKEyGYiVgfGxkCAI5EEBATg9OnTSEpKgp+fn6Lhbgzn1ljPISs9B0EBHcnSuPqydcXPyPfuhEVlYzKCxuQCGpNXYusvyxA+YgKeeuRm5eCIIHfM/d+Pyph0ICGbx+S7C7+hMemFl+c8DX93HpMaONGYTD9GY3J3CubQmOxoHZOP0pj8dz/GD7fRmCQbbW2vWZT0687SVcSaqFTPqtJWVmoEDoSm012VNssHIWBPBETQtqer2Yz7onIJhK7/AmXyVzJFVrdEeTY+HMeVbL61fV+B2qfEZONsh1yM7wNC/PF3bLyy2upYjRIoKzUL7cJ7KUI2t+/XOhwt3ZyQk5mD3Bw9IodHlp1Why7d4GH8G0Xk9c8p4L/58C1k0dL2A7PmlgjZpXuyIJiXnwtDcR6+eO8NijNODqSUfr1I5Qw9bZNSdwIcB5uFbF9fX7i7u9f9wAbek8+No5HwubLjJEcnkVI9gQBaOVq/o5YxmZ6NtuE9KozJDjQmnZHNYzLbgMihFcZkZx6T61CoN1LKdjW+/nARpVXPI7MUGpMsZJeWimNyScUxCduPSYeAfiRsPwvDvzPJLpvW0uri92LtmPUv5ShQuYfRvD0fKnI8lyIE7JWACNr2emWbYb/UvpFwHPYJirfOgCVrDwnNZMdYJ5tssh+kRAwq1xASsl+mZGaX2pRen+Gj8cWyZ/DNz+tx+7jhip0mra9i1fJlcA/rDd9AP6yJiSNBfBxYEM9IOIzE04WUNt0THu467ImLIw10yYPCkf17cJoyYDrrtDDoDQjrOAR39fDGksULER72Onq0LUnUTpaUFHfZHY4aV9x236PoGEppnclBKS8vHy4V0qvbFEwTaJxjYqempoJNRdgmu7EXdswMCQlRnCRZ2Ba77eqvWNSw0fh82dM0JtfRmLykbEyupjHpymMywA+r/4tDkWU8nGhMZibSmMwrHZMeOsTxmBxeYnZy5EDJmHTRaUrH5CCM7OWDJR+9TmNyIXq2qzwmdQ48JqfRmCSb+kY0JrXtbyT5Wgv9fy+QDXYGzbf8kFCNZqAqUiURGGmy/ftAN+A1iqvdtuoe8lkI2BUBh+ep2FWPpDP1QiA+Pl7RdPXv379e6muoSjjutSIok+Bszj1M8bXzS4VtugFUErpJuOYJn2wgeZnWIXQ0TfoLwJoaWxc37yAEugH/+2wxovceI011GpZ/8zl+WPEPOvUdgiH9IrH+ly+xJS4B+VnJ+PCDTxHY8xLcfNVQ+Hk74bsvPsbxzEIkHdqFxUt+xCXX34ZBke3wz6rf0enS8Rg3ZjSKE3fjg+9WYvDwIUjesw0pRl9cNmIgEvdtxc+rNkOnVSF2yxp8/+s69Bk8GC5aslGRUisBDtnHQnZwcHCTilvNpiSs3eaoJCxsN4UHhFovxEX4ksdkkJsKX35OY3JPyZj89dvPsfQvGpN9hmBo/+5YR2Nyc1y8MiYXf/AJArpfglvGDoWvlxO+t47JwzQmv/gRw6+7DYMj2+Of1TQmR/GYvAz6pDh88O1fGDRsKE7ymDT4YPSIQUiiMfkTjUmtRoVdW3lMrkXU4CGNYkyqyVzGIbA/LAUpsJw+XjKf8jyrzLVWoZvnWn6R5pv9aBw9oelwO3T95kJNyo2mXNjPgSMJNbX7ZFNm3hTPXQTtpnjVGuCcm6qgzWhUlMDGIXRUSexsFQmIhtMljjucTp0Fa9LecmZIlZM/HFoMh67nTGi7Pax8bgC0dWhChTYdIzEgqityTqUgJTUDbv4tMeX+h+nm3A46Fy+a2KOQlnAMCcnp6DZgJO69YwIcHVTwDgpDz67tcPTAAZzKKcDocbdgwhVDQFYgys0vtHUYArw90KUnRT0ozoWLVxBaBPjANziUHCsD0af/QOj02di7/yAKTI64atx4hAX5Vn5GqUMPmtsuHDKPTTA4LnZTTA7DZgoce5ujo/B7TnQjpSIBFVpHRGJgVDdkK2PyVPmY7M5j0lMZk+k8JpPS0bX/SNw3ufKYPMZjMrsAl157M24cUzomSQMc0qZkTHbt2Ys0w6VjMpDGZJB1TA6AI4/JA6Vj8trxaBPsWzKmK56ijd6rXILJGf0aqLxoFY3nVyOZmpnoL8+3nCyMtdxaZ4qTHarsp+s9hyKXXE/+kY1/xedsSEXQPhsh+Z4JqMgznqQOKUKgMoGNGzciJiYGU6dOrfxFE/xkoayRltyjlESBspKRRkXFzpKUUVLt0YYykUmIsyZ4SRvVKXOM7MTERMUmm8PoNeXCGm3uCztLima7KV9J2527pSidVhOPU1i/TBK8ybmcBGpeaWR7bJXGxXYndhFa3rRpE6KjozFt2rSLULtUaS8ExEbbXq6k9KNGAiqtG1Rkvy1FCFwMAmwuwqYXTV3IZjac5Ia18hxrm6Ol8GcpQuBcCCgrhbRaKEUICIESAmJ4Kb8EISAEhMB5EsjOzibzUws4vbm9FDYb4Qgk/AAhRQgIASEgBC6MgAjaF8ZPjhYCQqCZEjAYDGBBmyOM2FvhlO1cOJOkFCEgBISAEDh/AiJonz87OVIICIFmTODUqVOKJttezSs4k2VWVpYSiaQZX2bpuhAQAkLgggiIoH1B+ORgISAEmiOBgoICsBOkPSd54Rjb1rB/zfEaS5+FgBAQAvVBQATt+qAodQgBIdCsCHDM6eaQ3IVtzzkJD6eUlyIEhIAQEALnTkAE7XNnJkcIASHQjAmwNptjTTeH8HfcT9ZqswmJFCEgBISAEDh3AiJonzszOUIICIFmTIAdIO0pysjZLiWbx7BWm2NsSxECQkAICIFzIyCC9rnxkr2FgBBoxgQ40ggLnC4u9pV4o7ZLyinaWXt/+jRlWJUiBISAEBAC50RAEtacEy7ZWQgIgeZMgIXNhhSyi4uLERsbi7179yrmG5zenRPJREVFITg4uMEuBZuPcJQVa9i/BmtYGhICQkAINHECImg38Qsopy8EhEDDEWD7bE5P3hDl119/xdNPP424uDjFTpqFbI50kpOTo2iY77zzTsyZM0f57mKfD7fNRa/XQ6fTXezmpH4hIASEgN0QEEHbbi6ldEQICIGLSYDNRrg0hKC5fPlyjB8/Hj179sSyZcuUv2wrzeeQlJSEr776CgsXLsSJEyfwzTffgLM5XuzC5iP8oNEQ/b/YfZH6hYAQEAINRUAE7YYiLe0IASHQpAmwQ2BDCLRsnjJ9+nTFPOSvv/46w1yDNeosgIeHh+Pee+/F0qVLMXHixIvOlgVtyRR50TFLA0JACNgZAXGGtLMLKt0RAkLg4hBgbW5DhPTbtGkTDh8+jBdffPEMIbtiz6ZMmaII3EuWLIHFYqn41UV5zw8ZrFFviLYuSgekUiEgBISADQiIoG0D6NKkEBACTY8AJ21pCI321q1blWQ4vXv3rhUSRwMZNWqUYsPdEJpmTjXPbVpNaGo9OflSCAgBISAEFAIiaMsPQQgIASFwFgKsxeWXRnPxre3Y7rpFixZwc3M7y1kBHTp0UKKR5OXlnXXf+tiBhW3JElkfJKUOISAEmgsBEbSby5WWfgoBIXDeBFi4ZG0uZ0q82MVqC85C7dkKm7JwJJCGEn61Wq1otM92UeR7ISAEhEAFAiJoV4Ahb4WAEBAC1RFgQbYhtNncNses5hB+HEP7bCUjI0MxZ2EBuCGKCNoNQVnaEAJCwJ4IiKBtT1dT+iIEhMBFIcDZIFmj3RClS5cuSE5OVkxCztbenj17FDOThkokw1p2ScV+tqsi3wsBISAEygk0zJ2jvD15JwSEgBBocgTYPrshzEYYzNChQ5V41Rs3bqyVU1FREVatWoXBgwc3WLbKhmJQa8flSyEgBIRAEyIggnYTulgNfaoNpcFr6H5Je0LgXAmwJrehhMzIyEhFeF60aFGt9tA//fQTjh8/jsmTJ59rd857f2bQUBzO+yTlQCHQQATq4kfRQKcizTRiAhffhb4Rd15OrXYC6enpSjxfTvssRQg0ZwLsoBgYGNggCNgW/JVXXlE02++++y6mTZt2RrucHXLGjBm48cYblf3O2OEibkhISEB2dvZFbEGqFgKNnwArovhBV0ypGv+1svUZiqBt6yvQSNsPCgpSwplxqmcpQqA5E7CG9rvjjjsaDMOQIUMwe/ZsPPPMM/Dz86uU+fHUqVNKena2y3799dcbXMO8YcMGxX5ctHkN9nOQhhopAY74M3DgwEZ6dnJajYWAim4iFz+lWGPprZyHEBACQuA8CHDUkczMTHD684Yo+fn52L9/PyZMmIA+ffrg22+/LWs2NjYWPXr0wNy5cxWzkYbStPMJcHp41uA1lPNlWafljRAQAkKgiRIQG+0meuHktIWAEGg4Amw+dbFjVScmJoJXkCZOnAiOPBIVFQU2EWndunWljrq4uChmLDNnzkTbtm0V05EXXngB27ZtU2JqV9q5nj9IVsh6BirVCQEhYPcERKNt95dYOigEhMCFEmBBm0PuhYSE1LupBkcPefLJJ/HZZ58pGmNug5ejL730UkXYDg8Ph6ura1kXeBGShXIO7bdu3TrltXPnTsVxkoXzt99+GwMGDCjbvz7fpKSkKHG+K55PfdYvdQkBISAE7I2ACNr2dkWlP0JACFwUAuwEGBwcXO+Ja7788ktMmjQJU6ZMwa233oqePXvC09Ozzn3ghwB2ylq5ciUWLFigmHVs3rxZSWRT50rquCNr2Nlm3NHRsY5HyG5CQAgIgeZNQATt5n39pfdCQAjUkcDJkyfh4eFRSbtcx0Nr3W3s2LFgB8ctW7bUul9dvvzxxx9xww03IDo6Gr169arLIXXehwV6FrRDQ0PrXatf55OQHYWAEBACTYyA2Gg3sQsmpysEhIBtCDg7O4PD/NVnYTMQdnrkKCP1UVgbrtPpcOLEifqorlIdHGGhIeOJV2pcPggBISAEmigBEbSb6IWT0xYCQqBhCbATIttT13dhTbG7u3u9VOvk5KSYtlyMYFIFBQXghw0pQkAICAEhUHcCEke77qxkTyEgBJoxAa1Wq/Seo49wUpn6KJxlsVu3booD44oVK8BC9/kWrouF4eLiYoSFhZ1vNTUex9p8ts+WIgSEgBAQAnUnUD93i7q3J3sKASEgBJokARZkWWPMsaS9vb3rrQ+PPvqootGuj/CBfI5s883Ce30WNhvhhwBxgqxPqlKXEBACzYGAOEM2h6ssfRQCQqBeCLC2OD09XXEIrJcKm0glGRkZigOkj49PEzljOU0hIASEQOMgIDbajeM6yFkIASHQBAhYNboXw1a7sXaf7b05U2V92ZE31n7KeQkBISAELgYBMR25GFTttE7z6eMwp26BKSMWlrx4wJAHODhC5RIMtXdXOAT2g9o3knqvslMC0i0hACXGdVZWlhJTuznwYFMZjmRitVFvDn1uLn20FKbBlLoV5lMxMOcepTk9h6ZvB6icAqD26gh1QB+o/fvQJl1zQSL9FAL1TkBMR+odqf1VaM49AuO+xTDG/wUUZ5R0UMWLIaUCtYUcuPildYNDQD9oOt8Lh6BB9gdCeiQEiIA1M2NgYKAigNozlObUV3u+jlX7ZilMh+HgFzAdXQpL/kn62qQI2GfM6RonUqJ0gabTPdC0vBxQi26uKkv5LATORkAE7bMRaubfGw99BUPsa7AUpdMkS1oNRcCuCYqF5mu9ouXWdJgIXY8nAI1LTTvLdiHQZAmwljcvL8/utdq5ublKJJOgoKAme63kxCsTMCWvh/6/Z2HJOUJzNc/pDpV3qPSJ5nSzQdniEHoZdH1eohXMwEp7yAchIARqJyCCdu18mu+3pKHW75wP494PaCImzXWtk3EVTGTTCVMx1KGj4DhwIVSO4kBVhZB8tAMCiYmJSvQRV1dXO+jNmV0wmUzgPrZo0ULMRs7E0yS3GA9/A/32OYCxgBQnJeEq69aR0jmdtNu6QYvIrCS8bofJXkJACECcIeVHUC0Bw94PYdzzLk3G9BM5FyGba2PBnJYczYkrod82ExYSuqUIAXsj4O/vr6ROvxjJYRoDK440wg6QYpvdGK7GhZ+DKWEF9NHPkhKEki6dk5DNbdOc7kBzetYe6DdPA9t2SxECQqBuBETQrhunZrWX6eQGGHa9UToZ1/YTIS1HbYXMRkzxv5N990e17SXfCYEmSYAjkLA2m8P92VthsxgOZVif8cLtjVFT6o/59AkSsmeTGQiZ9tWoOKH53OpvU1PnWNjOjCWt+Isl+9a0n2wXAkKgjEBtUlTZTvKmGREgG2tD3CLSehTShFzLz8NspIm2lu+tyEhzYjjwKThiiRQhYG8EfH19FYGUbbbtpXDinFOnToGdPTkBjpSmT8C470NYCpJq1mSzHTZnJdV4kOaa/Gp4FZKF7uqK2klRoJhS/qnuW9kmBIRAFQJ1kJSqHCEf7ZqAMWkNzGn/Kg6NNXaUlh5VPsPgOGwJhfTrRZNyibNMtfuz9qQgFcYDX1T7ddlGsuvmzHNsF2p9lX0nb4RAIyXAgmhwcDDYzII1wE29sBnMyZMnwQ8QHNJPStMnYM4+AOPxX2qe0y1GqDx7ke31p3C6fAWcLlsOXe+nodKR70F1wjY/fJFgbty7mL6naCW1FJnTa4EjXzUbAhKrp9lc6rp11HRieenkWYOjDGmyVT5D4Dj0Xahd3WBK+JwqrkHzYW3SQQtT8hpY9I/S5E0ak2pKftpRLHjjbWQWquCgVsFkNMDZJwR3TrkbES39qjmicW0qzs/GscRMdAhvCwdRAjaui3ORz0aj0SAgIEARUENCQpq0TTML2S4uLpKc5iL/ZhqyepMSljWbtNXO1TRLgrLaH7p+70Htkg/D7rcApzBou94NlVaF4m0v0cqm45nHUQQq06ntMGcfpPB/nc78nrcU5+K9ha9if3I+tBo1yewmmDWumDDpTgzu3qH6YxrRVrOxGIcOH0ertu3hrKstMksjOmk5lUZJQDTajfKy2OakLMXZZH+3hybWGoRssE22hmKqPgrkH6KQf+S5rmw7y/mSVtuSn0yT8oEadzTpi3DkRAIuuXoC7iLh+vaJN8OUFId3Fn8GfRVT8EofOcLJeRYLL5VWW6qv01Kddqf0+OS9W7HwzS9gqSJks0ZHiv0TYOHUz88PycnJyopMU+xxamoq+KGBtdlS7IQAaZxNp/6r2QyQ50+dF9SewTDufxeGvW/DsOM5ypmwh5KPdSYINYgIrNU2nKbkZTtqBkXz5bEjhxHRfySm3HU3Jt8xCa2ci7HozbeQVlC7Jvy8p/VaDqz+K0uNd7DijHi8/sqbyCiofD+o7T5QMwz5pjkTEI12c776VfpuKThJwjMlpKnRNpsmV5WZJuJpMGpC4Djqf/S5SiXVfqSdyObPknMQoExjNRWtzgldekYh3Kdkybo4YQfeWXuCEoQAq3/5DjlqZxyI2Y5h4ydiYJdWWP7tEvwTs49MxXXoN/wKXHflMGxZ8QPijUG4+crBpEHPw5KPP0b3y29Cj7ZBSD26G9+viMWtN16O5d8swb4TKeR874yhl43F6KFRUBsL8duyb/DPDn4gUKP/qLG4ZtRAmItysezrL7H9YDzUDhr0HXI5xl46GNpS1XVa/AF8/L+fkZ6ciflvf4IH77sLqowj+HTJ14hPzYaLhw/G33w7ekWE1tR12W4HBNzc3BTzp6YWEo/NRVJSaCxQhCHWzEuxHwIWYz5l8U2g6ayGWz2b9hXFw3D4F2gjHiM9ShsSvFtBExQKw06KOnWWYqlFecKH8nzZrlNXdOnaVqkpwCEHW17+BIVGM3ZvWYfdiTnIOH4QgZ36Y8JVw7Fp5c/4bdUm6Ek/0SGyP26/ZTyS9v6DlTvTcc+k66BRWfD71x9BE9Yflw2IJKV5Kj7+/CeMvXECdq/7GRtj9tP9QIPIfsMw/qpL4ay1YOua37B8NWU0NlvQoecg3Hr9WDirjVjz6w9YtWUnKUfU6NCtH24adyXcnEuUTMV5p/D+h58hLfMkPRgsxD0PPIhWrnp8teRz7D6UQAmRXXDp2AkYNTCybrfAs3CUr+2bQA2Pq/bdaeld9QR4UoaJtNS1OUCxEF4YDwunX69RIK+mftKsWIozq/midBO1aTHosXr5D1i+fDmWkiD8+a9bMWLUlXCkJg/s/BefL/ke7XsNQuc2LbD8i0X434poXH7dzbjm0v748fM3sHTldrhpzfhj+S8oJOE87dgufPXdUvy1dqvSyH9//4UjaRnY+sf32LAvE1Puvx9Xj4jCoX1xpNWwYPn/3sEP6/fi+lsm48arR+D3Je9i5b8HsXvTr1i+5RBun3IfJlx5CY7uP4DCCgoZD99g9OraES7eAejfrxfUBWl45fnnkJjvikl33I4O3mq89OzztIRKy7dS7JqAh4eHohFOSkpCURGFUWvkhVdcWAvPmmx2fpRiZwTIud2ip7TqNYqDpASxFFAo1lUkYLeEpuNkaDpcQ3G2Uyg1ey2a8FJMimKmFmRqmtej16/ArzSn/7Tse7yx+Bt0HXAFQj20OEkC9mcffwZtYAf07x2JHet+xIIPv0XvkVfhluuvwq71S/Hmpz/BjVaLNv75C+Kz9DCdTsZ3S3/AsuWrFE308d3/YtueQ0iM24Sv6H5xw+13Y9KEq5BydB/yjSrs+vtnvPXZzxh+1Q2YPPEGHNzwEz7+YQ3Sjm7HR9//iStuugN3TbwOOcknkH663MdC6+SOvr17UFQhd/Tp1x++LhZ88sZL2BCbghtunYThPdrjvbkvYU3M4Vp6L18JgRICImjLL6GcAKuO+XW2wlqQcxGyrfXVUjcrxi0kjMcfO4qDBw/S6zAyaOJzdCYPeC6kpbjp7ocw4erR8NYV4s+NOzH5gccxcmAfDBl9Le6dcDnWrf4NbXoOhjPFeD1M9tJbN/+LXgMGIvVQLE4XFCA69iAGDr0Evh6OyM9MRvSOvQgMj8LD994Bh4JMrFnzLy657AoEejrBr2VHDI2KwF+r1sOsc0dRbga2b4+Fa1AEHp06BR66clW+k6sHekaGkzbEDyP69UTagWgkFnnhqVmPokdkJG6fOgORQSqs3hBb0hf5364JsGabMymyKUZODgs5jbPwg0BCQoJik80xwaXYIQFlzq1lTidHSDh1IEfI+TCfWIyiX4ei6PcrYS52hWO/52hSrqBRqBZPLXXT/qyzSU1KwAFlTj+IpLRs6GhO59mTH/JGXHsz7pt0PVoFe+PPlWtwybV34frLh6P3gOF44uF7ELf5T6gCOiDcX4fYPYexPzYGvq07w6UgEcfS8xCzPRqdeg9BaIAXhQfPRnR0DCyuQXjk0WnwI5P0lb+tQOe+w9GplT+cPQJw+ehh2Lp+DbINGqjpISQ2Ohr58MRDUx9GWIBbWQ/VGkf06tUdbo5uGDR4KHR5idgadxLTZs6kh4IeGHPjHRg/nO4Pf24sO0beCIGaCNSwnlTT7rLdngmoyFFFcZihCahWrfb5QCDhXOXoVeORvHyt1jnjtgemoUtgyYQXs/o7vPTpEtI694SDg5qEbifleJOhiIRfLWWsK3eSbNE6FKat8XD1CkaXMB+sX/s3Tu09gWtuux/rvllMQu7fSMpVYWLX9mjvG44HtF5Y/fd6/PnDEoT3uxxTb7uCtDgm7Ny2AfGx2xT3TgcyDWkf4oeeg67EDKMGK1ZvII379wiiZc5ZMx6ElxM9cJQWIx3LfaDbForyCuDqHgBvJ6swrkWIjzfy8ilkopRmQcDJyQnsGMnCdmFhIViQdXAo/73YGkJWVhY4vTqfF9uXS7FTApRiXaV1L9VqV9NHsqNWOQVB5eoCYyo5rJMvDZBBttdHoG3ZnvQp5MRYzWHWTSpHb+vbav+yucYVN96OsX0jlO/TDkXjviffwH4y69Aoc7rVQdOAYhK8w1sHl9XjR9F8dI60yErn379PZ2zcvAkpSET/K25B8b4VWLt+PQ7sT8boKZPRqlsYnn7CgF//WIuFa5fDPaQjnn5yGtmRG3Hi0G58/lmSYjqiIcuQrhFtEBTWC8/PnIYfl/+J915bDXi2xMxZT6JtQLmzPoe55Dmdo2AZCovgQKEPA3zcy84vNCAQO/bLnF4GRN7USEAE7RrRNL8vVC4UN5fSpVsKeLI9m1BAQiTPWnXSbNNUTXbUKo/2tUOlSdlQTEudNLmxtuM0Jc0w0ERpps9ceDsXtZMXfB3MWLdmM3pMvpK2GLCONM9uHrT0SSqUgQP6Ye77n8OvbS/06haOnLgwfPjBBwjrORJt/F2QkngCXQZfhWFXXIfkfZvw2OwPkX7dGHj6eiAocjAevPlSpZ2cjHRoyb46O+0k2nUfgucvGYPsxD24//E5OHLyFvQOKxf0lXMmMZvP0C+kJbJTluG/A8noF9ECpymiytb9xzF6UPlNRGlA/rNrAmyOwcJ2Zmamksqck7+waYktC2uxOUY2n1toaGijEv5tycVe21ZpXaFyC4Xl9HGa0quZ01UasuHeR47ne6Eb8CnUrTaBbDnIRrs7he+bT5FCyFi6lnVvlWeHs6Iz6kvmdJ4jOd48z+msmODQmNY5nRpFqLcnNq5cj6sHd4OO2tzy91pyhHcnrbIavfoNwpdPz8cxt0DMu6cHCj3SMXvBx3AKaI/enVshNyMF3m164ukXRkCfnYAH75+OvUfSEdAyEKnFbfDMrHsVLXrR6WwUwQlafRacfMPw1OwXSHufiakPPYTovUdJ0O5R1h+ey81s8kj/3HwD4GDOwMZtsbhhVC86Jhdr/42BX7ery/aXN0KgJgIiaNdEphluVzn5Qu3VEaa8+OonZSsTNh0xnIQx5nmY0/cqZh3Wr6r9y1oTl+Caw0DRQYrp9+ksvPnc0/D2coK+qBAJiSdxxc13keZYBz1N1tYIHiqtG26bfBvmvP4RZp2IhbY4DYdO5uGJ2dOV5juRQ6XG8BE6du8NR3oe6NG7N4o++h6RUX0pZgrIZnA5vlsVh359I3Eq8RAC2ndCcGAAbrvjVrzy2keYfeg/+LmqsYsm3vuepIn48Dos+m4teveJQmHKCbgFtkOof2WByYfsWwsz4vDM7Bdxx5QpuOGyHnjj+SfRq3d3HI7bCY+IwRgzpGu1eGSjfRPw8fFRwuWxgMtaZBa4OaNkQxaDwaDE+ua/fD4N3X5D9lXaqkCABGm1b0+YkzdU2FjhLU+8pixKqz4ZptbXw8E3ksLyHULxpvcodCtpemtM1U5iKK2AOviWC6YVai19SyIq5Vj4atFCbFjmqYRsTTyRiO5DRiO8lTcS/9bTIqLVNEWNcbdOwn/Pv4oZTz2LYHczdsQdwuSps+BBtxu3sM4I9lChkObeEG8dzJ27w8WSjxbhkfChlcVdZALy6vtL0bNPH1IUpcPk0QJtWgWjx81U5+yX8OgTCWjX0h97YndhxM0Pob//aTy74EOEd+8LZ2Mucowe6NgmpFIXnD284KLJxKsvPI0bJ96BO28fjzc/pHCF0VFk030EaaZAzBk/qtIx8kEIVEdARU+U/OAmRQgoBIzHfoR+01QStGnNrtZCmg4jOXvxfix411YomodD+G1k8/dqjXuZivOxe89e5BeR2Qr9Ivln6e0fgs4RYYom4vjBfXD0bYFgX8+yOlITDiEmlrQxlKmsR9/+CPWzCr9GxO3eA/+Qdgj0caPJvhixtF+r9h3h4+FEn/XYFRON40lpcHT3Rd9+feHjVmKWkp54lGy395AmRYUImsw7tW9JJ2PEvl07cOBoEhxd3Eng7kdLiOX2fMoJWQzYGb0V8ekFGDBkKPypnbjt23AkIRWefsHkJNkHThSXVkrzJlBAvgJstsG/b09PT7A998XMvsga7OzsbOVBlbXp3ObFbK95X93G2XtTRiyKV01Q5jGarKs/SbbF5uyQiiqCQ5LSJExmJzXuT6nc1f40p436tmZhnHIuHCBH81M55GRfOqe7uPmga7fO4LDUaYnHkWdxRNuW5St9eVkp2Eqa4nyK6RrRtRc6hpV/d/TwPjIZ9EH7Vuy0a8aBPXso10KoYt/NDRzZG4u9h46TctwFPUmpwnbbXPIy07Dt3+3IpXtLy7AI9OwWoeRqSDi8FzvJ7ttCkVG69uiDtqFn+ikc3ReD3QeS0K3PALQlM8Jj+3ch7sAx6Fw96b7RH97uJfcNpSH5TwjUQEAE7RrANNfNHHmEJ2Vz5m6aQHmivcDCsac1LnC6dGmtGu0LbEUOFwJNigDbbbOjJK/UODs7KwK3o6OjEmLvQjvCdebn5yOPTK9YqGYB293dXQTsCwXbVI+nh7rizVNhIiUKHOpJMCSh3HHI+3BoNaapUpHzFgINRkBMRxoMddNoiB0iNV0egv6fB+iEebGjBg1IXbtjLoam/RQRsuvKS/ZrFgRYuOYXO1qxQMxabn7PDpPsSMkvtqPmF8e3rq6wVpwdtvjFwjUL7/yeCzs4crg+SaNeHblmto0etrRdHiDzkfUUQvX02Vcgz4bHVAR1yCg4hI4+257yvRAQAkRANNryM6iGgAX6Ha/CGPcOaaNZA3KewjaZjKiDh8Jx2Efk+V7F1KKaVmWTEGjOBNgHgU09+MWCMwveFS37WDvNL95m3c6fWRDXarWVBPTmzFH6Xj0B45HvoN/2JH1JD251cmKvph4yu1O5h8FxxBKo3VtXs4NsEgJCoCoBEbSrEpHPCgG2Y9b/OxOmI9+X2OCd08RMmnBjMdnw9aLlxfcodFSoUBUCQuA8CLBAbRW4KwrXVgG7Jm33eTQlhzQDAoa4RTDseoN6SiZ95Ch5ToV8XXgu1w1eBAf/qHM6VHYWAs2ZgAjazfnqn63v5Mxi2PMevd4lwZkyRtbmHGOtS3GooV1bXw1d1PMUo9XX+o38FQJCQAgIARsTYId3w/aXYKHEXsqcfjYlCie1oXldHdAfun7zofZsZ+MeSPNCoGkREEG7aV0vm5ytKX07xVR9H6aTFCLKQB7kPDEr2SHJpIQ0bop2xExe6w5assXuBm2nu0nQpvjWZ4tGYpPeSKNCQAgIgeZNwJx7FMZ9i2E88RtAMaVpsi6d09kfgOZ0ntdJ0QI1JRojUxFNxB3QtL1BTACb989Gen+eBETQPk9wze8wSiJzagclNlgHc1YczJxBrFTLrXLyp/jbFDIpaAi9BpFdtzXbV/OjJD0WAkJACDQVAuacQzSnr1HmdjOlGYchVxG4lZwKHu2gDuwPhxYjas3q21T6KucpBGxFQARtW5Fv6u1SHFVKG0a9IE1IXUxKmnp/5fyFgBAQAvZMgM3+OJ42z+lqst+WFUl7vtrStwYkIIJ2A8KWpoSAEBACQkAICAEhIASaDwE2yJIiBISAEBACQkAICAEhIASEQD0TEEG7noFKdUJACAiBOhGgaA57Y7cjdv8RJTWU9ZjcjGRs2boNOQXF1k3yVwgIASEgBJooARG0m+iFk9MWAkKgiROwFOKTDxZgwQffQM/Be0rL8X1bMWv2bOxLyrRukr9CQAgIASHQRAmcY8T6JtpLOW0hIASEQKMjoKIU61poKO16xaKikGqc6ZGSPiolPTkexxNOwtndG+3bt4WTrmTazsneGLIUAAAH1klEQVRIweGj8dC4eqJjeAc4atQoLshDelYufLw9kHAiES3btYdL6f4V25D3QkAICAEh0DAERNBuGM7SihAQAkLgnAhotBrs2fQnXlz4IZy8fFGYdQr+EUMx/+XpOLb5L8x7ezGKta4w5mUjNHIonpv1KHLiNuOJl9+Cu68fsnLMWLj4A4T5yjR/TuBlZyEgBIRAPRKQGbgeYUpVQkAICIELJcDp1TnEmoPKhA0rVkHvGoLnZ8+CiyEL+xMpzvHpVLyz6H34dB6JZx69A/lJBzBr5nP4fuVAjGmlQWFBEboMG4ZZ4y5FiJfEtL/Q6yHHCwEhIAQuhIDYaF8IPTlWCAgBIXABBBTrEA5bXGomwlWZi4spMZ8ZJosavQb0pwRRx/HU9Efx9mdL4ejmDXaWTM0uwumTx/Dem2/g8+9/g15PjpW7D8BgssDBxQvXXn8D2oe1hM5BpvgLuDxyqBAQAkLgggmIRvuCEUoFQkAICIHzIKB2hp+bJ3YdOoTjaafRIcCdKjFhx/adlAuK7LQpYUjvy8bhzYgeOLx/L1at+APz5s3FzOl3g626/UPbY/SlvWAymTFi5Cj40Wek7VIyaJsMlHxEihAQAkJACNicgKg7bH4J5ASEgBBongQcMHzEUJgzj+DZmbPw5dff4o25z+F/v/2Djr2GIzzEC1+8+RI+/2EFvIJaIzw8DIbifPi1aIM+XVthf1wM0vIMMBtOY+2a9XDx9oEDacKNRiNpxJsnUem1EBACQqCxERCNdmO7InI+QkAINBsCUZeOx/MqR3z38+/46/dfoXbQYdT4O3DbLTfAiaKRdOnVDzu/+xnvvbOT7Eu0mHz3Q4ho3RItHn8Gjh9/hGVffkLm3GqEdekLJ5UZZg8fhEd0gKtT5UgmzQaodFQICAEh0MgISAr2RnZB5HSEgBBofgQsZhMKi4pJ0NbAyVFXGQBpqQsLi6DROUKrqSxAFxUVkqDtcOYxlWuQT0JACAgBIWAjAiJo2wi8NCsEhIAQEAJCQAgIASFg3wTERtu+r6/0TggIASEgBISAEBACQsBGBETQthF4aVYICAEhIASEgBAQAkLAvgmIoG3f11d6JwSEgBAQAkJACAgBIWAjAiJo2wi8NCsEhIAQEAJCQAgIASFg3wRE0Lbv6yu9EwJCQAgIASEgBISAELARARG0bQRemhUCQkAICAEhIASEgBCwbwIiaNv39ZXeCQEhIASEgBAQAkJACNiIgAjaNgIvzQoBISAEhIAQEAJCQAjYNwERtO37+krvhIAQEAJCQAgIASEgBGxEQARtG4GXZoWAEBACQkAICAEhIATsm4AI2vZ9faV3QkAICAEhIASEgBAQAjYiIIK2jcBLs0JACAgBISAEhIAQEAL2TUAEbfu+vtI7ISAEhIAQEAJCQAgIARsREEHbRuClWSEgBISAEBACQkAICAH7JiCCtn1fX+mdEBACQkAICAEhIASEgI0IiKBtI/DSrBAQAkJACAgBISAEhIB9ExBB276vr/ROCAgBISAEhIAQEAJCwEYERNC2EXhpVggIASEgBISAEBACQsC+CYigbd/XV3onBISAEBACQkAICAEhYCMCImjbCLw0KwSEgBAQAkJACAgBIWDfBETQtu/rK70TAkJACAgBISAEhIAQsBEBEbRtBF6aFQJCQAgIASEgBISAELBvAiJo2/f1ld4JASEgBISAEBACQkAI2IiACNo2Ai/NCgEhIASEgBAQAkJACNg3ARG07fv6Su+EgBAQAkJACAgBISAEbERABG0bgZdmhYAQEAJCQAgIASEgBOybgAja9n19pXdCQAgIASEgBISAEBACNiIggraNwEuzQkAICAEhIASEgBAQAvZNQARt+76+0jshIASEgBAQAkJACAgBGxEQQdtG4KVZISAEhIAQEAJCQAgIAfsmIIK2fV9f6Z0QEAJCQAgIASEgBISAjQiIoG0j8NKsEBACQkAICAEhIASEgH0TEEHbvq+v9E4ICAEhIASEgBAQAkLARgRE0LYReGlWCAgBISAEhIAQEAJCwL4JiKBt39dXeicEhIAQEAJCQAgIASFgIwIiaNsIvDQrBISAEBACQkAICAEhYN8ERNC27+srvRMCQkAICAEhIASEgBCwEQERtG0EXpoVAkJACAgBISAEhIAQsG8CImjb9/WV3gkBISAEhIAQEAJCQAjYiIAI2jYCL80KASEgBISAEBACQkAI2DcBEbTt+/pK74SAEBACQkAICAEhIARsREAEbRuBl2aFgBAQAkJACAgBISAE7JuACNr2fX2ld0JACAgBISAEhIAQEAI2IiCCto3AS7NCQAgIASEgBISAEBAC9k1ABG37vr7SOyEgBISAEBACQkAICAEbERBB20bgpVkhIASEgBAQAkJACAgB+yYggrZ9X1/pnRAQAkJACAgBISAEhICNCIigbSPw0qwQEAJCQAgIASEgBISAfRMQQdu+r6/0TggIASEgBISAEBACQsBGBETQthF4aVYICAEhIASEgBAQAkLAvgmIoG3f11d6JwSEgBAQAkJACAgBIWAjAiJo2wi8NCsEhIAQEAJCQAgIASFg3wRE0Lbv6yu9EwJCQAgIASEgBISAELARARG0bQRemhUCQkAICAEhIASEgBCwbwIiaNv39ZXeCQEhIASEgBAQAkJACNiIwP8BLLmbWHE20boAAAAASUVORK5CYII=;" vertex="1" parent="1">
          <mxGeometry x="60" y="-300" width="730" height="510" as="geometry" />
        </mxCell>
        <mxCell id="qHIptJzxmOa5pPm5v8AJ-9" style="edgeStyle=orthogonalEdgeStyle;rounded=0;orthogonalLoop=1;jettySize=auto;html=1;entryX=0.5;entryY=1;entryDx=0;entryDy=0;fontFamily=Comic Sans MS;sketch=1;" edge="1" parent="1" source="qHIptJzxmOa5pPm5v8AJ-6" target="qHIptJzxmOa5pPm5v8AJ-7">
          <mxGeometry relative="1" as="geometry" />
        </mxCell>
        <mxCell id="qHIptJzxmOa5pPm5v8AJ-10" style="edgeStyle=orthogonalEdgeStyle;rounded=0;sketch=1;orthogonalLoop=1;jettySize=auto;html=1;entryX=0.5;entryY=1;entryDx=0;entryDy=0;fontFamily=Comic Sans MS;" edge="1" parent="1" source="qHIptJzxmOa5pPm5v8AJ-6" target="qHIptJzxmOa5pPm5v8AJ-8">
          <mxGeometry relative="1" as="geometry" />
        </mxCell>
        <mxCell id="qHIptJzxmOa5pPm5v8AJ-6" value="User" style="sketch=0;outlineConnect=0;fontColor=#232F3E;gradientColor=none;strokeColor=#232F3E;fillColor=#ffffff;dashed=0;verticalLabelPosition=bottom;verticalAlign=top;align=center;html=1;fontSize=12;fontStyle=0;aspect=fixed;shape=mxgraph.aws4.resourceIcon;resIcon=mxgraph.aws4.user;fontFamily=Comic Sans MS;" vertex="1" parent="1">
          <mxGeometry x="410" y="600" width="60" height="60" as="geometry" />
        </mxCell>
        <mxCell id="qHIptJzxmOa5pPm5v8AJ-16" style="edgeStyle=orthogonalEdgeStyle;rounded=0;sketch=1;orthogonalLoop=1;jettySize=auto;html=1;entryX=0;entryY=0.5;entryDx=0;entryDy=0;fontFamily=Comic Sans MS;" edge="1" parent="1" source="qHIptJzxmOa5pPm5v8AJ-7" target="qHIptJzxmOa5pPm5v8AJ-13">
          <mxGeometry relative="1" as="geometry">
            <Array as="points">
              <mxPoint x="210" y="355" />
            </Array>
          </mxGeometry>
        </mxCell>
        <mxCell id="qHIptJzxmOa5pPm5v8AJ-19" style="edgeStyle=orthogonalEdgeStyle;rounded=0;sketch=1;orthogonalLoop=1;jettySize=auto;html=1;entryX=0;entryY=0.5;entryDx=0;entryDy=0;fontFamily=Comic Sans MS;" edge="1" parent="1" source="qHIptJzxmOa5pPm5v8AJ-7" target="qHIptJzxmOa5pPm5v8AJ-15">
          <mxGeometry relative="1" as="geometry">
            <Array as="points">
              <mxPoint x="210" y="455" />
            </Array>
          </mxGeometry>
        </mxCell>
        <mxCell id="qHIptJzxmOa5pPm5v8AJ-28" value="" style="edgeStyle=orthogonalEdgeStyle;curved=1;sketch=1;orthogonalLoop=1;jettySize=auto;html=1;fontFamily=Comic Sans MS;" edge="1" parent="1" source="qHIptJzxmOa5pPm5v8AJ-7" target="qHIptJzxmOa5pPm5v8AJ-14">
          <mxGeometry relative="1" as="geometry" />
        </mxCell>
        <mxCell id="qHIptJzxmOa5pPm5v8AJ-7" value="analytics.zhihuiya.com" style="rounded=0;whiteSpace=wrap;html=1;sketch=1;fontFamily=Comic Sans MS;" vertex="1" parent="1">
          <mxGeometry x="140" y="530" width="140" height="50" as="geometry" />
        </mxCell>
        <mxCell id="qHIptJzxmOa5pPm5v8AJ-29" value="" style="edgeStyle=orthogonalEdgeStyle;curved=1;sketch=1;orthogonalLoop=1;jettySize=auto;html=1;fontFamily=Comic Sans MS;" edge="1" parent="1" source="qHIptJzxmOa5pPm5v8AJ-8" target="qHIptJzxmOa5pPm5v8AJ-14">
          <mxGeometry relative="1" as="geometry" />
        </mxCell>
        <mxCell id="qHIptJzxmOa5pPm5v8AJ-36" style="edgeStyle=orthogonalEdgeStyle;rounded=0;sketch=1;orthogonalLoop=1;jettySize=auto;html=1;entryX=1;entryY=0.75;entryDx=0;entryDy=0;fontFamily=Comic Sans MS;startArrow=none;startFill=0;" edge="1" parent="1" source="qHIptJzxmOa5pPm5v8AJ-8" target="qHIptJzxmOa5pPm5v8AJ-15">
          <mxGeometry relative="1" as="geometry">
            <Array as="points">
              <mxPoint x="670" y="468" />
            </Array>
          </mxGeometry>
        </mxCell>
        <mxCell id="qHIptJzxmOa5pPm5v8AJ-8" value="insights.zhihuiya.com" style="rounded=0;whiteSpace=wrap;html=1;sketch=1;fontFamily=Comic Sans MS;" vertex="1" parent="1">
          <mxGeometry x="600" y="530" width="140" height="50" as="geometry" />
        </mxCell>
        <mxCell id="qHIptJzxmOa5pPm5v8AJ-11" value="1" style="ellipse;whiteSpace=wrap;html=1;aspect=fixed;strokeWidth=2;fontFamily=Tahoma;spacingBottom=4;spacingRight=2;strokeColor=#d3d3d3;sketch=1;fillColor=#FFB570;fillStyle=solid;" vertex="1" parent="1">
          <mxGeometry x="220" y="640" width="20" height="20" as="geometry" />
        </mxCell>
        <mxCell id="qHIptJzxmOa5pPm5v8AJ-12" value="Browses to" style="text;html=1;align=center;verticalAlign=middle;resizable=0;points=[];autosize=1;strokeColor=none;fillColor=none;fontFamily=Comic Sans MS;" vertex="1" parent="1">
          <mxGeometry x="240" y="640" width="80" height="20" as="geometry" />
        </mxCell>
        <mxCell id="qHIptJzxmOa5pPm5v8AJ-31" value="" style="edgeStyle=orthogonalEdgeStyle;rounded=0;sketch=1;orthogonalLoop=1;jettySize=auto;html=1;fontFamily=Comic Sans MS;startArrow=none;startFill=0;" edge="1" parent="1" source="qHIptJzxmOa5pPm5v8AJ-13" target="qHIptJzxmOa5pPm5v8AJ-15">
          <mxGeometry relative="1" as="geometry" />
        </mxCell>
        <mxCell id="qHIptJzxmOa5pPm5v8AJ-13" value="account.zhihuiya.com" style="rounded=0;whiteSpace=wrap;html=1;sketch=1;fontFamily=Comic Sans MS;" vertex="1" parent="1">
          <mxGeometry x="370" y="330" width="140" height="50" as="geometry" />
        </mxCell>
        <mxCell id="qHIptJzxmOa5pPm5v8AJ-14" value="Browser Cookie Storage" style="rounded=0;whiteSpace=wrap;html=1;sketch=1;fontFamily=Comic Sans MS;fillColor=#ffe6cc;strokeColor=#d79b00;fillStyle=solid;" vertex="1" parent="1">
          <mxGeometry x="370" y="530" width="140" height="50" as="geometry" />
        </mxCell>
        <mxCell id="qHIptJzxmOa5pPm5v8AJ-30" value="" style="edgeStyle=orthogonalEdgeStyle;sketch=1;orthogonalLoop=1;jettySize=auto;html=1;fontFamily=Comic Sans MS;rounded=0;startArrow=classic;startFill=1;" edge="1" parent="1" source="qHIptJzxmOa5pPm5v8AJ-15" target="qHIptJzxmOa5pPm5v8AJ-14">
          <mxGeometry relative="1" as="geometry" />
        </mxCell>
        <mxCell id="qHIptJzxmOa5pPm5v8AJ-37" style="edgeStyle=orthogonalEdgeStyle;rounded=0;sketch=1;orthogonalLoop=1;jettySize=auto;html=1;entryX=0.571;entryY=0;entryDx=0;entryDy=0;entryPerimeter=0;fontFamily=Comic Sans MS;startArrow=none;startFill=0;exitX=0;exitY=0.75;exitDx=0;exitDy=0;" edge="1" parent="1" source="qHIptJzxmOa5pPm5v8AJ-15" target="qHIptJzxmOa5pPm5v8AJ-7">
          <mxGeometry relative="1" as="geometry" />
        </mxCell>
        <mxCell id="qHIptJzxmOa5pPm5v8AJ-51" style="edgeStyle=orthogonalEdgeStyle;sketch=1;orthogonalLoop=1;jettySize=auto;html=1;fontFamily=Comic Sans MS;startArrow=none;startFill=0;rounded=0;entryX=0.579;entryY=0.01;entryDx=0;entryDy=0;entryPerimeter=0;" edge="1" parent="1" source="qHIptJzxmOa5pPm5v8AJ-15" target="qHIptJzxmOa5pPm5v8AJ-8">
          <mxGeometry relative="1" as="geometry">
            <mxPoint x="690" y="530" as="targetPoint" />
          </mxGeometry>
        </mxCell>
        <mxCell id="qHIptJzxmOa5pPm5v8AJ-15" value="passport.zhihuiya.com" style="rounded=0;whiteSpace=wrap;html=1;sketch=1;fontFamily=Comic Sans MS;" vertex="1" parent="1">
          <mxGeometry x="370" y="430" width="140" height="50" as="geometry" />
        </mxCell>
        <mxCell id="qHIptJzxmOa5pPm5v8AJ-17" value="2" style="ellipse;whiteSpace=wrap;html=1;aspect=fixed;strokeWidth=2;fontFamily=Tahoma;spacingBottom=4;spacingRight=2;strokeColor=#d3d3d3;sketch=1;fillStyle=solid;fillColor=#FFB570;" vertex="1" parent="1">
          <mxGeometry x="205" y="330" width="20" height="20" as="geometry" />
        </mxCell>
        <mxCell id="qHIptJzxmOa5pPm5v8AJ-18" value="Redirects to Login Form" style="text;html=1;align=center;verticalAlign=middle;resizable=0;points=[];autosize=1;strokeColor=none;fillColor=none;fontFamily=Comic Sans MS;" vertex="1" parent="1">
          <mxGeometry x="220" y="330" width="150" height="20" as="geometry" />
        </mxCell>
        <mxCell id="qHIptJzxmOa5pPm5v8AJ-20" value="6" style="ellipse;whiteSpace=wrap;html=1;aspect=fixed;strokeWidth=2;fontFamily=Tahoma;spacingBottom=4;spacingRight=2;strokeColor=#d3d3d3;sketch=1;fillStyle=solid;fillColor=#FFB570;" vertex="1" parent="1">
          <mxGeometry x="215" y="430" width="20" height="20" as="geometry" />
        </mxCell>
        <mxCell id="qHIptJzxmOa5pPm5v8AJ-21" value="CheckSession" style="text;html=1;align=center;verticalAlign=middle;resizable=0;points=[];autosize=1;strokeColor=none;fillColor=none;fontFamily=Comic Sans MS;" vertex="1" parent="1">
          <mxGeometry x="240" y="430" width="90" height="20" as="geometry" />
        </mxCell>
        <mxCell id="qHIptJzxmOa5pPm5v8AJ-25" value="3" style="ellipse;whiteSpace=wrap;html=1;aspect=fixed;strokeWidth=2;fontFamily=Tahoma;spacingBottom=4;spacingRight=2;strokeColor=#d3d3d3;sketch=1;fillStyle=solid;fillColor=#FFB570;" vertex="1" parent="1">
          <mxGeometry x="380" y="260" width="20" height="20" as="geometry" />
        </mxCell>
        <mxCell id="qHIptJzxmOa5pPm5v8AJ-26" value="User logs in" style="text;html=1;align=center;verticalAlign=middle;resizable=0;points=[];autosize=1;strokeColor=none;fillColor=none;fontFamily=Comic Sans MS;" vertex="1" parent="1">
          <mxGeometry x="400" y="260" width="80" height="20" as="geometry" />
        </mxCell>
        <mxCell id="qHIptJzxmOa5pPm5v8AJ-27" style="edgeStyle=orthogonalEdgeStyle;sketch=1;orthogonalLoop=1;jettySize=auto;html=1;entryX=0.75;entryY=0;entryDx=0;entryDy=0;fontFamily=Comic Sans MS;exitX=0.25;exitY=0;exitDx=0;exitDy=0;curved=1;" edge="1" parent="1" source="qHIptJzxmOa5pPm5v8AJ-13" target="qHIptJzxmOa5pPm5v8AJ-13">
          <mxGeometry relative="1" as="geometry">
            <Array as="points">
              <mxPoint x="405" y="290" />
              <mxPoint x="475" y="290" />
            </Array>
          </mxGeometry>
        </mxCell>
        <mxCell id="qHIptJzxmOa5pPm5v8AJ-32" value="LoginSubmit" style="text;html=1;align=center;verticalAlign=middle;resizable=0;points=[];autosize=1;strokeColor=none;fillColor=none;fontFamily=Comic Sans MS;" vertex="1" parent="1">
          <mxGeometry x="460" y="400" width="80" height="20" as="geometry" />
        </mxCell>
        <mxCell id="qHIptJzxmOa5pPm5v8AJ-33" value="4" style="ellipse;whiteSpace=wrap;html=1;aspect=fixed;strokeWidth=2;fontFamily=Tahoma;spacingBottom=4;spacingRight=2;strokeColor=#d3d3d3;sketch=1;fillStyle=solid;fillColor=#FFB570;" vertex="1" parent="1">
          <mxGeometry x="443" y="400" width="20" height="20" as="geometry" />
        </mxCell>
        <mxCell id="qHIptJzxmOa5pPm5v8AJ-34" value="5" style="ellipse;whiteSpace=wrap;html=1;aspect=fixed;strokeWidth=2;fontFamily=Tahoma;spacingBottom=4;spacingRight=2;strokeColor=#d3d3d3;sketch=1;fillStyle=solid;fillColor=#FFB570;" vertex="1" parent="1">
          <mxGeometry x="450" y="500" width="20" height="20" as="geometry" />
        </mxCell>
        <mxCell id="qHIptJzxmOa5pPm5v8AJ-35" value="Store Cookies" style="text;html=1;align=center;verticalAlign=middle;resizable=0;points=[];autosize=1;strokeColor=none;fillColor=none;fontFamily=Comic Sans MS;" vertex="1" parent="1">
          <mxGeometry x="470" y="500" width="90" height="20" as="geometry" />
        </mxCell>
        <mxCell id="qHIptJzxmOa5pPm5v8AJ-38" value="7" style="ellipse;whiteSpace=wrap;html=1;aspect=fixed;strokeWidth=2;fontFamily=Tahoma;spacingBottom=4;spacingRight=2;strokeColor=#d3d3d3;sketch=1;fillStyle=solid;fillColor=#FFB570;" vertex="1" parent="1">
          <mxGeometry x="225" y="480" width="20" height="20" as="geometry" />
        </mxCell>
        <mxCell id="qHIptJzxmOa5pPm5v8AJ-39" value="Sends JWT and redirects" style="text;html=1;align=center;verticalAlign=middle;resizable=0;points=[];autosize=1;strokeColor=none;fillColor=none;fontFamily=Comic Sans MS;" vertex="1" parent="1">
          <mxGeometry x="240" y="480" width="160" height="20" as="geometry" />
        </mxCell>
        <mxCell id="qHIptJzxmOa5pPm5v8AJ-40" style="edgeStyle=orthogonalEdgeStyle;sketch=1;orthogonalLoop=1;jettySize=auto;html=1;fontFamily=Comic Sans MS;startArrow=none;startFill=0;curved=1;" edge="1" parent="1" target="qHIptJzxmOa5pPm5v8AJ-7">
          <mxGeometry relative="1" as="geometry">
            <mxPoint x="190" y="530" as="sourcePoint" />
            <Array as="points">
              <mxPoint x="190" y="530" />
              <mxPoint x="190" y="500" />
              <mxPoint x="140" y="500" />
            </Array>
          </mxGeometry>
        </mxCell>
        <mxCell id="qHIptJzxmOa5pPm5v8AJ-41" value="8" style="ellipse;whiteSpace=wrap;html=1;aspect=fixed;strokeWidth=2;fontFamily=Tahoma;spacingBottom=4;spacingRight=2;strokeColor=#d3d3d3;sketch=1;fillStyle=solid;fillColor=#FFB570;" vertex="1" parent="1">
          <mxGeometry x="90" y="470" width="20" height="20" as="geometry" />
        </mxCell>
        <mxCell id="qHIptJzxmOa5pPm5v8AJ-42" value="Uses Token &lt;br&gt;to Authenticate" style="text;html=1;align=center;verticalAlign=middle;resizable=0;points=[];autosize=1;strokeColor=none;fillColor=none;fontFamily=Comic Sans MS;" vertex="1" parent="1">
          <mxGeometry x="105" y="465" width="110" height="30" as="geometry" />
        </mxCell>
        <mxCell id="qHIptJzxmOa5pPm5v8AJ-43" value="9" style="ellipse;whiteSpace=wrap;html=1;aspect=fixed;strokeWidth=2;fontFamily=Tahoma;spacingBottom=4;spacingRight=2;strokeColor=#d3d3d3;sketch=1;fillStyle=solid;fillColor=#FFB570;" vertex="1" parent="1">
          <mxGeometry x="290" y="565" width="20" height="20" as="geometry" />
        </mxCell>
        <mxCell id="qHIptJzxmOa5pPm5v8AJ-44" value="Stores Analytics Cookie" style="text;html=1;align=center;verticalAlign=middle;resizable=0;points=[];autosize=1;strokeColor=none;fillColor=none;fontFamily=Comic Sans MS;" vertex="1" parent="1">
          <mxGeometry x="250" y="580" width="150" height="20" as="geometry" />
        </mxCell>
        <mxCell id="qHIptJzxmOa5pPm5v8AJ-45" value="10" style="ellipse;whiteSpace=wrap;html=1;aspect=fixed;strokeWidth=2;fontFamily=Tahoma;spacingBottom=4;spacingRight=2;strokeColor=#d3d3d3;sketch=1;fillStyle=solid;fillColor=#FFB570;" vertex="1" parent="1">
          <mxGeometry x="530" y="640" width="20" height="20" as="geometry" />
        </mxCell>
        <mxCell id="qHIptJzxmOa5pPm5v8AJ-46" value="Browses to" style="text;html=1;align=center;verticalAlign=middle;resizable=0;points=[];autosize=1;strokeColor=none;fillColor=none;fontFamily=Comic Sans MS;" vertex="1" parent="1">
          <mxGeometry x="550" y="640" width="80" height="20" as="geometry" />
        </mxCell>
        <mxCell id="qHIptJzxmOa5pPm5v8AJ-47" value="CheckSession" style="text;html=1;align=center;verticalAlign=middle;resizable=0;points=[];autosize=1;strokeColor=none;fillColor=none;fontFamily=Comic Sans MS;" vertex="1" parent="1">
          <mxGeometry x="570" y="470" width="90" height="20" as="geometry" />
        </mxCell>
        <mxCell id="qHIptJzxmOa5pPm5v8AJ-48" value="11" style="ellipse;whiteSpace=wrap;html=1;aspect=fixed;strokeWidth=2;fontFamily=Tahoma;spacingBottom=4;spacingRight=2;strokeColor=#d3d3d3;sketch=1;fillStyle=solid;fillColor=#FFB570;" vertex="1" parent="1">
          <mxGeometry x="550" y="470" width="20" height="20" as="geometry" />
        </mxCell>
        <mxCell id="qHIptJzxmOa5pPm5v8AJ-49" value="Cookie is available, &lt;br&gt;sends JWT and redirects" style="text;html=1;align=center;verticalAlign=middle;resizable=0;points=[];autosize=1;strokeColor=none;fillColor=none;fontFamily=Comic Sans MS;" vertex="1" parent="1">
          <mxGeometry x="540" y="420" width="160" height="30" as="geometry" />
        </mxCell>
        <mxCell id="qHIptJzxmOa5pPm5v8AJ-50" value="12" style="ellipse;whiteSpace=wrap;html=1;aspect=fixed;strokeWidth=2;fontFamily=Tahoma;spacingBottom=4;spacingRight=2;strokeColor=#d3d3d3;sketch=1;fillStyle=solid;fillColor=#FFB570;" vertex="1" parent="1">
          <mxGeometry x="530" y="425" width="20" height="20" as="geometry" />
        </mxCell>
        <mxCell id="qHIptJzxmOa5pPm5v8AJ-52" style="edgeStyle=orthogonalEdgeStyle;sketch=1;orthogonalLoop=1;jettySize=auto;html=1;fontFamily=Comic Sans MS;startArrow=none;startFill=0;curved=1;" edge="1" parent="1">
          <mxGeometry relative="1" as="geometry">
            <mxPoint x="740" y="530" as="sourcePoint" />
            <mxPoint x="690" y="530" as="targetPoint" />
            <Array as="points">
              <mxPoint x="740" y="530" />
              <mxPoint x="740" y="500" />
              <mxPoint x="690" y="500" />
            </Array>
          </mxGeometry>
        </mxCell>
        <mxCell id="qHIptJzxmOa5pPm5v8AJ-53" value="13" style="ellipse;whiteSpace=wrap;html=1;aspect=fixed;strokeWidth=2;fontFamily=Tahoma;spacingBottom=4;spacingRight=2;strokeColor=#d3d3d3;sketch=1;fillStyle=solid;fillColor=#FFB570;" vertex="1" parent="1">
          <mxGeometry x="690" y="475" width="20" height="20" as="geometry" />
        </mxCell>
        <mxCell id="qHIptJzxmOa5pPm5v8AJ-54" value="Uses Token &lt;br&gt;to Authenticate" style="text;html=1;align=center;verticalAlign=middle;resizable=0;points=[];autosize=1;strokeColor=none;fillColor=none;fontFamily=Comic Sans MS;" vertex="1" parent="1">
          <mxGeometry x="705" y="470" width="110" height="30" as="geometry" />
        </mxCell>
        <mxCell id="qHIptJzxmOa5pPm5v8AJ-55" value="14" style="ellipse;whiteSpace=wrap;html=1;aspect=fixed;strokeWidth=2;fontFamily=Tahoma;spacingBottom=4;spacingRight=2;strokeColor=#d3d3d3;sketch=1;fillStyle=solid;fillColor=#FFB570;" vertex="1" parent="1">
          <mxGeometry x="530" y="567" width="20" height="20" as="geometry" />
        </mxCell>
        <mxCell id="qHIptJzxmOa5pPm5v8AJ-56" value="Stores Insights Cookie" style="text;html=1;align=center;verticalAlign=middle;resizable=0;points=[];autosize=1;strokeColor=none;fillColor=none;fontFamily=Comic Sans MS;" vertex="1" parent="1">
          <mxGeometry x="495" y="582" width="140" height="20" as="geometry" />
        </mxCell>
      </root>
    </mxGraphModel>
  </diagram>
</mxfile>
